<svg width="330" height="216" viewBox="0 0 330 216" fill="none" xmlns="http://www.w3.org/2000/svg">
<path d="M89.7812 138.739C68.3387 141.907 50.6177 144.303 28.1907 150.539C13.1475 154.736 1.5107 160.596 0.132397 169.288C-1.8563 181.681 19.0348 195.045 30.7898 200.667C41.895 205.973 48.8653 206.29 87.6546 211.021C125.046 215.595 122.211 215.753 126.149 215.753C161.906 215.912 162.93 206.844 194.316 202.766C225.131 198.767 235.98 206.032 251.358 204.468C256.792 203.914 260.533 202.172 268.173 199.657C295.562 190.649 330.118 179.285 330 166.753C329.882 155.35 301.095 139.927 277.289 142.323C272.052 142.857 259.509 144.996 243.639 144.204C240.075 144.025 234.641 143.61 228.32 141.194C221.015 138.403 217.077 134.701 214.104 132.543C193.489 117.655 154.207 130.147 135.561 131.652C135.088 131.691 133.434 132.285 89.7812 138.739Z" fill="#EBEFF2"/>
<path d="M89.0518 146.286C83.5189 147.007 82.8888 147.358 77.8284 148.566C71.9017 149.988 60.639 152.228 57.9218 152.754C44.2175 155.403 15.4897 165.668 16.3757 172.642C16.5923 174.356 18.4826 174.979 31.1236 180.2C52.0344 188.81 50.0064 188.381 52.4873 189.102C65.8766 192.9 77.2968 191.712 87.5553 190.66C90.2529 190.387 97.5579 189.082 111.971 186.258C125.833 183.531 132.783 182.167 136.269 181.602C146.704 179.888 179.154 175.096 185.632 173.635C189.018 172.876 192.543 171.376 194.079 170.636C194.216 170.577 194.315 170.519 194.433 170.46C196.953 169.077 198.647 167.675 198.863 167.499C201.718 165.142 217.096 164.207 218.573 164.11C228.142 163.487 239.543 160.195 239.563 157.701C239.582 154.76 223.909 157.078 202.545 148.643C196.481 146.248 186.222 141.514 172.754 142.878C171.888 142.956 171.297 143.053 170.805 143.111C147.925 145.897 120.576 142.196 89.0518 146.286Z" fill="#D8DEE8"/>
<path d="M86.3903 154.587L86.43 155.197C75.9842 153.622 64.0688 146.794 63.9496 146.735C63.8702 146.676 64.1681 146.066 64.2276 145.988C64.2872 145.909 64.3865 145.87 64.466 145.929C64.5851 145.988 76.0636 152.658 86.43 154.232C86.5293 154.252 86.5889 154.331 86.5889 154.429C86.5889 154.547 86.4896 154.606 86.3903 154.587Z" fill="#D8DEE8"/>
<path d="M78.824 163.992C78.7247 164.917 78.268 165.665 77.6722 165.881C76.1828 166.472 74.2565 166.688 72.0124 166.688C69.7286 166.688 67.7824 166.452 66.2731 165.881C65.6972 165.645 65.2603 164.956 65.1213 164.051L61.1296 135.224H82.1802L78.824 163.992Z" fill="url(#paint0_linear_0_1001)"/>
<ellipse cx="71.6748" cy="135.086" rx="10.5451" ry="1.67256" fill="url(#paint1_linear_0_1001)"/>
<path d="M64.605 82.7844C62.7978 87.0544 55.2514 97.3456 59.9778 103.642C64.7043 109.939 67.9214 116.196 64.1681 120.525C60.8913 124.323 61.5864 129.223 62.5992 132.686C63.0361 132.804 63.2744 133.001 63.6915 133.237C65.5185 134.26 67.4448 135.126 69.4109 135.893C72.1514 135.952 74.8721 135.834 77.6126 135.559C78.9631 135.323 80.3333 135.067 81.6639 134.791C83.4909 130.994 85.2187 125.661 82.4185 122.965C77.7715 118.499 82.8951 108.522 85.0002 102.895C90.7196 87.625 73.2635 84.2602 79.0226 64.0517C80.5518 58.6798 85.2981 48.9396 81.9419 43.3709C78.129 37.0349 72.9656 40.7539 70.7811 35.7362C67.3654 27.885 59.5211 23.2214 52.5903 28.3572C45.7389 33.4339 48.122 48.0148 60.2559 62.6153C67.7824 74.0674 67.1867 76.7042 64.605 82.7844Z" fill="url(#paint2_linear_0_1001)"/>
<path d="M71.7542 135.696L71.4762 135.657C78.3673 90.793 70.3244 50.2776 48.7972 21.5686L49.0156 21.4111C60.4743 36.7003 68.12 55.0592 71.7542 76.0154C74.9714 94.6301 74.9714 114.721 71.7542 135.696Z" fill="#FCFDFE"/>
<path d="M70.9201 73.1818C68.7158 59.8604 79.7971 39.5535 79.8964 39.3567L80.1347 39.4944C80.0156 39.6912 68.9938 59.9194 71.1783 73.1425L70.9201 73.1818Z" fill="#FCFDFE"/>
<path d="M73.76 110.726C73.3429 101.694 59.4813 90.8717 59.3423 90.7733L59.521 90.5569C59.6601 90.6749 73.621 101.556 74.038 110.726H73.76Z" fill="#FCFDFE"/>
<path d="M73.8196 115.98L73.5415 115.94C74.3359 109.939 78.6453 102.225 85.6754 94.1774C85.8343 94.0003 85.9534 93.8429 85.9733 93.8232L86.0726 93.8823L86.2315 93.902C86.2315 93.961 86.2315 93.961 85.874 94.3545C78.9035 102.363 74.6139 110.037 73.8196 115.98Z" fill="#FCFDFE"/>
<path d="M71.8337 133.04C70.801 126.665 62.3609 121.883 62.2815 121.824L62.4205 121.588C62.4999 121.627 71.0592 126.488 72.1117 133.001L71.8337 133.04Z" fill="#FCFDFE"/>
<path d="M72.211 135.795L71.9727 135.657C74.5742 131.269 78.4666 127.393 83.8881 123.812L84.0469 124.048C78.6652 127.59 74.7926 131.446 72.211 135.795Z" fill="#FCFDFE"/>
<path d="M61.7651 43.5676C60.1367 36.2476 60.1168 28.1997 60.1168 25.5432C60.1168 25.071 60.1168 24.7168 60.097 24.6578L60.375 24.6184C60.3949 24.6971 60.3949 24.9529 60.3949 25.5629C60.3949 28.1997 60.4147 36.228 62.0432 43.5282L61.7651 43.5676Z" fill="#FCFDFE"/>
<path d="M66.1738 55.0199C62.7382 49.038 48.7972 45.2993 48.6383 45.26L48.7177 45.0042C49.2937 45.1616 62.9169 48.8215 66.4121 54.9018L66.1738 55.0199Z" fill="#FCFDFE"/>
<path d="M49.81 117.967C48.2014 125.563 58.8856 125.504 61.1892 128.928C61.9637 130.088 62.2417 131.348 62.2219 132.548C62.2815 132.587 61.8843 134.614 61.9439 134.654C62.6588 135.047 63.8503 135.5 65.0022 135.637C69.0137 136.129 73.0252 135.952 77.0367 135.598C77.3545 134.142 77.136 132.725 75.5473 131.977C71.5556 130.088 72.5883 122.769 74.1373 120.368C76.0636 117.377 80.373 110.352 74.2366 107.342C69.1328 104.843 65.3199 104.252 65.9951 97.3652C66.6902 90.4585 63.5723 85.6179 57.2373 85.067C50.5646 84.4963 46.5134 74.9726 40.655 77.0583C30.4474 80.6986 36.6435 97.0898 47.4071 103.209C58.1905 109.329 51.0015 112.418 49.81 117.967Z" fill="url(#paint3_linear_0_1001)"/>
<path d="M68.3981 135.48C67.2661 112.773 54.9932 90.7144 36.4052 77.9242L36.564 77.7078C55.2315 90.5373 67.5243 112.674 68.6761 135.46L68.3981 135.48Z" fill="#FCFDFE"/>
<path d="M66.9682 123.142L66.6902 123.103C68.0604 114.091 76.8778 108.247 76.9573 108.188L77.1161 108.424C77.0367 108.483 68.3186 114.248 66.9682 123.142Z" fill="#FCFDFE"/>
<path d="M68.0803 131.269C65.022 122.867 48.8567 119.325 48.6979 119.286L48.7575 119.01C48.9163 119.05 65.2404 122.611 68.3385 131.171L68.0803 131.269Z" fill="#FCFDFE"/>
<path d="M58.548 102.226C56.6415 95.1222 62.5396 85.5984 62.5992 85.5L62.8375 85.6377C62.7779 85.7361 56.9394 95.1812 58.8061 102.147L58.548 102.226Z" fill="#FCFDFE"/>
<path d="M50.1675 90.3209C43.9119 85.1064 32.8504 85.8345 32.7312 85.8345L32.7114 85.559C32.8305 85.559 43.9913 84.8113 50.3462 90.1044L50.1675 90.3209Z" fill="#FCFDFE"/>
<path d="M184.262 149.37C182.771 149.154 179.71 147.363 179.102 146.557C175.081 141.264 166.9 131.82 167.43 124.796C167.528 123.596 172.883 122.573 173.649 121.471C176.905 119.976 178.141 119.661 180.534 116.73C187.636 108.033 172.001 91.2506 190.579 85.7417C204.193 81.6887 215.572 86.5483 214.434 65.4372C213.296 44.3262 230.579 6.13731 252.57 21.1886C265.185 29.8258 251.962 47.5725 258.318 60.912C264.361 73.5826 258.887 83.8529 245.449 91.1916C232.011 98.5303 239.034 104.452 242.722 116.454C247.156 130.876 225.086 133.079 214.826 133.237C206.587 133.355 185.596 139.238 184.262 149.37Z" fill="url(#paint4_linear_0_1001)"/>
<path d="M173.452 136.286L173.315 135.991C218.043 114.979 245.508 69.6281 246.764 14.6763H247.077C246.489 40.7257 239.721 65.5357 227.519 86.4697C214.689 108.486 195.993 125.701 173.452 136.286Z" fill="#FCFDFE"/>
<path d="M245.273 122.239C232.502 117.812 211.04 117.359 197.425 121.235L197.347 120.92C211.02 117.025 232.56 117.477 245.39 121.924L245.273 122.239Z" fill="#FCFDFE"/>
<path d="M182.182 132.076L181.966 131.84C187.499 126.98 190.382 119.504 190.52 109.607C190.618 102.347 189.264 94.0052 186.498 84.758L186.812 84.6597C189.578 93.9265 190.932 102.308 190.834 109.588C190.716 119.582 187.793 127.157 182.182 132.076Z" fill="#FCFDFE"/>
<path d="M229.127 83.4595L228.912 83.2234C238.877 73.5237 253.277 71.1234 263.615 70.8086V71.1234C253.336 71.4382 239.015 73.8188 229.127 83.4595Z" fill="#FCFDFE"/>
<path d="M241.29 54.0062L240.976 53.9865C242.35 38.3647 233.581 24.4349 228.245 17.529L228.5 17.3323C233.875 24.2578 242.683 38.2663 241.29 54.0062Z" fill="#FCFDFE"/>
<path d="M192.102 147.761C186.279 147.546 180.456 147.212 174.634 146.741C174.556 146.839 171.293 134.557 176.49 127.356C186.768 113.367 177.643 102.87 174.653 96.356C170.042 87.2522 170.785 76.7356 180.398 75.5192C191.047 73.9495 191.027 55.9773 187.295 40.0259C184.931 32.3151 191.281 21.9359 198.432 18.9144C205.701 15.6574 213.79 19.7777 217.815 35.2189C223.305 53.0146 211.309 65.4539 207.42 75.1071C203.591 84.5838 215.588 90.5876 207.459 99.5149C200.66 107.402 191.652 113.524 196.127 122C200.679 130.378 200.621 137.618 192.102 147.761Z" fill="url(#paint5_linear_0_1001)"/>
<path d="M184.247 149.37C184.228 149.252 186.807 122.373 193.411 95.7477C194.251 91.4704 195.208 87.1343 196.127 82.9356C201.266 59.6069 206.111 37.5536 195.756 14.8136L196.068 14.6763C206.482 37.534 201.617 59.6266 196.459 83.0337C195.541 87.2128 194.583 91.5489 193.743 95.8458C187.1 122.608 184.579 149.194 184.579 149.37H184.247Z" fill="#BEB8F2"/>
<path d="M200.777 61.3336L200.503 61.1374C206.092 53.3089 212.676 42.3411 216.213 36.455C219.066 31.6873 219.085 31.6873 219.261 31.6873V31.8638L219.359 32.0012C219.183 32.1581 218.01 34.1398 216.506 36.6316C212.95 42.5373 206.365 53.5051 200.777 61.3336Z" fill="#BEB8F2"/>
<path d="M201.52 51.3468C199.312 43.381 195.404 38.3974 192.512 35.6309C189.366 32.6094 186.572 31.3733 186.24 31.3537V31.2163L186.103 31.0398C186.181 30.9809 186.279 30.9809 186.435 31.0398C188.702 31.7461 197.963 37.2398 201.832 51.2487L201.52 51.3468Z" fill="#BEB8F2"/>
<path d="M189.992 113.092H189.64C189.777 96.6501 177.135 82.7197 171.684 77.5007C171.39 77.226 171.293 77.1279 171.254 77.0886L171.527 76.8728L171.39 76.9709L171.527 76.8728C171.547 76.912 171.723 77.069 171.918 77.2456C175.845 81.0127 179.245 85.0545 182.02 89.2533C187.373 97.3172 190.05 105.342 189.992 113.092Z" fill="#BEB8F2"/>
<path d="M191.672 104.832L191.359 104.675C196.986 92.8047 211.309 90.3914 211.543 90.3914L211.68 90.5483L211.582 90.7249L211.504 90.5679V90.7445C211.406 90.7641 197.24 93.0793 191.672 104.832Z" fill="#BEB8F2"/>
<path d="M184.736 144.975C184.501 141.659 182.703 136.185 175.533 128.828C175.122 128.416 175.122 128.416 175.122 128.317L175.474 128.337H175.298L175.455 128.239C175.474 128.278 175.63 128.416 175.787 128.592C183.016 136.028 184.833 141.6 185.087 144.956L184.736 144.975Z" fill="#BEB8F2"/>
<path d="M185.849 138.579L185.517 138.52C186.572 132.457 194.251 127.258 198.745 124.688C198.882 124.609 198.979 124.55 199.019 124.531L199.214 124.825C199.175 124.845 199.077 124.904 198.921 125.002C194.466 127.533 186.865 132.654 185.849 138.579Z" fill="#BEB8F2"/>
<path d="M191.279 161.546C191.279 163.343 189.923 164.864 188.233 164.962L81.4869 170.532C79.5218 170.63 77.93 169.13 77.93 167.194V8.01599C77.93 6.06083 79.5218 4.57964 81.4869 4.69814L82.9215 4.61914L188.253 11.2351C189.923 11.3339 191.299 12.8743 191.299 14.6715V161.546H191.279Z" fill="url(#paint6_linear_0_1001)"/>
<path d="M193.382 161.467C193.382 163.264 192.026 164.785 190.336 164.884L83.5896 170.453C81.6245 170.552 80.0327 169.051 80.0327 167.115V7.93705C80.0327 5.98188 81.6245 4.5007 83.5896 4.61919L190.336 11.1562C192.006 11.2549 193.382 12.7953 193.382 14.5925V161.467Z" fill="url(#paint7_linear_0_1001)"/>
<path d="M111.278 19.6088C108.625 23.0452 108.252 29.5229 112.792 32.189C122.657 38.2915 135.528 36.3758 145.02 29.8981C151.996 25.0003 149.029 15.896 147.024 8.52954L126.037 7.24585C124.229 12.3214 114.619 15.1455 111.278 19.6088Z" fill="url(#paint8_linear_0_1001)"/>
<path d="M188.351 155.108C188.351 156.707 187.152 158.05 185.659 158.11L88.9937 162.652C87.2841 162.731 85.8888 161.408 85.8888 159.69V23.4599C85.8888 21.7418 87.2841 20.4383 88.9937 20.5173L185.659 25.4151C187.152 25.4941 188.351 26.8371 188.351 28.4367V155.108Z" fill="white"/>
<path fill-rule="evenodd" clip-rule="evenodd" d="M160.25 19.6088C161.075 19.6483 161.724 20.2408 161.861 21.0702L163.237 28.8317L113.971 26.8962L113.637 26.4815L117.469 18.7398C117.881 17.9104 118.746 17.3969 119.611 17.4364L124.956 17.7326C127.353 17.8511 129.633 16.1132 130.262 13.6841L131.716 8.05556C131.991 7.00885 132.954 6.27813 133.976 6.33738L135.646 6.43613C136.255 6.47562 136.884 6.25838 137.375 5.84365C137.867 5.42892 138.201 4.83644 138.299 4.20447C138.653 1.87407 140.736 0.096649 142.976 0.254642C145.197 0.412635 146.71 2.4073 146.356 4.71795C146.16 6.02139 147.005 7.1471 148.262 7.22609L149.913 7.32484C150.896 7.38409 151.603 8.21355 151.564 9.26025L151.308 14.869C151.19 17.2784 152.861 19.2138 155.16 19.3323L160.25 19.6088ZM141.227 3.76999C141.129 4.44146 141.581 5.03394 142.229 5.07343C142.878 5.11293 143.507 4.59945 143.605 3.90823C143.703 3.23676 143.251 2.64429 142.603 2.60479C141.935 2.56529 141.325 3.09852 141.227 3.76999Z" fill="#6165D7"/>
<path fill-rule="evenodd" clip-rule="evenodd" d="M160.584 20.0434C161.409 20.0829 162.058 20.6754 162.195 21.5048L163.571 29.2662L113.971 26.9161L117.803 19.1744C118.215 18.345 119.08 17.8315 119.945 17.871L125.29 18.1672C127.687 18.2857 129.967 16.5478 130.596 14.1186L132.05 8.49013C132.325 7.44342 133.288 6.7127 134.31 6.77195L135.98 6.8707C136.589 6.91019 137.218 6.69295 137.71 6.27822C138.201 5.86349 138.535 5.27102 138.633 4.63904C138.987 2.30864 141.07 0.531219 143.31 0.689213C145.531 0.847206 147.044 2.84187 146.69 5.15252C146.494 6.45596 147.339 7.58167 148.596 7.66066L150.247 7.75941C151.23 7.81866 151.937 8.64812 151.898 9.69483L151.642 15.3036C151.524 17.713 153.195 19.6484 155.494 19.7669L160.584 20.0434ZM141.561 4.18481C141.463 4.85628 141.915 5.44876 142.563 5.48826C143.212 5.52775 143.821 5.01428 143.939 4.32306C144.037 3.65158 143.585 3.05911 142.937 3.01961C142.269 2.98011 141.659 3.51334 141.561 4.18481Z" fill="url(#paint9_linear_0_1001)"/>
<path d="M160.82 41.3922L115.071 39.6346V31.5769L160.82 33.5913V41.3922Z" fill="#D8DEE8"/>
<path d="M181.414 56.441C181.414 56.7372 181.178 56.9742 180.903 56.9742L142.642 55.9275C142.347 55.9275 142.092 55.651 142.092 55.3548V48.5808C142.092 48.2648 142.328 48.0278 142.642 48.0278L180.903 49.2918C181.198 49.2918 181.414 49.5485 181.414 49.8645V56.441Z" fill="#D8DEE8"/>
<path d="M181.414 64.0444C181.414 64.3407 181.178 64.5974 180.903 64.5777L142.642 63.7482C142.347 63.7482 142.092 63.4915 142.092 63.1755V61.2993C142.092 60.9833 142.328 60.7463 142.642 60.7463L180.903 61.6548C181.198 61.6548 181.414 61.9115 181.414 62.2078V64.0444Z" fill="#D8DEE8"/>
<path d="M181.414 70.9961C181.414 71.2924 181.178 71.5491 180.903 71.5294L142.642 70.8974C142.347 70.8974 142.092 70.6406 142.092 70.3247V68.4485C142.092 68.1325 142.328 67.8955 142.642 67.8955L180.903 68.6065C181.198 68.6065 181.414 68.8632 181.414 69.1595V70.9961Z" fill="#D8DEE8"/>
<path d="M181.414 77.9478C181.414 78.244 181.178 78.5008 180.903 78.481L142.642 78.0465C142.347 78.0465 142.092 77.7898 142.092 77.4738V75.5977C142.092 75.2817 142.328 75.0447 142.642 75.0447L180.903 75.5582C181.198 75.5582 181.414 75.8149 181.414 76.1111V77.9478Z" fill="#D8DEE8"/>
<path d="M181.414 84.8995C181.414 85.1957 181.178 85.4525 180.903 85.4525L142.642 85.2155C142.347 85.2155 142.092 84.9588 142.092 84.6428V82.7666C142.092 82.4506 142.328 82.2136 142.642 82.2136L180.903 82.5494C181.198 82.5494 181.414 82.8061 181.414 83.1023V84.8995Z" fill="#D8DEE8"/>
<path d="M129.083 85.4129L97.8172 85.2154C96.6578 85.2154 95.7145 84.2477 95.7145 83.0825V48.3635C95.7145 47.1983 96.6578 46.2701 97.8172 46.3096L129.083 47.3365C130.203 47.376 131.087 48.324 131.087 49.4694V83.3392C131.107 84.4847 130.203 85.4129 129.083 85.4129Z" fill="#F4F7FA"/>
<path fill-rule="evenodd" clip-rule="evenodd" d="M95.7145 48.3635C95.7145 47.218 96.6185 46.3096 97.7583 46.3096C97.7779 46.3096 97.7976 46.3096 97.8369 46.3293L129.102 47.3563C130.203 47.3958 131.107 48.3437 131.107 49.4892V83.359C131.107 84.5044 130.203 85.4129 129.102 85.4129H129.083L97.8172 85.2154C96.6578 85.1956 95.7145 84.2477 95.7145 83.0825V48.3635ZM97.7976 47.2575H97.7583C97.1294 47.2575 96.6382 47.7315 96.6578 48.3635V83.0627C96.6578 83.7145 97.1884 84.2477 97.8369 84.2477L129.102 84.4452C129.711 84.4452 130.183 83.9515 130.183 83.3392V49.4694C130.183 48.8375 129.672 48.3042 129.063 48.2845L97.7976 47.2575Z" fill="#D8DEE8"/>
<path d="M180.471 147.011C180.471 147.959 179.744 148.768 178.84 148.808L143.487 150.23C142.544 150.269 141.777 149.499 141.777 148.531V121.554C141.777 120.567 142.544 119.777 143.487 119.757L178.84 119.105C179.744 119.085 180.471 119.856 180.471 120.804V147.011Z" fill="#F4F7FA"/>
<path d="M180.491 138.815L141.777 140.079V140.869L180.491 139.565V138.815Z" fill="white"/>
<path d="M160.348 119.441V140.02L161.075 140V119.421L160.348 119.441Z" fill="white"/>
<path d="M157.046 131.883L146.081 132.179V122.304L157.046 122.087V131.883Z" fill="#D8DEE8"/>
<path d="M157.046 137.254L146.081 137.59V134.095L157.046 133.779V137.254Z" fill="#D8DEE8"/>
<path d="M151.505 144.443L146.12 144.641C146.061 144.641 146.002 144.581 146.002 144.522V143.199C146.002 143.14 146.061 143.081 146.12 143.081L151.505 142.883C151.564 142.883 151.623 142.942 151.623 143.002V144.325C151.623 144.384 151.564 144.443 151.505 144.443Z" fill="#D8DEE8"/>
<path d="M167.599 146.774L146.101 147.603C146.042 147.603 145.983 147.564 145.983 147.485V146.161C145.983 146.102 146.042 146.043 146.101 146.043L167.599 145.253C167.658 145.253 167.717 145.292 167.717 145.371V146.675C167.717 146.714 167.658 146.774 167.599 146.774Z" fill="#D8DEE8"/>
<path d="M167.265 136.682L164.18 136.781V121.929L167.265 121.87V136.682Z" fill="white"/>
<path d="M172.394 136.524L169.329 136.623V121.83L172.394 121.771V136.524Z" fill="white"/>
<path d="M177.504 136.366L174.458 136.465V121.732L177.504 121.673V136.366Z" fill="white"/>
<path d="M167.265 136.682L164.18 136.781V129.079L167.265 129V136.682Z" fill="#D8DEE8"/>
<path d="M172.394 136.524L169.329 136.623V125.267L172.394 125.188V136.524Z" fill="#D8DEE8"/>
<path d="M177.504 136.366L174.458 136.465V126.452L177.504 126.373V136.366Z" fill="#D8DEE8"/>
<path d="M135.175 150.348L97.4832 151.849C96.4809 151.888 95.6556 151.099 95.6556 150.091V122.245C95.6556 121.238 96.4809 120.408 97.4832 120.389L135.175 119.697C136.137 119.678 136.904 120.468 136.904 121.435V148.492C136.904 149.479 136.118 150.309 135.175 150.348Z" fill="#F4F7FA"/>
<path d="M95.6556 140.928V141.737L136.904 140.394V139.604L95.6556 140.928Z" fill="white"/>
<path d="M107.505 145.371L100.451 145.628C100.392 145.628 100.333 145.569 100.333 145.509V144.147C100.333 144.088 100.392 144.028 100.451 144.028L107.505 143.791C107.564 143.791 107.623 143.851 107.623 143.91V145.272C107.623 145.312 107.584 145.371 107.505 145.371Z" fill="#D8DEE8"/>
<path d="M114.914 148.136L100.47 148.689C100.411 148.689 100.352 148.63 100.352 148.571V147.208C100.352 147.149 100.411 147.089 100.47 147.07L114.914 146.536C114.973 146.536 115.032 146.596 115.032 146.655V147.998C115.032 148.077 114.973 148.136 114.914 148.136Z" fill="#D8DEE8"/>
<path d="M101.747 137.886L99.5858 137.945V123.963L101.747 123.904V137.886Z" fill="white"/>
<path d="M104.99 137.788L102.809 137.847V123.884L104.99 123.845V137.788Z" fill="white"/>
<path d="M108.193 137.689L106.051 137.748V123.825L108.193 123.785V137.689Z" fill="white"/>
<path d="M111.396 137.59L109.254 137.649V123.766L111.396 123.707V137.59Z" fill="white"/>
<path d="M114.58 137.491L112.438 137.551V123.687L114.58 123.647V137.491Z" fill="white"/>
<path d="M117.763 137.393L115.621 137.452V123.627L117.763 123.588V137.393Z" fill="white"/>
<path d="M120.908 137.294L118.805 137.373V123.568L120.908 123.509V137.294Z" fill="white"/>
<path d="M124.052 137.215L121.949 137.274V123.489L124.052 123.45V137.215Z" fill="white"/>
<path d="M127.196 137.116L125.093 137.175V123.43L127.196 123.39V137.116Z" fill="white"/>
<path d="M130.301 137.017L128.218 137.077V123.371L130.301 123.331V137.017Z" fill="white"/>
<path d="M133.406 136.919L131.323 136.978V123.311L133.406 123.252V136.919Z" fill="white"/>
<path d="M101.747 137.886L99.5858 137.946V130.678L101.747 130.619V137.886Z" fill="#D8DEE8"/>
<path d="M104.99 137.788L102.809 137.847V127.123L104.99 127.083V137.788Z" fill="#D8DEE8"/>
<path d="M108.193 137.689L106.051 137.748V128.288L108.193 128.229V137.689Z" fill="#D8DEE8"/>
<path d="M111.396 137.59L109.254 137.649V128.111L111.396 128.051V137.59Z" fill="#D8DEE8"/>
<path d="M114.58 137.491L112.438 137.551V126.906L114.58 126.866V137.491Z" fill="#D8DEE8"/>
<path d="M117.763 137.393L115.621 137.452V128.051L117.763 128.012V137.393Z" fill="#D8DEE8"/>
<path d="M120.908 137.294L118.805 137.373V127.202L120.908 127.162V137.294Z" fill="#D8DEE8"/>
<path d="M124.052 137.215L121.949 137.274V128.15L124.052 128.091V137.215Z" fill="#D8DEE8"/>
<path d="M127.196 137.116L125.093 137.175V127.834L127.196 127.794V137.116Z" fill="#D8DEE8"/>
<path d="M130.301 137.017L128.218 137.077V126.55L130.301 126.511V137.017Z" fill="#D8DEE8"/>
<path d="M133.406 136.918L131.323 136.978V127.083L133.406 127.024V136.918Z" fill="#D8DEE8"/>
<path d="M127.216 81.8778C126.862 81.2064 126.548 80.5349 126.272 79.8634C123.069 71.707 119.316 70.6011 119.316 70.6011L123.344 81.8383L127.216 81.8778Z" fill="url(#paint10_linear_0_1001)"/>
<path d="M125.919 81.8582C124.916 79.1525 123.973 76.7234 123.226 75.104C120.259 68.6065 114.442 68.7645 111.927 68.9817C111.927 68.9817 102.16 68.7447 100.49 79.8833C100.392 80.4757 100.333 81.0682 100.274 81.6212L125.919 81.8582Z" fill="url(#paint11_linear_0_1001)"/>
<g opacity="0.2">
<path d="M104.027 81.6805C103.005 80.7325 101.944 79.4883 100.922 77.8491C100.745 78.4811 100.588 79.1723 100.49 79.9228C100.392 80.5153 100.333 81.1077 100.274 81.6607L104.027 81.6805Z" fill="url(#paint12_linear_0_1001)"/>
</g>
<path d="M107.23 81.7001C107.191 76.8418 106.464 73.2475 104.302 73.524C104.302 73.524 101.04 73.445 99.9592 81.6409L107.23 81.7001Z" fill="url(#paint13_linear_0_1001)"/>
<path d="M110.257 61.8916C110.257 61.8916 110.885 67.6386 110.473 68.7248C110.06 69.811 111.495 71.2922 114.285 71.8254C117.056 72.3587 114.717 66.1179 114.717 66.1179L110.257 61.8916Z" fill="url(#paint14_linear_0_1001)"/>
<path d="M119.375 57.4086C121.045 54.466 118.707 50.2396 115.11 51.7011C112.654 52.7083 111.043 51.9776 109.412 52.5898C106.483 53.6958 106.857 55.8089 107.604 57.9813C108.311 62.2669 108.331 63.9653 112.929 66.434C114.482 60.371 117.351 60.9832 119.375 57.4086Z" fill="url(#paint15_linear_0_1001)"/>
<path d="M110.532 64.9134C110.532 64.9134 112.438 67.9548 116.054 67.698C119.67 67.4413 118.412 59.0084 117.488 58.5344C116.427 57.9814 114.953 58.6924 112.536 58.3172C111.514 58.1592 110.532 56.9545 110.139 58.3369C109.687 59.9169 110.119 62.3065 110.119 62.3065C110.119 62.3065 108.96 61.319 108.429 62.3855C107.997 63.215 108.783 64.3012 110.532 64.9134Z" fill="url(#paint16_linear_0_1001)"/>
<path d="M110.06 56.52C110.06 56.52 110.021 61.5956 111.298 63.1557C111.888 64.1432 111.161 64.1629 110.512 63.4322C109.883 62.7015 109.156 60.3909 109.156 60.3909L110.06 56.52Z" fill="url(#paint17_linear_0_1001)"/>
<path d="M110.709 52.7084C110.689 52.7084 110.689 52.7084 110.689 52.7084C110.63 52.7084 110.591 52.6689 110.591 52.6096C110.591 52.5504 110.63 52.5109 110.689 52.5109C110.846 52.5109 114.03 52.2936 114.678 50.9507C114.698 50.8914 114.757 50.8914 114.816 50.9112C114.875 50.9309 114.894 50.9902 114.855 51.0494C114.148 52.4714 111.023 52.6886 110.709 52.7084Z" fill="url(#paint18_linear_0_1001)"/>
<path d="M116.368 93.1548L96.4416 93.135C96.3041 93.135 96.2058 93.0363 96.2058 92.898V90.2516C96.2058 90.1134 96.3041 90.0146 96.4416 90.0146L116.368 90.0739C116.506 90.0739 116.604 90.1726 116.604 90.3109V92.9178C116.604 93.0363 116.506 93.1548 116.368 93.1548Z" fill="#D8DEE8"/>
<path d="M130.458 99.4151L96.4613 99.5336C96.3237 99.5336 96.2255 99.4349 96.2255 99.2966V96.6502C96.2255 96.512 96.3237 96.4133 96.4613 96.4133L130.458 96.354C130.576 96.354 130.694 96.4527 130.694 96.591V99.1781C130.674 99.2966 130.576 99.4151 130.458 99.4151Z" fill="#D8DEE8"/>
<path d="M130.458 105.656L96.4613 105.932C96.3237 105.932 96.2255 105.834 96.2255 105.695V103.049C96.2255 102.911 96.3237 102.812 96.4613 102.812L130.458 102.615C130.576 102.615 130.694 102.713 130.694 102.851V105.439C130.674 105.557 130.576 105.656 130.458 105.656Z" fill="#D8DEE8"/>
<path d="M130.458 111.916L96.4613 112.351C96.3237 112.351 96.2255 112.252 96.2255 112.114V109.467C96.2255 109.329 96.3237 109.23 96.4613 109.23L130.458 108.875C130.576 108.875 130.694 108.974 130.694 109.112V111.699C130.674 111.818 130.576 111.916 130.458 111.916Z" fill="#D8DEE8"/>
<path d="M171.844 93.1942L142.328 93.1744C142.21 93.1744 142.111 93.0757 142.111 92.9374V90.37C142.111 90.2318 142.21 90.1331 142.328 90.1331L171.844 90.2121C171.962 90.2121 172.06 90.3108 172.06 90.449V92.9572C172.06 93.0954 171.982 93.1942 171.844 93.1942Z" fill="#D8DEE8"/>
<path d="M180.687 99.2177L142.328 99.356C142.21 99.356 142.111 99.2572 142.111 99.119V96.5516C142.111 96.4134 142.21 96.3146 142.328 96.3146L180.687 96.2554C180.805 96.2554 180.903 96.3541 180.903 96.4726V98.961C180.903 99.119 180.805 99.2177 180.687 99.2177Z" fill="#D8DEE8"/>
<path d="M180.687 105.261L142.328 105.577C142.21 105.577 142.111 105.478 142.111 105.34V102.773C142.111 102.634 142.21 102.536 142.328 102.536L180.687 102.299C180.805 102.299 180.903 102.397 180.903 102.516V105.004C180.903 105.162 180.805 105.261 180.687 105.261Z" fill="#D8DEE8"/>
<path d="M180.687 111.284L142.328 111.758C142.21 111.758 142.111 111.66 142.111 111.521V108.954C142.111 108.816 142.21 108.717 142.328 108.717L180.687 108.322C180.805 108.322 180.903 108.421 180.903 108.539V111.028C180.903 111.186 180.805 111.284 180.687 111.284Z" fill="#D8DEE8"/>
<path d="M160.564 20.0235L155.474 19.747C153.942 19.668 152.704 18.7793 152.075 17.4956C147.358 18.4831 142.387 17.4561 137.434 18.4436C134.015 19.2138 134.408 24.5461 130.615 24.9213C125.172 25.652 119.807 25.7113 114.482 25.7705L113.931 26.8962L163.531 29.2463L162.195 21.5047C162.038 20.6555 161.389 20.0827 160.564 20.0235Z" fill="url(#paint19_linear_0_1001)"/>
<path d="M67.7831 125.195C67.7831 125.195 58.8132 109.344 46.6568 136.311C37.1952 157.319 43.3128 180.675 65.1865 187.096C87.0603 193.517 121.228 180.555 110.508 171.425C87.7488 152.062 70.4779 134.907 67.7831 125.195Z" fill="url(#paint20_linear_0_1001)"/>
<g opacity="0.35">
<path d="M56.5117 139.441C55.8823 141.368 55.7249 146.825 56.0003 153.126C56.2364 158.744 55.7446 161.673 64.498 165.767C67.5076 167.171 69.5731 171.606 74.176 174.254C76.2611 175.458 84.1097 179.792 94.24 178.026C100.948 176.863 105.944 173.512 109.308 170.382C87.1586 151.44 70.4582 134.726 67.783 125.195C67.783 125.195 64.498 119.396 59.2263 120.781C60.5049 122.226 60.9376 126.138 56.5117 139.441Z" fill="url(#paint21_linear_0_1001)"/>
</g>
<g opacity="0.13">
<path d="M100.2 180.695C89.8535 186.514 72.5827 190.086 59.6984 180.334C47.778 171.305 46.7158 156.176 46.3224 151.561C45.6339 143.495 47.1682 136.472 49.391 130.813C48.4861 132.419 47.5813 134.225 46.6371 136.311C37.1755 157.319 43.2931 180.675 65.1668 187.096C86.7062 193.396 120.146 180.956 110.96 171.867C108.364 174.856 104.843 178.087 100.2 180.695Z" fill="url(#paint22_linear_0_1001)"/>
</g>
<path d="M83.8933 182.421C83.5786 182.421 83.2835 182.421 82.9688 182.401C74.9825 182.22 63.7702 179.511 55.7053 167.653C48.8992 157.64 49.8041 146.324 51.7711 138.599C53.8956 130.252 57.6723 124.172 57.7117 124.112C57.751 124.052 57.8494 124.032 57.9084 124.072C57.9674 124.112 57.9871 124.212 57.9477 124.272C57.9084 124.333 54.1513 130.372 52.0269 138.679C50.0795 146.344 49.1746 157.56 55.9216 167.472C63.9276 179.23 75.0415 181.919 82.9688 182.1C91.5648 182.3 98.3512 179.672 98.4102 179.652C98.4889 179.632 98.5676 179.652 98.5873 179.732C98.6069 179.812 98.5873 179.893 98.5086 179.913C98.4496 179.973 92.096 182.421 83.8933 182.421Z" fill="#FFA6A4"/>
<path d="M126.795 180.916C126.225 180.294 125.202 177.585 127.07 177.043C128.939 176.481 129.982 175.779 132.558 173.672C135.135 171.565 135.804 173.371 132.165 176.802C128.526 180.234 127.621 181.819 126.795 180.916Z" fill="url(#paint23_linear_0_1001)"/>
<path d="M124.356 176.983L125.89 178.347C126.205 178.628 126.677 178.668 127.031 178.428C127.208 178.327 127.306 178.127 127.326 177.926C127.346 177.725 127.267 177.525 127.11 177.404L124.867 175.438L124.356 176.983Z" fill="url(#paint24_linear_0_1001)"/>
<path d="M78.3855 163.82C75.671 166.248 81.3361 174.194 90.3846 171.606C101.341 168.475 115.288 169.88 124.671 177.685C125.221 177.184 126.559 176.421 125.949 175.779C117.471 167.031 109.603 161.994 103.092 160.65C93.2565 158.624 86.1161 156.918 78.3855 163.82Z" fill="url(#paint25_linear_0_1001)"/>
<g opacity="0.24">
<path d="M110.193 167.151C111.786 168.094 112.121 166.168 112.947 164.924C109.426 162.717 106.121 161.292 103.112 160.67C93.2762 158.624 86.1358 156.918 78.4052 163.82C75.6907 166.248 81.3558 174.194 90.4043 171.606C93.6696 170.683 97.2103 170.161 100.81 170.081C103.682 168.235 106.062 163.981 110.193 167.151Z" fill="#552D63"/>
</g>
<path d="M76.7922 172.107L76.2414 172.328C76.2414 172.328 72.6417 168.857 71.9926 167.974C71.2057 166.89 80.0182 164.141 82.8901 160.55C85.8997 156.778 83.5195 165.044 83.5195 165.044L76.7922 172.107Z" fill="url(#paint26_linear_0_1001)"/>
<path d="M73.5269 138.077C73.5269 138.077 76.7332 138.518 80.2345 144.859C82.8704 149.634 88.5946 153.567 88.5946 153.567L89.1847 157.319L84.4441 158.162L82.7524 157.018L78.1101 146.966L73.5269 138.077Z" fill="url(#paint27_linear_0_1001)"/>
<path d="M67.3306 137.676C67.3306 137.676 59.4427 138.659 59.2853 147.909C59.128 156.436 62.1572 159.747 69.5534 166.87C70.3009 167.593 71.5008 167.593 71.5991 167.693C72.0712 168.255 72.563 168.817 73.0548 169.418C79.6838 162.937 87.1586 160.73 87.1586 160.73C87.1586 160.73 80.2542 146.143 77.2053 141.307C74.0776 136.331 69.3567 137.174 67.3306 137.676Z" fill="url(#paint28_linear_0_1001)"/>
<g opacity="0.2">
<path d="M80.4116 159.226C77.0872 161.031 72.3663 160.831 70.6353 158.583C69.337 156.898 69.1206 156.256 67.5273 153.607C66.2487 151.46 65.6193 151.119 62.826 149.334C61.7638 148.651 60.5836 147.668 59.4033 146.203C59.3246 146.745 59.2853 147.327 59.2656 147.929C59.1083 156.457 62.1376 159.767 69.5337 166.89C70.2812 167.613 71.4811 167.613 71.5795 167.713C72.0516 168.275 72.5433 168.837 73.0351 169.439C79.6641 162.958 87.1389 160.751 87.1389 160.751C87.1389 160.751 85.998 158.463 84.4637 155.233C83.3818 157.099 82.536 158.062 80.4116 159.226Z" fill="url(#paint29_linear_0_1001)"/>
</g>
<path d="M74.9825 159.486C74.9825 159.486 76.4775 159.566 77.5397 159.125C78.6019 158.684 78.5035 158.583 79.7428 158.423C80.923 158.262 83.2638 157.56 81.9459 156.316C80.4706 154.952 77.9528 155.333 77.2249 156.236C76.5168 157.119 75.3169 157.66 75.3169 157.66L74.9825 159.486Z" fill="url(#paint30_linear_0_1001)"/>
<path d="M61.6655 142.291C61.6655 142.291 57.2986 142.812 59.8361 157.179C61.154 164.643 67.7043 163.579 75.6119 160.51C76.1431 159.366 75.4546 156.938 75.4546 156.938C75.4546 156.938 65.6389 161.071 65.3832 155.052C65.1078 148.29 64.203 141.568 61.6655 142.291Z" fill="url(#paint31_linear_0_1001)"/>
<path d="M69.16 140.725C67.2913 140.725 65.3832 139.301 65.2848 139.241C65.2455 139.221 65.2455 139.18 65.2652 139.14C65.2848 139.1 65.3242 139.1 65.3635 139.12C65.3832 139.14 67.8814 141.006 69.9075 140.485C70.4779 140.344 70.8516 140.063 71.0483 139.662C71.4221 138.88 70.9893 137.876 70.9893 137.876C70.9697 137.836 70.9893 137.796 71.0287 137.776C71.068 137.756 71.1074 137.776 71.127 137.816C71.1467 137.856 71.5795 138.88 71.186 139.722C70.9697 140.164 70.5566 140.485 69.9468 140.625C69.7107 140.705 69.4354 140.725 69.16 140.725Z" fill="#9F73F8"/>
<path d="M71.9532 167.392C71.9335 167.392 71.9139 167.392 71.8942 167.372C71.8745 167.352 71.8745 167.292 71.8942 167.271C71.9729 167.211 79.015 160.77 85.3883 159.185C85.4276 159.165 85.467 159.205 85.467 159.245C85.467 159.286 85.4473 159.326 85.4079 159.326C79.074 160.911 72.0516 167.332 71.9729 167.392C71.9729 167.392 71.9729 167.392 71.9532 167.392Z" fill="#AE87F9"/>
<path d="M64.7144 131.455C64.7144 131.455 65.9537 136.552 65.6979 137.595C65.4422 138.639 66.9175 139.762 69.4747 139.883C72.0319 140.003 69.1993 134.646 69.1993 134.646L64.7144 131.455Z" fill="url(#paint32_linear_0_1001)"/>
<path d="M72.4253 129.489C75.3366 127.222 73.9793 118.935 72.0909 118.594C71.009 118.393 70.891 121.042 67.724 123.048C65.2455 124.633 63.2785 124.332 62.5506 126.078C62.2162 126.901 62.2162 128.024 62.4916 128.927C62.649 129.389 62.9441 129.971 63.6325 131.094C64.2423 132.098 64.203 132.057 64.38 132.338C64.8324 133.041 65.7176 134.204 67.3503 135.609C67.4683 135.127 67.6453 134.525 67.9207 133.863C68.0388 133.602 68.4715 132.639 69.1206 131.817C70.3599 130.352 71.5991 130.131 72.4253 129.489Z" fill="url(#paint33_linear_0_1001)"/>
<path d="M65.2455 134.224C65.2455 134.224 66.8978 136.993 70.1828 136.793C73.1334 136.612 73.5859 129.87 71.7172 128.426C71.0877 127.944 69.8288 127.743 68.8059 128.024C68.1961 128.185 67.9994 128.446 66.9962 128.707C66.0717 128.947 65.816 128.847 65.5406 129.068C65.1865 129.369 64.9308 130.091 65.5012 132.057C64.9308 131.476 64.262 131.255 63.7899 131.476C63.7112 131.516 63.5145 131.656 63.3965 131.857C63.0031 132.659 63.6915 133.643 65.2455 134.224Z" fill="url(#paint34_linear_0_1001)"/>
<path d="M76.025 161.433C75.9464 161.453 75.8873 161.493 75.8677 161.573C75.8677 161.593 75.8873 161.954 75.8873 161.954C75.8873 162.035 75.9267 162.115 76.0054 162.135L82.7131 164.362L95.2433 159.366L89.3027 159.827L76.025 161.433Z" fill="#26264F"/>
<path d="M76.025 161.372C75.9464 161.393 75.8873 161.453 75.8677 161.533C75.8677 161.613 75.907 161.693 75.9857 161.714L82.6934 163.941L95.2236 158.945L89.2831 159.406L76.025 161.372Z" fill="#444B8C"/>
<path d="M82.3983 163.86L83.4015 150.537C83.4212 150.317 83.5786 150.156 83.7753 150.116L98.7643 147.728C98.902 147.708 99.0397 147.748 99.138 147.849C99.2364 147.949 99.2954 148.069 99.2954 148.21L98.725 160.63C98.725 160.851 98.5676 161.031 98.3512 161.071L82.7721 164.021L82.3983 163.86Z" fill="url(#paint35_linear_0_1001)"/>
<path d="M82.7131 164.362L83.7359 150.738C83.7556 150.517 83.913 150.357 84.1097 150.317L99.0987 147.929C99.2364 147.909 99.3741 147.949 99.4725 148.049C99.5708 148.15 99.6298 148.27 99.6298 148.41L99.0594 160.831C99.0594 161.051 98.902 161.232 98.6856 161.272L82.7131 164.362Z" fill="#26264F"/>
<path d="M82.7131 164.362L98.7053 161.252C98.902 161.212 99.0594 161.031 99.0791 160.811L99.2561 157.058C94.4958 159.827 88.5159 160.168 82.9491 161.272L82.7131 164.362Z" fill="#1F1F44"/>
<path d="M109.819 161.553C109.603 160.77 109.111 159.928 110.842 159.306C112.101 158.844 114.265 158.704 116.252 158.603C119.025 158.463 119.655 160.148 115.602 161.232C112.947 161.934 110.134 162.657 109.819 161.553Z" fill="url(#paint36_linear_0_1001)"/>
<path d="M111.983 160.369C112.003 160.811 111.747 161.152 111.393 161.192C110.567 161.312 110.724 160.871 110.704 160.45C110.685 160.008 110.35 159.707 111.294 159.627C111.629 159.607 111.944 159.948 111.983 160.369Z" fill="url(#paint37_linear_0_1001)"/>
<path d="M103.564 157.881L104.37 157.761C104.37 157.761 105.944 157.901 110.291 159.125C111.216 159.286 112.494 162.055 109.76 162.155C107.026 162.255 103.721 164.342 103.721 164.342L103.564 157.881Z" fill="url(#paint38_linear_0_1001)"/>
<path d="M75.2579 170.763C75.2579 170.763 75.6513 174.355 83.8539 174.034C92.0369 173.712 106.672 165.024 106.593 160.49C106.495 155.935 101.046 157.761 95.4203 160.389C90.66 162.617 83.3032 163.901 81.8082 164.141C79.8608 164.422 74.8054 169.037 75.2579 170.763Z" fill="url(#paint39_linear_0_1001)"/>
<g opacity="0.2">
<path d="M85.9784 166.268C89.7748 165.867 90.6206 163.098 95.3416 162.295C98.3906 161.774 99.4724 162.697 101.046 161.633C102.285 160.791 102.895 159.326 103.21 157.741C101.125 157.921 98.2922 159.045 95.4203 160.389C90.7977 162.536 83.7359 163.82 81.9459 164.101C81.8869 164.101 80.7066 163.68 80.7066 163.68C80.7066 163.68 79.8215 164.202 79.1723 164.603C81.6508 165.967 84.6014 166.409 85.9784 166.268Z" fill="url(#paint40_linear_0_1001)"/>
</g>
<path d="M140.726 200.067C140.018 201.887 140.863 204.183 142.023 205.568C145.052 209.15 151.934 208.616 163.654 205.568C180.152 201.294 184.203 197.771 194.409 194.823C200.308 193.121 210.238 192.903 230.119 192.468C257.845 191.854 262.25 193.477 271.296 189.064C279.181 185.225 280.479 181.722 288.757 179.882C296.525 178.16 301.284 179.921 309.857 176.201C312.295 175.152 318.647 172.401 318.45 169.116C318.313 166.563 314.282 164.624 311.411 163.872C305.452 162.309 301.5 165.178 292.907 168.067C284.726 170.818 285.238 169.255 272.318 172.52C261.07 175.37 259.89 176.755 251.474 179.07C241.209 181.9 240.384 180.535 213.424 183.8C199.482 185.482 192.383 186.373 186.838 187.995C176.691 190.983 175.059 193.22 166.781 194.031C164.794 194.229 158.404 194.724 149.85 196.129C145.111 196.92 141.669 197.633 140.726 200.067Z" fill="#D8DEE8"/>
<path d="M174.745 122.671C173.86 121.325 169.14 124.907 164.342 122.888C161.904 121.879 160.35 119.801 159.348 117.921C158.148 118.673 158.128 118.594 156.909 119.346C157.125 120.415 158.109 124.392 161.806 127.004C162.749 127.677 166.446 129.993 170.123 132.427C173.978 134.96 175.59 123.957 174.745 122.671Z" fill="url(#paint41_linear_0_1001)"/>
<path d="M281.619 118.792C280.872 117.347 275.818 120.415 271.237 117.921C268.916 116.655 267.579 114.438 266.773 112.439C265.495 113.053 265.475 112.994 264.197 113.607C264.315 114.695 264.865 118.732 268.267 121.74C269.133 122.512 271.925 124.412 275.602 126.826C279.496 129.379 282.327 120.157 281.619 118.792Z" fill="url(#paint42_linear_0_1001)"/>
<path d="M279.948 116.476L156.575 124.452C152.013 124.61 148.218 121.305 148.218 117.11V65.4199C148.218 61.2246 151.993 57.9593 156.575 58.177L279.692 63.6983C282.976 63.8368 285.651 66.8448 285.651 70.3475V113.587C285.651 117.09 283.251 116.358 279.948 116.476Z" fill="url(#paint43_linear_0_1001)"/>
<path d="M252.752 114.755L252.811 133.001L254.66 133.713L267.736 114.953L252.752 114.755Z" fill="url(#paint44_linear_0_1001)"/>
<path d="M281.6 120.177L158.482 124.471C153.92 124.63 150.125 121.325 150.125 117.11V65.2617C150.125 61.0466 153.901 57.7814 158.482 57.9792L281.6 63.5203C284.884 63.6588 287.558 66.6668 287.558 70.1893V113.548C287.558 117.09 284.884 120.058 281.6 120.177Z" fill="url(#paint45_linear_0_1001)"/>
<path d="M187.743 70.5456L183.731 82.7358L181.293 82.6962L178.599 74.543C178.559 74.4243 178.52 74.3055 178.481 74.167C178.441 74.0285 178.402 73.89 178.363 73.7317C178.323 73.89 178.284 74.0285 178.245 74.167C178.205 74.3055 178.166 74.4243 178.127 74.543L175.393 82.5973L172.896 82.5577L168.747 69.9717L171.087 70.0508C171.323 70.0508 171.52 70.1102 171.697 70.2289C171.854 70.3279 171.972 70.4862 172.011 70.6445L174.076 77.7291C174.115 77.927 174.174 78.1447 174.233 78.3624C174.292 78.58 174.332 78.8373 174.391 79.0748C174.45 78.8175 174.509 78.58 174.568 78.3624C174.627 78.1447 174.705 77.927 174.764 77.7489L177.163 70.8028C177.203 70.6643 177.321 70.5258 177.478 70.4268C177.635 70.3081 177.832 70.2685 178.068 70.2685L178.874 70.2883C179.11 70.2883 179.307 70.3477 179.444 70.4664C179.602 70.5851 179.7 70.7237 179.779 70.882L182.138 77.9072C182.217 78.0853 182.276 78.2832 182.335 78.5009C182.394 78.7186 182.453 78.9362 182.512 79.1737C182.551 78.9362 182.61 78.7186 182.65 78.5009C182.689 78.2832 182.748 78.0853 182.787 77.9072L184.813 71.0205C184.852 70.882 184.95 70.7435 185.108 70.6445C185.265 70.5456 185.462 70.4862 185.698 70.4862L187.743 70.5456Z" fill="white"/>
<path d="M193.622 72.7026V75.8293L197.85 75.9283V77.8281L193.622 77.7291V80.935L199.03 81.0339V82.9931L190.968 82.8546V70.6445L199.03 70.882V72.8411L193.622 72.7026Z" fill="white"/>
<path fill-rule="evenodd" clip-rule="evenodd" d="M216.57 83.2702L218.497 83.3098L213.837 71.3372L211.261 71.2581L206.463 83.1119L208.449 83.1514C208.665 83.1514 208.842 83.1119 208.98 82.9931C209.118 82.8744 209.216 82.7557 209.275 82.6171L210.101 80.3414L214.938 80.4403L215.744 82.7161C215.803 82.8744 215.902 83.0129 216.039 83.1119C216.177 83.2108 216.354 83.2702 216.57 83.2702ZM212.991 75.0576L214.309 78.7186L210.651 78.6593L211.969 75.0576C211.988 75.0096 212.008 74.9604 212.029 74.9098C212.094 74.7517 212.165 74.5796 212.224 74.3848C212.323 74.1275 212.401 73.8307 212.48 73.5338C212.536 73.7582 212.601 73.9626 212.663 74.1543C212.688 74.2331 212.713 74.3098 212.736 74.3848C212.775 74.4863 212.81 74.5816 212.844 74.6719C212.896 74.8107 212.944 74.9378 212.991 75.0576Z" fill="white"/>
<path fill-rule="evenodd" clip-rule="evenodd" d="M228.447 83.4681L230.63 83.5077L227.936 79.2332L227.936 79.2332C227.818 79.0749 227.7 78.9166 227.563 78.7978C227.425 78.6791 227.287 78.5801 227.13 78.4812C227.523 78.3427 227.858 78.1844 228.172 77.9667C228.467 77.7688 228.723 77.5115 228.939 77.2345C229.136 76.9574 229.293 76.6408 229.411 76.3044C229.509 75.968 229.568 75.6117 229.568 75.216C229.568 74.7014 229.49 74.2463 229.313 73.8307C229.155 73.4151 228.88 73.0589 228.506 72.7423C228.133 72.4257 227.661 72.1684 227.071 71.9903C226.501 71.8122 225.793 71.6935 224.967 71.6737L221.231 71.5549V83.3494L223.689 83.389V78.9166L224.515 78.9364C224.731 78.9364 224.888 78.9759 225.006 79.0353C225.124 79.1145 225.223 79.2134 225.321 79.3519L227.563 82.9932C227.74 83.3098 228.034 83.4681 228.447 83.4681ZM225.97 77.1157C225.675 77.1949 225.34 77.2345 224.947 77.2345L223.708 77.1949V73.4745L224.987 73.5141C225.734 73.5339 226.304 73.712 226.678 74.0286C227.051 74.3452 227.228 74.7806 227.228 75.3347C227.228 75.6117 227.169 75.869 227.091 76.1065C226.992 76.344 226.855 76.5418 226.678 76.7199C226.501 76.8981 226.265 77.0168 225.97 77.1157Z" fill="white"/>
<path d="M235.762 73.8703V76.8387L239.577 76.9376V78.7384L235.762 78.6593V81.7068L240.659 81.8058V83.666L233.363 83.5472V71.9309L240.659 72.1486V74.0088L235.762 73.8703Z" fill="white"/>
<g opacity="0.82">
<path d="M188.018 89.8006V110.085L183.023 110.184V101.555L174.174 101.635V110.342L169.003 110.441V89.7017L174.174 89.7214V98.3298L183.023 98.2902V89.7808L188.018 89.8006Z" fill="#26264F"/>
<path d="M199.875 109.867L195.018 109.966V89.8401L199.875 89.8599V109.867Z" fill="#26264F"/>
<path fill-rule="evenodd" clip-rule="evenodd" d="M218.91 109.531L223.059 109.452L218.851 102.723C218.635 102.407 218.399 102.129 218.143 101.912C217.888 101.694 217.593 101.516 217.298 101.358C217.947 101.1 218.517 100.784 219.009 100.408C219.5 100.032 219.913 99.5964 220.247 99.1215C220.582 98.6465 220.837 98.1122 221.014 97.5581C221.191 96.9842 221.27 96.3906 221.27 95.7573C221.27 94.9261 221.132 94.1742 220.837 93.4617C220.542 92.7493 220.07 92.1359 219.441 91.6213C218.812 91.1068 217.986 90.6912 216.964 90.3944C215.941 90.0976 214.722 89.9392 213.267 89.9392L206.679 89.8997V109.748L211.379 109.669V102.367L212.559 102.347C212.913 102.347 213.188 102.387 213.385 102.505C213.581 102.624 213.758 102.802 213.916 103.04L217.239 108.7C217.593 109.273 218.143 109.55 218.91 109.531ZM214.879 98.9434C214.447 99.1017 213.896 99.1809 213.267 99.1809L211.359 99.2204V93.3628H213.247C214.447 93.3628 215.331 93.6003 215.902 94.095C216.492 94.5699 216.767 95.2428 216.767 96.1135C216.767 96.5489 216.688 96.9447 216.57 97.3207C216.452 97.6769 216.236 98.0133 215.961 98.2903C215.685 98.5674 215.331 98.7851 214.879 98.9434Z" fill="#26264F"/>
<path d="M231.889 109.273L227.386 109.353V89.9788L231.889 89.9985V109.273Z" fill="#26264F"/>
<path d="M254.404 90.137V108.878L252.202 108.917C251.867 108.917 251.592 108.878 251.376 108.779C251.16 108.68 250.924 108.502 250.707 108.224L241.957 97.0237C241.996 97.3601 242.016 97.6965 242.035 98.0132C242.055 98.3298 242.055 98.6266 242.055 98.9037V109.095L238.201 109.174V90.0579L240.502 90.0777C240.698 90.0777 240.856 90.0974 240.974 90.0974C241.111 90.1172 241.209 90.1568 241.327 90.1964C241.426 90.236 241.524 90.3151 241.622 90.3943C241.721 90.4734 241.819 90.5922 241.937 90.7505L250.766 102.09C250.727 101.734 250.688 101.377 250.688 101.041C250.668 100.705 250.668 100.388 250.668 100.071V90.1172L254.404 90.137Z" fill="#26264F"/>
<path d="M268.877 99.062L275.071 99.0224V106.72C274.186 107.413 273.242 107.928 272.24 108.264C271.237 108.6 270.175 108.759 269.074 108.779C267.618 108.798 266.301 108.6 265.121 108.145C263.922 107.69 262.899 107.037 262.034 106.206C261.169 105.375 260.52 104.385 260.048 103.218C259.576 102.07 259.34 100.803 259.34 99.438C259.34 98.0527 259.556 96.7664 260.008 95.6186C260.461 94.4511 261.09 93.4616 261.896 92.6107C262.722 91.7795 263.705 91.1265 264.865 90.6713C266.026 90.2161 267.304 89.9787 268.72 89.9985C269.447 89.9985 270.135 90.0776 270.765 90.1964C271.394 90.3349 271.984 90.4932 272.535 90.7109C273.065 90.9286 273.557 91.1858 274.009 91.5024C274.462 91.7993 274.855 92.1357 275.189 92.4919L274.029 94.3521C273.852 94.649 273.616 94.8271 273.321 94.8864C273.026 94.9458 272.711 94.8864 272.377 94.6687C272.063 94.4708 271.768 94.2927 271.473 94.1542C271.197 94.0157 270.902 93.897 270.607 93.798C270.312 93.6991 269.998 93.6397 269.664 93.6001C269.329 93.5605 268.975 93.5407 268.562 93.5407C267.795 93.5407 267.107 93.6793 266.498 93.9563C265.888 94.2334 265.357 94.6292 264.924 95.1635C264.492 95.678 264.158 96.3113 263.922 97.0237C263.686 97.7559 263.568 98.5475 263.568 99.438C263.568 100.427 263.705 101.298 263.961 102.05C264.217 102.802 264.59 103.455 265.062 103.97C265.534 104.484 266.104 104.88 266.753 105.137C267.402 105.395 268.13 105.533 268.936 105.513C269.428 105.513 269.86 105.454 270.273 105.335C270.666 105.236 271.06 105.098 271.433 104.92V102.129L269.703 102.149C269.447 102.149 269.251 102.09 269.093 101.931C268.956 101.793 268.877 101.615 268.877 101.397V99.062Z" fill="#26264F"/>
</g>
<path d="M254.66 114.577V133.713L269.644 114.775L254.66 114.577Z" fill="url(#paint46_linear_0_1001)"/>
<path d="M267.795 180.713C267.52 182.355 267.225 183.998 266.95 185.66C267.068 185.838 267.382 186.234 267.874 186.293C268.425 186.353 268.857 185.957 269.015 185.779C269.152 183.503 269.546 181.88 269.978 180.713H267.795V180.713Z" fill="url(#paint47_linear_0_1001)"/>
<path d="M275.366 138.384C273.105 143.173 271.925 150.119 270.332 158.015C268.897 165.099 268.169 176.26 267.677 181.188C268.13 181.505 269.801 182.534 269.978 181.881C276.192 158.925 279.791 151.999 281.108 150.613C281.914 149.762 283.822 147.962 283.959 145.409C283.959 145.29 283.959 145.191 283.959 145.092C283.684 141.589 276.959 138.957 275.366 138.384Z" fill="url(#paint48_linear_0_1001)"/>
<path d="M277.431 139.215C276.546 138.819 275.779 138.522 275.366 138.384C273.105 143.173 271.925 150.119 270.332 158.015C268.897 165.099 268.169 176.26 267.677 181.188C267.776 181.267 267.953 181.366 268.149 181.485C271.001 170.996 270.332 160.231 276.644 150.396C278.906 146.893 278.335 143.093 277.431 139.215Z" fill="url(#paint49_linear_0_1001)"/>
<path d="M302.385 168.78C302.817 168.602 303.368 168.621 303.722 169.037C304.43 169.868 303.584 171.61 303.23 172.362C302.817 173.232 302.011 175.607 300.851 175.112C300.34 174.895 300.733 173.331 300.989 172.856C301.323 172.263 301.402 171.59 301.46 170.877C301.48 170.6 301.578 170.224 301.696 169.947C301.834 169.532 301.932 168.958 302.385 168.78Z" fill="url(#paint50_linear_0_1001)"/>
<path d="M302.719 170.521C302.345 171.194 301.028 170.185 300.359 169.908C299.691 169.631 299.592 169.888 299.887 169.334C300.182 168.78 300.576 168.265 301.303 168.582C302.031 168.899 303.112 169.848 302.719 170.521Z" fill="url(#paint51_linear_0_1001)"/>
<path d="M278.119 145.508C278.08 145.567 277.863 145.488 277.922 145.903C278.296 148.773 287.224 166.069 288.816 166.563C288.993 166.623 298.078 169.413 300.753 170.719C302.07 169.571 301.362 168.542 301.008 168.087C300.025 167.375 291.55 162.546 290.979 162.467C290.114 159.439 290.567 145.389 286.634 143.964C285.867 143.687 279.397 143.43 278.119 145.508Z" fill="url(#paint52_linear_0_1001)"/>
<path d="M275.15 120.039C274.265 120.85 273.852 121.642 273.301 122.671C272.436 124.313 271.945 125.263 271.827 126.49C271.61 128.865 272.928 130.784 273.577 131.596C274.501 137.038 274.717 138.304 274.717 138.324V138.364C274.58 138.957 274.344 139.887 273.891 140.956C272.711 143.766 271.512 144.162 271.65 145.27C271.905 147.19 275.897 148.496 279.063 148.575C280.734 148.614 280.931 148.278 282.367 148.219C288.384 147.961 290.409 153.582 294.44 152.75C297.311 152.157 297.764 148.971 301.402 148.812C302.68 148.753 304.037 149.089 304.213 148.614C304.39 148.159 303.329 147.269 302.404 146.754C300.418 145.626 298.393 145.923 297.508 145.943C293.575 146.042 290.193 141.49 288.148 138.759C282.406 131.041 283.841 121.543 284.176 119.564C283.684 119.207 281.875 118 277.49 118.574C277.136 118.733 276.133 119.128 275.15 120.039Z" fill="url(#paint53_linear_0_1001)"/>
<path d="M290.095 146.121C286.476 143.469 281.226 144.142 278.945 141.174C277.057 139.096 275.7 136.563 274.029 134.346C274.56 137.493 274.698 138.324 274.698 138.344V138.383C274.56 138.977 274.324 139.907 273.872 140.976C272.692 143.786 271.492 144.182 271.63 145.29C271.886 147.21 275.877 148.516 279.043 148.595C280.715 148.634 280.911 148.298 282.347 148.239C288.364 147.981 290.39 153.601 294.421 152.77C297.292 152.177 297.744 148.991 301.382 148.832C302.66 148.773 304.017 149.109 304.194 148.634C304.371 148.179 303.309 147.289 302.385 146.774C301.402 146.22 300.438 146.022 299.573 145.943C296.387 147.665 293.241 148.595 290.095 146.121Z" fill="url(#paint54_linear_0_1001)"/>
<path d="M282.681 141.649C282.681 141.649 280.498 143.232 280.263 144.439C280.027 145.646 282.249 146.932 282.937 145.725C283.625 144.518 284.077 142.143 284.077 142.143L282.681 141.649Z" fill="url(#paint55_linear_0_1001)"/>
<path d="M282.288 120.355C282.288 120.355 283.114 119.287 284.195 119.584C286.398 120.177 288.561 122.156 288.679 132.506C288.718 135.415 284.038 143.093 284.038 143.093L281.875 141.866C281.875 141.866 286.26 135.811 285.041 131.259C283.802 126.708 278.807 123.502 282.288 120.355Z" fill="url(#paint56_linear_0_1001)"/>
<path d="M272.711 110.698C272.417 110.659 271.925 110.56 271.433 110.243C270.489 109.649 270.175 108.699 270.057 108.383C269.801 107.591 269.88 106.938 270.017 105.949C270.135 105.098 270.194 104.682 270.489 104.267C270.981 103.594 271.414 103.811 272.22 103.139C273.301 102.248 273.065 101.437 273.872 101.179C274.442 101.001 274.599 101.377 275.799 101.318C276.566 101.278 276.566 101.12 277.175 101.12C278.04 101.12 278.257 101.437 279.456 101.773C281.029 102.228 281.324 101.872 281.737 102.307C282.406 103.02 281.718 104.069 282.445 104.801C282.937 105.276 283.389 104.939 283.881 105.454C284.372 105.969 284.038 106.424 284.471 107.67C284.844 108.779 285.238 108.818 285.257 109.531C285.257 109.926 285.139 109.986 284.569 111.371C283.979 112.796 284.077 112.816 283.822 113.132C283.251 113.845 282.878 113.627 281.973 114.438C281.088 115.23 281.128 115.725 280.577 115.824C279.968 115.923 279.791 115.309 278.886 115.23C278.08 115.151 277.844 115.586 277.313 115.428C276.644 115.21 276.487 114.3 276.212 113.667C275.858 112.736 274.973 111.608 272.711 110.698Z" fill="#26264F"/>
<path d="M278.355 112.202C277.726 114.023 277.746 115.744 278.847 117.07C279.81 118.238 281.206 118.099 281.246 118.634C281.324 119.722 275.052 121.285 274.698 120.474C274.521 120.078 276.507 119.465 276.644 118.099C276.703 117.525 276.507 117.11 275.327 114.913L274.816 115.012L278.355 112.202Z" fill="url(#paint57_linear_0_1001)"/>
<path d="M277.549 113.607C277.549 113.607 277.372 115.824 275.189 115.863C272.515 115.923 272.102 108.798 272.751 108.383C273.498 107.908 274.186 109.036 275.936 108.62C276.684 108.442 277.293 107.473 277.687 108.502C278.139 109.669 277.804 111.747 277.804 111.747C277.804 111.747 278.434 111.213 278.532 111.846C278.67 112.677 278.06 113.211 277.549 113.607Z" fill="url(#paint58_linear_0_1001)"/>
<path d="M263.764 184.097C263.941 183.82 265.18 183.859 265.829 184.156C266.911 184.651 267.599 185.64 267.894 185.759C268.523 186.036 269.093 185.72 269.133 185.72C269.133 185.72 269.605 186.511 268.897 186.966C268.189 187.421 262.722 185.818 263.764 184.097Z" fill="#444B8C"/>
<path d="M161.747 194.941C161.412 196.881 161.078 198.8 160.763 200.74C160.921 200.957 161.275 201.413 161.845 201.472C162.474 201.531 162.985 201.076 163.182 200.878C163.339 198.207 163.792 196.307 164.323 194.941H161.747V194.941Z" fill="url(#paint59_linear_0_1001)"/>
<path d="M170.635 145.29C167.98 150.91 166.604 159.063 164.735 168.325C163.044 176.636 161.058 189.281 160.468 195.08C160.999 195.456 164.912 196.98 165.109 196.208C172.385 169.294 176.259 158.865 177.812 157.243C178.756 156.253 180.545 156.53 180.722 153.562C180.722 153.423 180.722 153.304 180.722 153.186C180.388 149.05 172.503 145.982 170.635 145.29Z" fill="url(#paint60_linear_0_1001)"/>
<path d="M201.272 180.95C201.783 180.733 202.432 180.752 202.845 181.247C203.671 182.217 202.687 184.255 202.255 185.146C201.763 186.155 200.839 188.945 199.462 188.371C198.853 188.114 199.325 186.274 199.639 185.72C200.033 185.027 200.111 184.216 200.19 183.404C200.21 183.068 200.328 182.632 200.465 182.316C200.642 181.821 200.741 181.168 201.272 180.95Z" fill="url(#paint61_linear_0_1001)"/>
<path d="M201.665 182.989C201.213 183.78 199.679 182.593 198.892 182.276C198.106 181.96 197.988 182.256 198.342 181.603C198.696 180.95 199.148 180.337 199.993 180.713C200.878 181.109 202.117 182.197 201.665 182.989Z" fill="url(#paint62_linear_0_1001)"/>
<path d="M172.817 153.661C172.778 153.74 174.017 153.601 174.076 154.096C174.509 157.46 182.728 178.338 184.616 178.892C184.832 178.952 196.238 182.118 199.384 183.661C200.918 182.316 200.446 179.763 200.033 179.248C198.892 178.417 189.316 172.955 188.647 172.876C187.625 169.334 187.448 153.542 182.827 151.86C181.902 151.524 174.312 151.207 172.817 153.661Z" fill="url(#paint63_linear_0_1001)"/>
<path d="M186.582 152.335C185.147 133.317 180.585 125.54 180.978 123.225C180.408 122.809 178.127 122.156 172.975 122.829C172.542 122.987 171.362 123.462 170.202 124.531C170.202 124.531 169.927 124.788 169.553 125.223C173.171 125.916 176.849 127.974 178.186 130.923C180.487 136.543 176.219 142.816 178.186 147.763C179.228 150.376 180.88 152.671 182.846 154.828C185.127 154.274 186.661 153.443 186.582 152.335Z" fill="url(#paint64_linear_0_1001)"/>
<path d="M170.202 124.551C170.202 124.551 168.826 125.797 168.039 127.658C166.84 130.428 168.137 132.823 168.511 137.354C168.944 142.322 168.334 150.613 166.938 153.582C166.918 153.641 166.859 153.78 166.879 153.978C167.253 156.847 186.858 156.194 186.563 152.375C185.127 133.357 180.565 125.58 180.958 123.264C180.388 122.849 178.107 122.196 172.955 122.869C172.542 123.007 171.382 123.482 170.202 124.551Z" fill="url(#paint65_linear_0_1001)"/>
<path d="M173.466 150.356H168.747C167.213 155.382 166.112 161.557 164.735 168.325C163.044 176.636 161.058 189.282 160.468 195.08C160.626 195.179 161.058 195.396 161.589 195.594C163.123 191.181 165.424 186.966 167.036 182.454C168.668 177.171 165.719 170.897 168.019 165.614C169.829 160.587 172.582 155.58 173.466 150.356Z" fill="url(#paint66_linear_0_1001)"/>
<path d="M174.253 147.11C171.992 147.11 170.005 145.626 168.59 143.588C168.413 147.585 167.842 151.662 166.958 153.562C166.938 153.621 166.879 153.76 166.899 153.958C167.272 156.827 186.877 156.174 186.582 152.355C186.504 151.306 186.405 150.296 186.327 149.327C182.571 147.605 178.225 146.853 174.253 147.11Z" fill="url(#paint67_linear_0_1001)"/>
<path d="M184.105 148.951C183.22 150.02 181.883 151.148 181.843 152.652C181.804 154.156 184.341 155.105 185.029 153.661C185.717 152.216 185.619 150.732 185.855 149.228C185.265 149.149 184.714 149.05 184.105 148.951Z" fill="url(#paint68_linear_0_1001)"/>
<path d="M177.576 124.669C178.048 123.759 178.304 122.631 180.703 123.086C185.658 124.056 188.116 130.982 189.04 137.216C189.296 138.957 187.821 147.823 185.914 150.237C185.029 150.178 184.065 149.624 183.2 149.327C185.029 145.29 186.543 140.461 184.4 136.305C182.276 132.17 174.941 129.854 177.576 124.669Z" fill="url(#paint69_linear_0_1001)"/>
<path d="M156.26 198.563C156.477 198.187 158.148 198.246 159.013 198.642C160.468 199.315 161.393 200.621 161.766 200.779C162.612 201.155 163.359 200.72 163.438 200.74C163.438 200.74 164.067 201.808 163.123 202.422C162.199 203.035 154.884 200.858 156.26 198.563Z" fill="#444B8C"/>
<path d="M176.514 116.299C176.514 116.299 176.318 121.345 176.75 122.275C177.183 123.205 176.003 124.571 173.584 125.184C171.166 125.797 172.837 120.197 172.837 120.197L176.514 116.299Z" fill="url(#paint70_linear_0_1001)"/>
<path d="M168.727 115.21C167.587 114.221 167.115 112.163 167.862 110.619C168.511 109.313 169.848 108.858 170.674 108.581C173.014 107.789 176.259 108.165 177.773 110.164C178.677 111.351 177.891 114.379 177.792 114.913C177.675 115.527 177.281 115.804 176.967 116.318C176.534 117.011 175.846 118.139 174.764 119.979C174.568 119.544 174.273 119.01 173.879 118.456C173.722 118.238 173.112 117.407 172.346 116.773C170.713 115.507 169.809 116.16 168.727 115.21Z" fill="url(#paint71_linear_0_1001)"/>
<path d="M176.475 118.238C176.475 118.238 175.433 121.186 172.247 121.642C169.396 122.057 167.665 115.784 169.18 114.062C169.691 113.488 170.851 113.053 171.874 113.112C172.483 113.152 172.739 113.35 173.722 113.409C174.646 113.449 174.863 113.31 175.177 113.469C175.57 113.686 175.944 114.32 175.787 116.279C176.2 115.626 176.809 115.269 177.321 115.388C177.399 115.408 177.616 115.507 177.773 115.685C178.343 116.318 177.871 117.387 176.475 118.238Z" fill="url(#paint72_linear_0_1001)"/>
<path d="M175.256 113.053C175.138 113.191 175.669 113.607 175.846 114.319C176.2 115.705 175.138 117.684 173.742 118.139C172.916 118.396 172.562 117.941 171.126 118.079C170.241 118.178 169.534 118.436 169.101 118.634C168.983 120.256 169.711 121.701 170.89 122.196C172.149 122.73 173.447 121.958 173.997 121.642C174.371 121.424 175.531 120.751 175.944 119.445C176.377 118.099 175.551 117.506 176.16 116.516C176.475 116.021 176.947 115.725 177.301 114.834C177.399 114.597 177.439 114.379 177.478 114.24C176.573 113.627 175.413 112.875 175.256 113.053Z" fill="url(#paint73_linear_0_1001)"/>
<path d="M170.241 118.99C170.241 118.99 170.91 119.188 171.952 118.891C172.011 118.871 172.07 118.871 172.07 118.911C172.11 119.01 171.539 119.603 170.871 119.544C170.399 119.504 169.966 119.168 170.005 119.049C170.025 119.01 170.143 118.99 170.241 118.99Z" fill="url(#paint74_linear_0_1001)"/>
<defs>
<linearGradient id="paint0_linear_0_1001" x1="113.176" y1="107.189" x2="60.5663" y2="109.43" gradientUnits="userSpaceOnUse">
<stop stop-color="#AA80F9"/>
<stop offset="0.9964" stop-color="#6165D7"/>
</linearGradient>
<linearGradient id="paint1_linear_0_1001" x1="32.3478" y1="124.056" x2="32.3764" y2="136.204" gradientUnits="userSpaceOnUse">
<stop offset="0.00359712" stop-color="#E38DDD"/>
<stop offset="1" stop-color="#9571F6"/>
</linearGradient>
<linearGradient id="paint2_linear_0_1001" x1="98.1535" y1="40.6659" x2="28.0161" y2="20.4618" gradientUnits="userSpaceOnUse">
<stop stop-color="#AA80F9"/>
<stop offset="0.9964" stop-color="#6165D7"/>
</linearGradient>
<linearGradient id="paint3_linear_0_1001" x1="27.9952" y1="99.0223" x2="67.3531" y2="145.23" gradientUnits="userSpaceOnUse">
<stop offset="0.00359712" stop-color="#E38DDD"/>
<stop offset="1" stop-color="#9571F6"/>
</linearGradient>
<linearGradient id="paint4_linear_0_1001" x1="202.729" y1="-92.4549" x2="-25.7211" y2="18.1676" gradientUnits="userSpaceOnUse">
<stop stop-color="#FFC444"/>
<stop offset="0.9964" stop-color="#F36F56"/>
</linearGradient>
<linearGradient id="paint5_linear_0_1001" x1="176.031" y1="9.15163" x2="121.707" y2="109.242" gradientUnits="userSpaceOnUse">
<stop stop-color="#AA80F9"/>
<stop offset="0.9964" stop-color="#6165D7"/>
</linearGradient>
<linearGradient id="paint6_linear_0_1001" x1="-123.259" y1="-16.6147" x2="179.854" y2="283.343" gradientUnits="userSpaceOnUse">
<stop stop-color="#FFC444"/>
<stop offset="0.9964" stop-color="#F36F56"/>
</linearGradient>
<linearGradient id="paint7_linear_0_1001" x1="-43.9869" y1="146.918" x2="259.076" y2="446.984" gradientUnits="userSpaceOnUse">
<stop stop-color="#FFC444"/>
<stop offset="0.9964" stop-color="#F36F56"/>
</linearGradient>
<linearGradient id="paint8_linear_0_1001" x1="72.4576" y1="2.87173" x2="88.2665" y2="68.4665" gradientUnits="userSpaceOnUse">
<stop stop-color="#FFC444"/>
<stop offset="0.9964" stop-color="#F36F56"/>
</linearGradient>
<linearGradient id="paint9_linear_0_1001" x1="89.1297" y1="6.99894" x2="96.8258" y2="51.9045" gradientUnits="userSpaceOnUse">
<stop stop-color="#AA80F9"/>
<stop offset="0.9964" stop-color="#6165D7"/>
</linearGradient>
<linearGradient id="paint10_linear_0_1001" x1="152.862" y1="114.282" x2="130.655" y2="82.3735" gradientUnits="userSpaceOnUse">
<stop stop-color="#AA80F9"/>
<stop offset="0.9964" stop-color="#6165D7"/>
</linearGradient>
<linearGradient id="paint11_linear_0_1001" x1="143.791" y1="103.17" x2="142.535" y2="76.1839" gradientUnits="userSpaceOnUse">
<stop stop-color="#AA80F9"/>
<stop offset="0.9964" stop-color="#6165D7"/>
</linearGradient>
<linearGradient id="paint12_linear_0_1001" x1="119.901" y1="103.892" x2="114.775" y2="76.932" gradientUnits="userSpaceOnUse">
<stop stop-color="#AA80F9"/>
<stop offset="0.9964" stop-color="#6165D7"/>
</linearGradient>
<linearGradient id="paint13_linear_0_1001" x1="121.137" y1="104.755" x2="114.664" y2="76.8021" gradientUnits="userSpaceOnUse">
<stop offset="0.2828" stop-color="#AA80F9"/>
<stop offset="0.9964" stop-color="#6165D7"/>
</linearGradient>
<linearGradient id="paint14_linear_0_1001" x1="116.567" y1="77.0117" x2="122.243" y2="61.4435" gradientUnits="userSpaceOnUse">
<stop stop-color="#FFC444"/>
<stop offset="0.9964" stop-color="#F36F56"/>
</linearGradient>
<linearGradient id="paint15_linear_0_1001" x1="117.555" y1="73.0891" x2="123.785" y2="55.2599" gradientUnits="userSpaceOnUse">
<stop stop-color="#311944"/>
<stop offset="1" stop-color="#6B3976"/>
</linearGradient>
<linearGradient id="paint16_linear_0_1001" x1="96.5281" y1="60.5106" x2="98.9322" y2="93.3157" gradientUnits="userSpaceOnUse">
<stop stop-color="#FFC444"/>
<stop offset="0.9964" stop-color="#F36F56"/>
</linearGradient>
<linearGradient id="paint17_linear_0_1001" x1="110.239" y1="80.0346" x2="120.953" y2="76.8733" gradientUnits="userSpaceOnUse">
<stop stop-color="#311944"/>
<stop offset="1" stop-color="#6B3976"/>
</linearGradient>
<linearGradient id="paint18_linear_0_1001" x1="127.376" y1="70.1792" x2="128.341" y2="52.3835" gradientUnits="userSpaceOnUse">
<stop stop-color="#311944"/>
<stop offset="1" stop-color="#6B3976"/>
</linearGradient>
<linearGradient id="paint19_linear_0_1001" x1="272.334" y1="63.9466" x2="272.213" y2="1.22199" gradientUnits="userSpaceOnUse">
<stop stop-color="#AA80F9"/>
<stop offset="0.9964" stop-color="#6165D7"/>
</linearGradient>
<linearGradient id="paint20_linear_0_1001" x1="-0.205156" y1="155.806" x2="50.6468" y2="272.994" gradientUnits="userSpaceOnUse">
<stop stop-color="#FF9085"/>
<stop offset="1" stop-color="#FB6FBB"/>
</linearGradient>
<linearGradient id="paint21_linear_0_1001" x1="12.014" y1="155.833" x2="72.4567" y2="268.113" gradientUnits="userSpaceOnUse">
<stop stop-color="#FF9085"/>
<stop offset="1" stop-color="#FB6FBB"/>
</linearGradient>
<linearGradient id="paint22_linear_0_1001" x1="-10.7652" y1="151.912" x2="27.1315" y2="272.865" gradientUnits="userSpaceOnUse">
<stop stop-color="#FF9085"/>
<stop offset="1" stop-color="#FB6FBB"/>
</linearGradient>
<linearGradient id="paint23_linear_0_1001" x1="130.818" y1="184.089" x2="137.784" y2="175.333" gradientUnits="userSpaceOnUse">
<stop stop-color="#40447E"/>
<stop offset="0.9964" stop-color="#3C3B6B"/>
</linearGradient>
<linearGradient id="paint24_linear_0_1001" x1="58.5452" y1="195.224" x2="143.62" y2="293.205" gradientUnits="userSpaceOnUse">
<stop stop-color="#FFC444"/>
<stop offset="0.9964" stop-color="#F36F56"/>
</linearGradient>
<linearGradient id="paint25_linear_0_1001" x1="41.9208" y1="168.58" x2="55.0408" y2="208.862" gradientUnits="userSpaceOnUse">
<stop stop-color="#311944"/>
<stop offset="1" stop-color="#6B3976"/>
</linearGradient>
<linearGradient id="paint26_linear_0_1001" x1="61.7977" y1="197.226" x2="110.898" y2="185.283" gradientUnits="userSpaceOnUse">
<stop stop-color="#311944"/>
<stop offset="1" stop-color="#893976"/>
</linearGradient>
<linearGradient id="paint27_linear_0_1001" x1="108.69" y1="169.252" x2="88.3471" y2="143.846" gradientUnits="userSpaceOnUse">
<stop stop-color="#AA80F9"/>
<stop offset="0.9964" stop-color="#6165D7"/>
</linearGradient>
<linearGradient id="paint28_linear_0_1001" x1="85.3505" y1="161.749" x2="76.7676" y2="141.275" gradientUnits="userSpaceOnUse">
<stop stop-color="#AA80F9"/>
<stop offset="0.9964" stop-color="#6165D7"/>
</linearGradient>
<linearGradient id="paint29_linear_0_1001" x1="88.8814" y1="162.819" x2="84.1271" y2="141.132" gradientUnits="userSpaceOnUse">
<stop stop-color="#AA80F9"/>
<stop offset="0.9964" stop-color="#6165D7"/>
</linearGradient>
<linearGradient id="paint30_linear_0_1001" x1="81.9921" y1="165.803" x2="97.8151" y2="148.316" gradientUnits="userSpaceOnUse">
<stop stop-color="#FFC444"/>
<stop offset="0.9964" stop-color="#F36F56"/>
</linearGradient>
<linearGradient id="paint31_linear_0_1001" x1="80.3624" y1="164.331" x2="70.3708" y2="143.36" gradientUnits="userSpaceOnUse">
<stop offset="0.2828" stop-color="#AA80F9"/>
<stop offset="0.9964" stop-color="#6165D7"/>
</linearGradient>
<linearGradient id="paint32_linear_0_1001" x1="73.1576" y1="143.029" x2="72.4119" y2="127.627" gradientUnits="userSpaceOnUse">
<stop stop-color="#FFC444"/>
<stop offset="0.9964" stop-color="#F36F56"/>
</linearGradient>
<linearGradient id="paint33_linear_0_1001" x1="69.6853" y1="154.683" x2="87.0153" y2="133.046" gradientUnits="userSpaceOnUse">
<stop stop-color="#311944"/>
<stop offset="1" stop-color="#6B3976"/>
</linearGradient>
<linearGradient id="paint34_linear_0_1001" x1="52.867" y1="130.15" x2="54.0388" y2="158.304" gradientUnits="userSpaceOnUse">
<stop stop-color="#FFC444"/>
<stop offset="0.9964" stop-color="#F36F56"/>
</linearGradient>
<linearGradient id="paint35_linear_0_1001" x1="82.527" y1="164.969" x2="100.293" y2="163.776" gradientUnits="userSpaceOnUse">
<stop stop-color="#40447E"/>
<stop offset="0.9964" stop-color="#3C3B6B"/>
</linearGradient>
<linearGradient id="paint36_linear_0_1001" x1="114.159" y1="163.333" x2="116.31" y2="157.649" gradientUnits="userSpaceOnUse">
<stop stop-color="#40447E"/>
<stop offset="0.9964" stop-color="#3C3B6B"/>
</linearGradient>
<linearGradient id="paint37_linear_0_1001" x1="64.7672" y1="205.806" x2="161.041" y2="292.466" gradientUnits="userSpaceOnUse">
<stop stop-color="#FFC444"/>
<stop offset="0.9964" stop-color="#F36F56"/>
</linearGradient>
<linearGradient id="paint38_linear_0_1001" x1="75.601" y1="183.291" x2="115.468" y2="174.06" gradientUnits="userSpaceOnUse">
<stop stop-color="#311944"/>
<stop offset="1" stop-color="#6B3976"/>
</linearGradient>
<linearGradient id="paint39_linear_0_1001" x1="68.4759" y1="188.194" x2="100.745" y2="157.915" gradientUnits="userSpaceOnUse">
<stop stop-color="#311944"/>
<stop offset="1" stop-color="#893976"/>
</linearGradient>
<linearGradient id="paint40_linear_0_1001" x1="85.5858" y1="173.006" x2="93.607" y2="155" gradientUnits="userSpaceOnUse">
<stop stop-color="#311944"/>
<stop offset="1" stop-color="#6B3976"/>
</linearGradient>
<linearGradient id="paint41_linear_0_1001" x1="119.212" y1="143.16" x2="183.629" y2="201.911" gradientUnits="userSpaceOnUse">
<stop stop-color="#311944"/>
<stop offset="1" stop-color="#893976"/>
</linearGradient>
<linearGradient id="paint42_linear_0_1001" x1="287.822" y1="106.286" x2="254.222" y2="83.0256" gradientUnits="userSpaceOnUse">
<stop stop-color="#AA80F9"/>
<stop offset="0.9964" stop-color="#6165D7"/>
</linearGradient>
<linearGradient id="paint43_linear_0_1001" x1="457.002" y1="118.558" x2="385.108" y2="-26.566" gradientUnits="userSpaceOnUse">
<stop stop-color="#311944"/>
<stop offset="1" stop-color="#893976"/>
</linearGradient>
<linearGradient id="paint44_linear_0_1001" x1="397.311" y1="53.2804" x2="200.748" y2="-4.38718" gradientUnits="userSpaceOnUse">
<stop stop-color="#311944"/>
<stop offset="1" stop-color="#893976"/>
</linearGradient>
<linearGradient id="paint45_linear_0_1001" x1="150.137" y1="124.481" x2="287.556" y2="124.481" gradientUnits="userSpaceOnUse">
<stop stop-color="#FF9085"/>
<stop offset="1" stop-color="#FB6FBB"/>
</linearGradient>
<linearGradient id="paint46_linear_0_1001" x1="157.436" y1="110.268" x2="253.778" y2="163.413" gradientUnits="userSpaceOnUse">
<stop stop-color="#FF9085"/>
<stop offset="1" stop-color="#FB6FBB"/>
</linearGradient>
<linearGradient id="paint47_linear_0_1001" x1="270.229" y1="189.096" x2="276.032" y2="181.931" gradientUnits="userSpaceOnUse">
<stop stop-color="#AB316D"/>
<stop offset="1" stop-color="#792D3D"/>
</linearGradient>
<linearGradient id="paint48_linear_0_1001" x1="278.374" y1="200.163" x2="313.702" y2="186.517" gradientUnits="userSpaceOnUse">
<stop stop-color="#444B8C"/>
<stop offset="0.9964" stop-color="#3E4177"/>
</linearGradient>
<linearGradient id="paint49_linear_0_1001" x1="266.684" y1="137.53" x2="240.191" y2="147.473" gradientUnits="userSpaceOnUse">
<stop stop-color="#444B8C"/>
<stop offset="0.9964" stop-color="#3E4177"/>
</linearGradient>
<linearGradient id="paint50_linear_0_1001" x1="300.827" y1="174.443" x2="303.629" y2="174.545" gradientUnits="userSpaceOnUse">
<stop stop-color="#40447E"/>
<stop offset="0.9964" stop-color="#3C3B6B"/>
</linearGradient>
<linearGradient id="paint51_linear_0_1001" x1="299.498" y1="170.519" x2="302.505" y2="171.26" gradientUnits="userSpaceOnUse">
<stop stop-color="#AB316D"/>
<stop offset="1" stop-color="#792D3D"/>
</linearGradient>
<linearGradient id="paint52_linear_0_1001" x1="277.436" y1="170.685" x2="301.551" y2="171.089" gradientUnits="userSpaceOnUse">
<stop stop-color="#40447E"/>
<stop offset="0.9964" stop-color="#3C3B6B"/>
</linearGradient>
<linearGradient id="paint53_linear_0_1001" x1="263.913" y1="150.142" x2="299.133" y2="176.756" gradientUnits="userSpaceOnUse">
<stop stop-color="#AA80F9"/>
<stop offset="0.9964" stop-color="#6165D7"/>
</linearGradient>
<linearGradient id="paint54_linear_0_1001" x1="251.336" y1="143.167" x2="265.316" y2="170.817" gradientUnits="userSpaceOnUse">
<stop stop-color="#AA80F9"/>
<stop offset="0.9964" stop-color="#6165D7"/>
</linearGradient>
<linearGradient id="paint55_linear_0_1001" x1="280.908" y1="144.176" x2="282.9" y2="146.307" gradientUnits="userSpaceOnUse">
<stop stop-color="#AB316D"/>
<stop offset="1" stop-color="#792D3D"/>
</linearGradient>
<linearGradient id="paint56_linear_0_1001" x1="278.941" y1="140.757" x2="289.777" y2="142.466" gradientUnits="userSpaceOnUse">
<stop stop-color="#AA80F9"/>
<stop offset="0.9964" stop-color="#6165D7"/>
</linearGradient>
<linearGradient id="paint57_linear_0_1001" x1="284.872" y1="127.815" x2="281.578" y2="113.671" gradientUnits="userSpaceOnUse">
<stop stop-color="#AB316D"/>
<stop offset="1" stop-color="#792D3D"/>
</linearGradient>
<linearGradient id="paint58_linear_0_1001" x1="281.848" y1="114.876" x2="275.981" y2="105.766" gradientUnits="userSpaceOnUse">
<stop stop-color="#AB316D"/>
<stop offset="1" stop-color="#792D3D"/>
</linearGradient>
<linearGradient id="paint59_linear_0_1001" x1="139.627" y1="208.499" x2="179.883" y2="225.723" gradientUnits="userSpaceOnUse">
<stop stop-color="#FFC444"/>
<stop offset="0.9964" stop-color="#F36F56"/>
</linearGradient>
<linearGradient id="paint60_linear_0_1001" x1="166.126" y1="104.72" x2="122.354" y2="139.153" gradientUnits="userSpaceOnUse">
<stop stop-color="#AA80F9"/>
<stop offset="0.9964" stop-color="#6165D7"/>
</linearGradient>
<linearGradient id="paint61_linear_0_1001" x1="199.447" y1="187.572" x2="202.733" y2="187.693" gradientUnits="userSpaceOnUse">
<stop stop-color="#40447E"/>
<stop offset="0.9964" stop-color="#3C3B6B"/>
</linearGradient>
<linearGradient id="paint62_linear_0_1001" x1="154.49" y1="169.011" x2="172.127" y2="215.935" gradientUnits="userSpaceOnUse">
<stop stop-color="#FFC444"/>
<stop offset="0.9964" stop-color="#F36F56"/>
</linearGradient>
<linearGradient id="paint63_linear_0_1001" x1="134.479" y1="148.908" x2="179.162" y2="201.182" gradientUnits="userSpaceOnUse">
<stop stop-color="#AA80F9"/>
<stop offset="0.9964" stop-color="#6165D7"/>
</linearGradient>
<linearGradient id="paint64_linear_0_1001" x1="162.977" y1="128.239" x2="188.417" y2="153.505" gradientUnits="userSpaceOnUse">
<stop stop-color="#311944"/>
<stop offset="1" stop-color="#893976"/>
</linearGradient>
<linearGradient id="paint65_linear_0_1001" x1="155.274" y1="123.393" x2="178.916" y2="153.121" gradientUnits="userSpaceOnUse">
<stop stop-color="#311944"/>
<stop offset="1" stop-color="#893976"/>
</linearGradient>
<linearGradient id="paint66_linear_0_1001" x1="163.751" y1="109.886" x2="126.315" y2="125.381" gradientUnits="userSpaceOnUse">
<stop stop-color="#AA80F9"/>
<stop offset="0.9964" stop-color="#6165D7"/>
</linearGradient>
<linearGradient id="paint67_linear_0_1001" x1="158.581" y1="139.307" x2="160.476" y2="157.081" gradientUnits="userSpaceOnUse">
<stop stop-color="#311944"/>
<stop offset="1" stop-color="#893976"/>
</linearGradient>
<linearGradient id="paint68_linear_0_1001" x1="182.38" y1="152.099" x2="185.153" y2="154.396" gradientUnits="userSpaceOnUse">
<stop stop-color="#FFC444"/>
<stop offset="0.9964" stop-color="#F36F56"/>
</linearGradient>
<linearGradient id="paint69_linear_0_1001" x1="157.22" y1="141.638" x2="196.123" y2="154.249" gradientUnits="userSpaceOnUse">
<stop stop-color="#311944"/>
<stop offset="1" stop-color="#893976"/>
</linearGradient>
<linearGradient id="paint70_linear_0_1001" x1="179.569" y1="125.488" x2="171.891" y2="114.379" gradientUnits="userSpaceOnUse">
<stop stop-color="#FFC444"/>
<stop offset="0.9964" stop-color="#F36F56"/>
</linearGradient>
<linearGradient id="paint71_linear_0_1001" x1="189.523" y1="120.218" x2="177.255" y2="104.621" gradientUnits="userSpaceOnUse">
<stop stop-color="#311944"/>
<stop offset="1" stop-color="#6B3976"/>
</linearGradient>
<linearGradient id="paint72_linear_0_1001" x1="158.306" y1="116.245" x2="161.756" y2="143.111" gradientUnits="userSpaceOnUse">
<stop stop-color="#FFC444"/>
<stop offset="0.9964" stop-color="#F36F56"/>
</linearGradient>
<linearGradient id="paint73_linear_0_1001" x1="187.443" y1="121.46" x2="174.989" y2="106.013" gradientUnits="userSpaceOnUse">
<stop stop-color="#311944"/>
<stop offset="1" stop-color="#6B3976"/>
</linearGradient>
<linearGradient id="paint74_linear_0_1001" x1="169.019" y1="118.487" x2="169.988" y2="121.759" gradientUnits="userSpaceOnUse">
<stop stop-color="#FFC444"/>
<stop offset="1" stop-color="#F36F56"/>
</linearGradient>
</defs>
</svg>
