<?xml version="1.0" encoding="utf-8"?>
<svg width="20.001373px" height="20px" viewBox="0 0 20.001373 20" version="1.1" xmlns:xlink="http://www.w3.org/1999/xlink" xmlns="http://www.w3.org/2000/svg">
  <g id="Group-19">
    <path d="M18.6221 10.0001C18.6221 10.381 18.9308 10.6898 19.3117 10.6898C19.4946 10.6898 19.67 10.6171 19.7994 10.4878C19.9287 10.3584 20.0014 10.183 20.0014 10.0001C19.9953 4.47972 15.5217 0.0060814 10.0013 0C9.62039 0 9.31161 0.308772 9.31161 0.689662C9.31161 1.07055 9.62039 1.37932 10.0013 1.37932C14.7602 1.38465 18.6167 5.24119 18.6221 10.0001ZM8.28298 11.7184C6.374 9.80941 5.94296 7.90043 5.84571 7.13559C5.81854 6.92411 5.89132 6.71203 6.04261 6.56179L7.58746 5.01764C7.8147 4.79053 7.85503 4.43659 7.6847 4.16418L5.22502 0.344831C5.03657 0.0431896 4.64965 -0.0656758 4.33156 0.0934493L0.382899 1.95312C0.125675 2.07978 -0.0256204 2.35308 0.00358452 2.6383C0.210483 4.60384 1.06739 9.43562 5.81571 14.1843C10.564 18.933 15.3951 19.7895 17.3617 19.9964C17.6469 20.0256 17.9202 19.8743 18.0469 19.6171L19.9066 15.6684C20.0651 15.351 19.9569 14.9651 19.6565 14.7764L15.8372 12.3174C15.5649 12.1469 15.211 12.1869 14.9837 12.4139L13.4396 13.9588C13.2893 14.1101 13.0773 14.1828 12.8658 14.1557C12.101 14.0584 10.192 13.6274 8.28298 11.7184ZM15.8634 10.6898C15.4825 10.6898 15.1737 10.381 15.1737 10.0001C15.1705 7.14477 12.8566 4.83087 10.0013 4.82764C9.62039 4.82764 9.31161 4.51886 9.31161 4.13797C9.31161 3.75708 9.62039 3.44831 10.0013 3.44831C13.6181 3.4523 16.5491 6.3833 16.5531 10.0001C16.5531 10.381 16.2443 10.6898 15.8634 10.6898Z" id="Combined-Shape" fill="#174AE6" fill-rule="evenodd" stroke="none" />
  </g>
</svg>