<?xml version="1.0" encoding="utf-8"?>
<svg width="18.181824px" height="20px" viewBox="0 0 18.181824 20" version="1.1" xmlns:xlink="http://www.w3.org/1999/xlink" xmlns="http://www.w3.org/2000/svg">
  <g id="Group-20">
    <path d="M9.09091 20C4.57318 20 0 19.0632 0 17.2727C0 15.97 2.24591 15.2907 4.13 14.9505C4.37818 14.9034 4.61364 15.0698 4.65795 15.3168C4.7025 15.5639 4.53864 15.8002 4.29159 15.8448C1.8275 16.2902 0.909091 16.9568 0.909091 17.2727C0.909091 17.8898 3.79705 19.0909 9.09091 19.0909C14.3848 19.0909 17.2727 17.8898 17.2727 17.2727C17.2727 16.9568 16.3543 16.2902 13.8902 15.845C13.6432 15.8005 13.4791 15.5641 13.5239 15.317C13.5682 15.07 13.805 14.9045 14.0518 14.9507C15.9359 15.2907 18.1818 15.97 18.1818 17.2727C18.1818 19.0632 13.6086 20 9.09091 20ZM16.3636 7.27273C16.3636 12.9057 9.62977 17.4598 9.34295 17.6509C9.26659 17.7018 9.17886 17.7273 9.09091 17.7273C9.00295 17.7273 8.91523 17.7018 8.83886 17.6509C8.55205 17.4598 1.81818 12.9057 1.81818 7.27273C1.81818 3.2625 5.08068 0 9.09091 0C13.1011 0 16.3636 3.2625 16.3636 7.27273ZM12.2727 7.27273C12.2727 5.51545 10.8482 4.09091 9.09091 4.09091C7.33364 4.09091 5.90909 5.51545 5.90909 7.27273C5.90909 9.03 7.33364 10.4545 9.09091 10.4545C10.8482 10.4545 12.2727 9.03 12.2727 7.27273Z" id="Location" fill="#174AE6" stroke="none" />
  </g>
</svg>