<?xml version="1.0" encoding="utf-8"?>
<svg width="67.67944px" height="46.667175px" viewBox="0 0 67.67944 46.667175" version="1.1" xmlns:xlink="http://www.w3.org/1999/xlink" xmlns="http://www.w3.org/2000/svg">
  <g id="Group-25">
    <path d="M49.9191 4.77557L36.9267 4.77557C35.5924 4.77557 34.5389 3.72214 34.5389 2.38779L34.5389 2.38779C34.5389 1.05344 35.5924 0 36.9267 0L49.9191 0C51.2534 0 52.3069 1.05344 52.3069 2.38779L52.3069 2.38779C52.3069 3.72214 51.2534 4.77557 49.9191 4.77557Z" id="Path" fill="#D3ECFF" stroke="none" />
    <path d="M31.9191 32.7756L18.9267 32.7756C17.5924 32.7756 16.5389 31.7221 16.5389 30.3878L16.5389 30.3878C16.5389 29.0534 17.5924 28 18.9267 28L31.9191 28C33.2534 28 34.3069 29.0534 34.3069 30.3878L34.3069 30.3878C34.3069 31.7221 33.2534 32.7756 31.9191 32.7756Z" id="Path-Copy-39" fill="#D3ECFF" stroke="none" />
    <path d="M33.0076 18.4427L2.38779 18.4427C1.05344 18.4427 0 17.3893 0 16.055L0 16.055C0 14.7206 1.05344 13.6672 2.38779 13.6672L33.0076 13.6672C34.342 13.6672 35.3954 14.7206 35.3954 16.055L35.3954 16.055C35.4656 17.3191 34.342 18.4427 33.0076 18.4427Z" id="Path" fill="#D3ECFF" stroke="none" />
    <path d="M44.3603 46.6672L42.1832 46.6672C41.6214 46.6672 41.1298 46.1756 41.1298 45.6137L41.1298 43.5771C41.1298 43.0153 41.6214 42.5237 42.1832 42.5237L44.3603 42.5237C44.9221 42.5237 45.4137 43.0153 45.4137 43.5771L45.4137 45.6137C45.4137 46.1756 44.9221 46.6672 44.3603 46.6672Z" id="Path" fill="#D3ECFF" stroke="none" />
    <path d="M66.626 39.9954L64.4489 39.9954C63.887 39.9954 63.3954 39.5038 63.3954 38.942L63.3954 36.9053C63.3954 36.3435 63.887 35.8519 64.4489 35.8519L66.626 35.8519C67.1878 35.8519 67.6794 36.3435 67.6794 36.9053L67.6794 38.942C67.6794 39.5038 67.1878 39.9954 66.626 39.9954Z" id="Path" fill="#D3ECFF" stroke="none" />
  </g>
</svg>