<?xml version="1.0" encoding="utf-8"?>
<svg width="30.974731px" height="30.651733px" viewBox="0 0 30.974731 30.651733" version="1.1" xmlns:xlink="http://www.w3.org/1999/xlink" xmlns="http://www.w3.org/2000/svg">
  <g id="tornado" transform="matrix(0.66913056 -0.74314487 0.74314487 0.66913056 0 14.592651)">
    <path d="M15.2727 18.5455L8.72727 18.5455C8.12487 18.5455 7.63636 18.0575 7.63636 17.4545C7.63636 16.8516 8.12487 16.3636 8.72727 16.3636L15.2727 16.3636C15.8751 16.3636 16.3636 16.8516 16.3636 17.4545C16.3636 18.0575 15.8751 18.5455 15.2727 18.5455ZM18.5455 5.45455L7.63636 5.45455C7.03396 5.45455 6.54545 5.94251 6.54545 6.54545C6.54545 7.1484 7.03396 7.63636 7.63636 7.63636L18.5455 7.63636C19.1479 7.63636 19.6364 7.1484 19.6364 6.54545C19.6364 5.94251 19.1479 5.45455 18.5455 5.45455Z" id="Shape" fill="#3B82F6" fill-opacity="0.3" stroke="none" />
    <path d="M14.1818 12C14.1818 12.6029 13.6933 13.0909 13.0909 13.0909L4.36364 13.0909C3.76124 13.0909 3.27273 12.6029 3.27273 12C3.27273 11.3971 3.76124 10.9091 4.36364 10.9091L13.0909 10.9091C13.6933 10.9091 14.1818 11.3971 14.1818 12ZM12.5455 22.9091C12.5455 22.3061 12.0569 21.8182 11.4545 21.8182L8.18182 21.8182C7.57942 21.8182 7.09091 22.3061 7.09091 22.9091C7.09091 23.512 7.57942 24 8.18182 24L11.4545 24C12.0569 24 12.5455 23.512 12.5455 22.9091ZM0 1.09091C0 1.69385 0.488509 2.18182 1.09091 2.18182L14.1818 2.18182C14.7842 2.18182 15.2727 1.69385 15.2727 1.09091C15.2727 0.487964 14.7842 0 14.1818 0L1.09091 0C0.488509 0 0 0.487964 0 1.09091Z" id="Shape" fill="#3B82F6" stroke="none" />
  </g>
</svg>