<?xml version="1.0" encoding="utf-8"?>
<svg width="260.0786px" height="146.00012px" viewBox="0 0 260.0786 146.00012" version="1.1" xmlns:xlink="http://www.w3.org/1999/xlink" xmlns="http://www.w3.org/2000/svg">
  <g id="Group-21">
    <path d="M176.33 64.2699C176.33 66.1751 175.908 67.9391 175.134 69.562C174.853 70.2676 174.431 70.9026 174.008 71.4671C173.375 72.3844 172.601 73.2311 171.757 73.9367C169.576 75.7713 166.761 76.8297 163.735 76.8297C162.68 76.8297 161.625 76.6886 160.569 76.4063C159.865 76.1946 159.091 75.983 158.458 75.6302L158.458 75.6302C157.543 75.2068 156.629 74.6423 155.855 74.0073C152.97 71.6788 151.14 68.1508 151.14 64.1994C151.14 57.2845 156.769 51.6396 163.735 51.6396C170.701 51.6396 176.33 57.2845 176.33 64.2699Z" id="Path" fill="#D9ECFF" stroke="none" />
    <g id="Group" transform="translate(155.98462 54.546173)">
      <path d="M7.42548 17.555L7.35476 17.6921L4.73816 21.8723C4.03098 21.6668 3.25307 21.4612 2.6166 21.1185L2.6166 21.1185C1.69725 20.7074 0.777908 20.1591 0 19.5424L2.6166 14.7454C2.68732 14.6083 2.75804 14.5398 2.82875 14.4712L2.82875 14.4712C3.04091 14.1971 3.25307 13.9915 3.53594 13.8545L3.53594 13.8545C3.7481 13.7174 4.03098 13.6489 4.24313 13.6489C4.24313 13.6489 4.24313 13.6489 4.24313 13.6489L4.24313 13.6489C4.66745 13.5804 5.09176 13.7174 5.44535 13.9915L6.85973 14.9509L7.00117 15.0195C7.77908 15.5677 8.06195 16.7327 7.42548 17.555Z" id="Path" fill="#ABD4FF" stroke="none" />
      <path d="M19.377 15.2251C19.0941 15.9103 18.6698 16.5271 18.2455 17.0753C17.609 17.9662 16.8311 18.7885 15.9825 19.4738L13.7902 18.0347C13.6487 17.9662 13.5073 17.8291 13.3659 17.7606L13.3659 17.7606C12.6587 17.0753 12.6587 15.9789 13.2951 15.2936L13.7195 14.8139C13.7195 14.8139 13.7195 14.8139 13.7195 14.8139C13.7195 14.8139 13.7195 14.8139 13.7195 14.8139L14.4974 13.923C14.9924 13.3748 15.841 13.1692 16.5482 13.3748C16.5482 13.3748 16.5482 13.3748 16.5482 13.3748C16.7604 13.4433 17.0432 13.5804 17.2554 13.7174L19.377 15.2251Z" id="Path" fill="#ABD4FF" stroke="none" />
      <path d="M18.2455 17.0753C17.609 17.9662 16.8311 18.7885 15.9825 19.4738C13.7902 21.2556 10.9614 22.2835 7.92051 22.2835C6.85973 22.2835 5.79895 22.1465 4.73816 21.8723C4.03098 21.6668 3.25307 21.4612 2.6166 21.1185L2.6166 21.1185C2.6166 18.0347 2.68732 15.4992 2.75804 14.4712L2.75804 14.4712C2.75804 14.4712 2.75804 14.4027 2.75804 14.4027C2.75804 14.1971 3.04091 14.0601 3.46522 13.923L3.46522 13.923C3.67738 13.8545 3.88954 13.7859 4.17241 13.7174C4.17241 13.7174 4.17241 13.7174 4.17241 13.7174L4.17241 13.7174C4.80888 13.5804 5.51607 13.5118 6.3647 13.4433L6.64757 13.4433C6.78901 13.4433 6.85973 13.4433 7.00117 13.4433C7.00117 13.4433 7.00117 13.4433 7.00117 13.4433L7.00117 13.4433C7.00117 13.4433 7.00117 13.4433 7.07189 13.4433L7.07189 13.4433C7.07189 13.4433 7.07189 13.4433 7.07189 13.4433C9.19345 13.2377 11.6686 13.2377 13.1537 13.1692L13.2951 13.1692C13.578 13.1692 13.8609 13.1692 14.0731 13.1692C14.3559 13.1692 14.5681 13.1692 14.5681 13.1692C14.5681 13.1692 15.6996 12.9636 16.6189 13.3748C16.6189 13.3748 16.6189 13.3748 16.6189 13.3748C17.114 13.5804 17.5383 13.9915 17.7504 14.6083C17.8212 14.8824 18.0333 15.8418 18.2455 17.0753Z" id="Path" fill="#ABD4FF" stroke="none" />
      <path d="M13.4366 5.97367C13.3659 5.42544 12.8001 5.01426 12.2344 5.08279C11.6686 5.15132 11.2443 5.69955 11.315 6.24778C11.3857 6.79601 11.9515 7.20718 12.5172 7.13866C13.1537 7.0016 13.578 6.5219 13.4366 5.97367Z" id="Path" fill="#ABD4FF" stroke="none" />
      <path d="M12.1636 5.63102C12.1636 5.63102 12.8001 5.76808 13.083 6.17925C13.083 6.24778 13.083 6.24778 13.083 6.31631C13.083 6.31631 13.083 6.31631 13.0123 6.31631C13.0123 6.31631 12.9416 6.31631 12.9416 6.31631C12.8708 6.24778 12.8001 6.17925 12.7294 6.11072C12.6587 6.24778 12.588 6.38484 12.3758 6.45337C12.3758 6.45337 12.3758 6.45337 12.3758 6.45337C12.3051 6.45337 12.3051 6.45337 12.3051 6.38484C12.3051 6.31631 12.3051 6.31631 12.3758 6.31631C12.5172 6.24778 12.588 6.11072 12.588 6.0422C12.3758 5.90514 12.0929 5.83661 12.0929 5.83661C12.0222 5.83661 12.0222 5.76808 12.0222 5.76808C12.0929 5.69955 12.0929 5.63102 12.1636 5.63102Z" id="Path" fill="#ABD4FF" stroke="none" />
      <path d="M6.93045 13.5804C7.14261 14.2656 7.14261 15.3621 9.05202 16.1845C10.7493 16.8697 12.3758 16.3215 13.083 15.1565C13.4366 14.5398 13.578 13.2377 12.6587 12.621C12.3051 12.4154 12.0929 12.0727 11.8808 11.7301C11.315 10.5651 11.315 9.05746 11.315 9.05746L7.07189 9.19452C7.07189 9.19452 7.21333 10.0169 7.28404 11.1133C7.28404 11.2504 7.28404 11.3874 7.28404 11.5245C7.35476 12.758 6.93045 13.5804 6.93045 13.5804Z" id="Path" fill="#ABD4FF" stroke="none" />
      <path d="M7.28404 10.8392C8.13267 11.2504 10.325 12.621 12.3051 12.2098C11.315 11.0448 11.315 8.98893 11.315 8.98893L7.07189 9.12599C7.14261 9.19452 7.21333 9.81128 7.28404 10.8392Z" id="Path" fill="#ABD4FF" stroke="none" />
      <path d="M12.7294 10.9077L7.07189 11.6616C6.85973 11.6616 6.71829 11.5245 6.64757 11.3874L5.51607 3.57516L11.8808 2.75281L13.0123 10.5651C13.083 10.7022 12.9416 10.9077 12.7294 10.9077Z" id="Path" fill="#ABD4FF" stroke="none" />
      <path d="M4.95032 7.07013C4.8796 6.5219 5.30392 6.0422 5.86967 5.90514C6.43542 5.83661 7.00117 6.24778 7.07189 6.79601C7.14261 7.34424 6.71829 7.82394 6.15254 7.961C5.58679 8.02953 5.02104 7.61836 4.95032 7.07013Z" id="Path" fill="#ABD4FF" stroke="none" />
      <path d="M6.15254 6.45337C6.15254 6.45337 5.58679 6.72748 5.37463 7.20718C5.37463 7.27571 5.37463 7.27571 5.44535 7.34424C5.44535 7.34424 5.44535 7.34424 5.51607 7.34424C5.51607 7.34424 5.58679 7.34424 5.58679 7.27571C5.58679 7.20718 5.65751 7.13866 5.72823 7.07013C5.79895 7.13866 5.94039 7.27571 6.15254 7.27571C6.15254 7.27571 6.15254 7.27571 6.15254 7.27571C6.22326 7.27571 6.22326 7.20718 6.22326 7.20718C6.22326 7.13866 6.15254 7.13866 6.15254 7.13866C6.0111 7.13866 5.86967 7.0016 5.86967 6.93307C6.08182 6.72748 6.29398 6.59043 6.29398 6.59043C6.3647 6.59043 6.3647 6.5219 6.29398 6.45337C6.22326 6.45337 6.15254 6.45337 6.15254 6.45337Z" id="Path" fill="#ABD4FF" stroke="none" />
      <path d="M9.05202 9.19452L10.5371 9.12599C10.5371 9.12599 10.5371 10.1539 9.82992 10.0854C9.12274 9.94834 9.05202 9.19452 9.05202 9.19452Z" id="Path" fill="#ABD4FF" stroke="none" />
      <path d="M11.1736 8.30365C11.2443 8.57776 11.5979 8.71482 12.0222 8.64629C12.4465 8.57776 12.7294 8.37217 12.7294 8.09806C12.6587 7.82394 12.3051 7.68689 11.8808 7.75542C11.4565 7.75542 11.1736 8.02953 11.1736 8.30365Z" id="Path" fill="#ABD4FF" stroke="none" />
      <path d="M6.43542 8.9204C6.50614 9.19452 6.85973 9.33158 7.28404 9.26305C7.70836 9.19452 7.99123 8.98893 7.99123 8.71482C7.92051 8.4407 7.56692 8.30365 7.14261 8.37217C6.71829 8.4407 6.43542 8.71482 6.43542 8.9204Z" id="Path" fill="#ABD4FF" stroke="none" />
      <path d="M5.94039 5.97367C5.94039 5.97367 5.79895 4.74015 5.86967 3.57516C5.86967 3.57516 7.63764 5.01426 9.7592 3.78075C11.9515 2.54723 11.8101 3.09546 11.8808 3.57516C11.9515 4.05486 12.3051 5.15132 12.3051 5.15132C12.3051 5.15132 12.0929 4.60309 12.588 4.19192C13.083 3.84927 13.4366 2.9584 12.8001 2.75281C12.1636 2.61576 12.6587 2.41017 12.588 1.999C12.5172 1.5193 12.0222 1.38224 11.6686 1.5193C11.3857 1.65635 11.1029 1.03959 10.6785 0.559893C9.54705 -0.536567 7.77908 0.0801916 7.28404 1.5193C7.14261 1.93047 6.08182 0.491364 4.73816 1.999C3.53594 3.36957 5.02104 3.71222 5.16248 4.53456C5.30392 5.28838 5.37463 5.76808 5.94039 5.97367Z" id="Path" fill="#ABD4FF" stroke="none" />
      <path d="M13.1537 13.1007L10.1128 14.7454L7.00117 13.3062L6.57686 17.6236L13.2951 18.2403C13.2951 18.3088 14.4267 13.0321 13.1537 13.1007Z" id="Path" fill="#ABD4FF" stroke="none" />
      <path d="M13.1537 13.1007L10.1128 14.7454L7.00117 13.3062L6.3647 13.3748L8.69842 15.7733L10.1128 14.9509L11.5272 15.7048L13.6487 13.1007L13.1537 13.1007Z" id="Path" fill="#ABD4FF" stroke="none" />
    </g>
    <g id="Group" transform="translate(70.725945 60.359264)">
      <path d="M31.0032 62.0063C48.1257 62.0063 62.0063 48.1257 62.0063 31.0032C62.0063 13.8806 48.1257 0 31.0032 0C13.8806 0 0 13.8806 0 31.0032C0 48.1257 13.8806 62.0063 31.0032 62.0063Z" id="Oval" fill="#D9ECFF" stroke="none" />
      <g id="Group" transform="translate(11.5912695 5.376547)">
        <path d="M18.3645 44.7756L18.155 45.1263L11.6611 55.7179C9.8456 55.2269 8.09992 54.5956 6.42408 53.824C4.11979 52.7719 1.95515 51.369 0 49.8259L6.35425 37.621C6.4939 37.3405 6.63356 37.0599 6.77321 36.8495C7.19217 36.2182 7.82062 35.7272 8.44906 35.3765C9.0775 35.0258 9.70594 34.8855 10.4042 34.8153C11.3818 34.7452 12.3594 35.0258 13.2671 35.5869L16.8283 37.9718L17.1076 38.1822C19.2024 39.6552 19.761 42.6012 18.3645 44.7756Z" id="Path" fill="#F5B315" stroke="none" />
        <path d="M42.3849 34.7452L47.4823 38.7433C46.7142 40.4268 45.8065 42.04 44.7591 43.513C43.153 45.7576 41.3375 47.7918 39.2427 49.4752L33.9359 45.8979C33.5868 45.6875 33.2376 45.4069 32.9583 45.1263C31.2825 43.4429 31.1428 40.6372 32.7488 38.7433L33.7962 37.4808L35.7514 35.2362C37.0083 33.7632 38.9634 33.2722 40.7091 33.8333C40.7091 33.8333 40.7091 33.8333 40.7091 33.8333C41.2677 34.0438 41.8962 34.3243 42.3849 34.7452Z" id="Path" fill="#F5B315" stroke="none" />
        <path d="M44.7591 43.513C43.153 45.7576 41.3375 47.7918 39.2427 49.4752C33.8661 53.9643 26.9532 56.6298 19.4119 56.6298C16.7585 56.6298 14.1749 56.279 11.6611 55.6478C9.8456 55.1568 8.09992 54.5255 6.42408 53.7539C6.4939 45.8979 6.56373 39.3746 6.77321 36.7793C6.77321 36.7092 6.77321 36.639 6.77321 36.5689C6.84304 36.0779 7.47148 35.657 8.44906 35.3063C9.00767 35.0959 9.63612 34.9556 10.4042 34.7452C11.8706 34.4646 13.6861 34.184 15.6412 33.9736L16.9679 33.8333C17.0378 33.8333 17.1076 33.8333 17.1774 33.8333L17.1774 33.8333C17.2472 33.8333 17.2472 33.8333 17.3171 33.8333L17.3869 33.8333C22.6937 33.4125 28.6989 33.2722 32.3299 33.202L32.3299 33.202C32.3997 33.202 32.3997 33.202 32.4695 33.202L32.5393 33.202C33.3773 33.202 34.0755 33.202 34.5643 33.202C35.2626 33.202 35.6816 33.202 35.6816 33.202C35.6816 33.202 38.4048 32.6409 40.7091 33.7632C40.7091 33.7632 40.7091 33.7632 40.7091 33.7632C41.8263 34.3243 42.8737 35.3063 43.4323 36.9898C43.7815 37.9718 44.2004 40.2865 44.7591 43.513Z" id="Path" fill="#F5B315" stroke="none" />
        <path d="M30.5842 18.1213C32.0111 18.1213 33.1678 16.9908 33.1678 15.5962C33.1678 14.2016 32.0111 13.071 30.5842 13.071C29.1573 13.071 28.0006 14.2016 28.0006 15.5962C28.0006 16.9908 29.1573 18.1213 30.5842 18.1213Z" id="Oval" fill="#FDBBA4" stroke="none" />
        <path d="M29.8859 14.4739C29.9557 14.4739 31.4221 14.8246 32.1902 15.8066C32.26 15.8767 32.26 16.017 32.1204 16.0872C32.1204 16.0872 32.0506 16.1573 32.0506 16.1573C31.9807 16.1573 31.9109 16.1573 31.8411 16.0872C31.7014 15.9469 31.5618 15.7365 31.3523 15.6663C31.2825 15.9469 31.0032 16.3677 30.5144 16.508C30.5144 16.508 30.5144 16.508 30.5144 16.508C30.4445 16.508 30.3049 16.4379 30.3049 16.3677C30.3049 16.2275 30.3049 16.1573 30.4445 16.0872C30.7937 16.017 30.9333 15.5962 31.0032 15.3857C30.3747 15.035 29.8161 14.8947 29.7463 14.8947C29.6066 14.8947 29.5368 14.7545 29.6066 14.6142C29.6764 14.544 29.7463 14.4739 29.8859 14.4739Z" id="Path" fill="#F47991" stroke="none" />
        <path d="M17.1076 34.6049C17.6662 36.2883 17.5964 39.1642 22.4144 41.1282C26.6739 42.9519 30.5144 41.4088 32.26 38.4628C33.1678 36.9196 33.4471 33.6229 31.2825 32.0798C30.5144 31.5186 29.8859 30.6769 29.3971 29.765C27.9308 26.8892 27.9308 23.0313 27.9308 23.0313L17.5266 23.382C17.5266 23.382 17.8757 25.5565 18.0153 28.2219C18.0153 28.5726 18.0153 28.9935 18.0852 29.3442C18.155 32.5006 17.1076 34.6049 17.1076 34.6049Z" id="Path" fill="#FDBBA4" stroke="none" />
        <g id="Group" transform="translate(17.526558 23.03132)" opacity="0.25">
          <g id="Group">
            <path d="M0.418962 4.62943C2.5836 5.61143 7.96027 9.11857 12.7783 8.13657C10.3344 5.12043 10.4042 0 10.4042 0L0 0.350714C0.0698269 0.420857 0.349135 1.964 0.418962 4.62943Z" id="Path" fill="#000000" stroke="none" />
          </g>
        </g>
        <path d="M31.4221 27.8712L17.5266 29.765C17.0378 29.8352 16.6188 29.4845 16.549 29.0636L13.8257 9.14303L29.3971 6.9686L32.1204 26.8892C32.1902 27.3802 31.8411 27.801 31.4221 27.8712Z" id="Path" fill="#FDBBA4" stroke="none" />
        <path d="M14.8033 20.2957C16.2302 20.2957 17.3869 19.1652 17.3869 17.7706C17.3869 16.376 16.2302 15.2455 14.8033 15.2455C13.3764 15.2455 12.2197 16.376 12.2197 17.7706C12.2197 19.1652 13.3764 20.2957 14.8033 20.2957Z" id="Oval" fill="#FDBBA4" stroke="none" />
        <path d="M15.1524 16.508C15.0826 16.508 13.7559 17.2796 13.2671 18.4019C13.1973 18.5422 13.2671 18.6123 13.4068 18.6825C13.4766 18.6825 13.4766 18.6825 13.5464 18.6825C13.6163 18.6825 13.6861 18.6123 13.6861 18.5422C13.7559 18.3317 13.8956 18.1213 14.0352 17.981C14.1749 18.1915 14.524 18.5422 15.0128 18.5422C15.0128 18.5422 15.0128 18.5422 15.0128 18.5422C15.0826 18.5422 15.2223 18.472 15.2223 18.3317C15.2223 18.1915 15.1524 18.1213 15.0128 18.1213C14.6637 18.1213 14.3843 17.7706 14.3145 17.6303C14.8033 17.1393 15.3619 16.8587 15.3619 16.7886C15.4318 16.7185 15.5016 16.5782 15.4318 16.508C15.3619 16.508 15.2223 16.4379 15.1524 16.508Z" id="Path" fill="#F47991" stroke="none" />
        <path d="M22.2748 23.4522L25.9756 23.2417C25.9756 23.2417 25.9756 25.7669 24.2299 25.6266C22.4144 25.4863 22.2748 23.4522 22.2748 23.4522Z" id="Path" fill="#FFFFFF" stroke="none" />
        <path d="M29.5324 22.0737C30.5643 21.9338 31.3297 21.2913 31.242 20.6386C31.1542 19.986 30.2466 19.5704 29.2148 19.7103C28.1829 19.8503 27.4175 20.4928 27.5052 21.1454C27.593 21.7981 28.5006 22.2137 29.5324 22.0737Z" id="Oval" fill="#F79CAE" stroke="none" />
        <path d="M15.9205 22.8209C15.9904 23.4522 16.8981 23.873 17.9455 23.7327C18.9929 23.5925 19.6912 22.9612 19.6214 22.3299C19.5515 21.6986 18.6438 21.2777 17.5964 21.418C16.549 21.5583 15.7809 22.1896 15.9205 22.8209Z" id="Path" fill="#F79CAE" stroke="none" />
        <path d="M14.6637 15.2455C14.6637 15.2455 14.3145 12.0189 14.4542 9.14303C14.4542 9.14303 18.7136 12.7905 24.0205 9.63403C29.3273 6.40746 29.1178 7.9506 29.1877 9.00274C29.2575 10.125 30.2351 13.071 30.2351 13.071C30.2351 13.071 29.7463 11.598 30.9333 10.6862C32.1204 9.77431 33.098 7.4596 31.4221 7.03874C29.8161 6.61789 31.0032 6.26717 30.9333 5.07474C30.8635 3.88231 29.6066 3.46146 28.6989 3.81217C27.9308 4.09274 27.2325 2.5496 26.1851 1.42731C23.5317 -1.3784 19.0627 0.234884 17.9455 3.81217C17.5964 4.86431 15.0128 1.14674 11.8007 5.07474C8.93785 8.58189 12.499 9.35346 12.8482 11.4577C13.1275 13.562 13.2671 14.8246 14.6637 15.2455Z" id="Path" fill="#4D2768" stroke="none" />
        <path d="M32.3997 33.4125L24.9282 37.5509L17.2472 33.8333L16.1998 44.8458L32.679 46.3889C32.679 46.5292 35.4023 33.202 32.3997 33.4125Z" id="Path" fill="#F5B315" stroke="none" />
        <path d="M32.3299 33.2722L24.8584 37.621L17.3171 33.9035L15.6412 34.0438L21.367 40.076L24.9282 38.0419L28.3497 39.9358L33.5169 33.3423L32.3299 33.2722Z" id="Path" fill="#FFFFFF" stroke="none" />
      </g>
      <path d="M62.0063 31.0032C62.0063 35.7027 60.9589 40.1217 59.0736 44.1199C58.3055 45.8033 57.3977 47.4166 56.3503 48.8896C54.7443 51.1342 52.9288 53.1683 50.834 54.8517C45.4573 59.3409 38.5445 62.0063 31.0032 62.0063C28.3497 62.0063 25.7661 61.6556 23.2524 61.0243C21.4369 60.5333 19.6912 59.902 18.0153 59.1305C15.7111 58.0783 13.5464 56.6754 11.5913 55.1323C4.53875 49.4507 0.0698269 40.753 0.0698269 31.0032C0.0698269 13.8883 13.9654 0 31.073 0C48.1108 -3.98716e-14 62.0063 13.8883 62.0063 31.0032Z" id="Path" fill="none" fill-rule="evenodd" stroke="none" />
    </g>
    <g id="Group" transform="translate(148.23383 95.237816)">
      <path d="M22.2835 44.567C34.5904 44.567 44.567 34.5904 44.567 22.2835C44.567 9.97667 34.5904 0 22.2835 0C9.97667 0 0 9.97667 0 22.2835C0 34.5904 9.97667 44.567 22.2835 44.567Z" id="Oval" fill="#D9ECFF" stroke="none" />
      <g id="Group" transform="translate(3.4709527 6.963599)">
        <path d="M13.5367 5.91906C13.5367 5.91906 12.9119 6.40651 13.5367 8.35632C14.1615 10.3061 14.5086 5.77979 14.3697 5.77979C14.2309 5.84942 13.5367 5.91906 13.5367 5.91906Z" id="Path" fill="#181E51" stroke="none" />
        <path d="M36.0285 29.456C34.6401 31.1969 32.9741 32.6593 31.0997 33.9127C30.8221 34.052 30.6138 34.2609 30.3361 34.4002L27.4205 32.1022L22.3529 28.1329C20.9646 27.158 20.7563 25.1386 21.9364 23.8851L23.8107 21.9353C24.2967 21.4479 24.9909 21.1693 25.6156 21.0997L25.6156 21.0997C26.2404 21.0301 26.8652 21.239 27.3511 21.5872C27.4899 21.6568 27.5594 21.7961 27.6982 21.8657L36.0285 29.456Z" id="Path" fill="#1F83FF" stroke="none" />
        <path d="M12.2872 27.0884L12.1483 27.2277L4.99817 32.7986C4.7205 32.5896 4.44282 32.3111 4.16514 32.1022C3.40153 31.4058 2.63792 30.7095 2.01315 29.9435C1.24954 29.1078 0.555352 28.1329 0 27.2277L5.62294 22.1442L6.1783 21.6568L6.87249 21.0301C7.01132 20.8908 7.21958 20.7515 7.35842 20.6123C7.35842 20.6123 7.35842 20.6123 7.35842 20.6123C7.84435 20.3337 8.39971 20.1944 8.95506 20.2641L8.95506 20.2641C9.57983 20.3337 10.2046 20.6123 10.76 21.0997L10.9682 21.3086L12.0095 22.3532L12.3566 22.7013L12.3566 22.7013L12.6343 22.9799C12.9814 23.3977 13.259 23.8155 13.3979 24.303C13.3979 24.3726 13.3979 24.4422 13.4673 24.5119L13.4673 24.5119C13.5367 25.4171 13.1202 26.4617 12.2872 27.0884Z" id="Path" fill="#1F83FF" stroke="none" />
        <path d="M11.8012 9.6794C11.9401 8.84377 12.7037 8.28668 13.4673 8.42595C14.3003 8.56523 14.8557 9.26159 14.7168 10.0972C14.578 10.9328 13.8144 11.4899 13.0508 11.3507C12.2872 11.2114 11.7318 10.4454 11.8012 9.6794Z" id="Path" fill="#FDBBA4" stroke="none" />
        <path d="M13.6756 9.19195C13.6061 9.19195 12.7731 9.40086 12.3566 9.95795C12.2872 10.0276 12.3566 10.0972 12.3566 10.0972C12.3566 10.0972 12.426 10.0972 12.426 10.0972C12.4954 10.0972 12.4954 10.0972 12.5648 10.0276C12.6343 9.95795 12.7731 9.81868 12.8425 9.74904C12.9119 9.88831 13.0508 10.1669 13.3285 10.2365C13.3285 10.2365 13.3285 10.2365 13.3285 10.2365C13.3979 10.2365 13.4673 10.2365 13.4673 10.1669C13.4673 10.0972 13.4673 10.0276 13.3979 10.0276C13.1896 9.95795 13.1202 9.74904 13.0508 9.60977C13.3979 9.40086 13.745 9.33122 13.745 9.33122C13.8144 9.33122 13.8838 9.26159 13.8144 9.19195C13.8144 9.26159 13.745 9.19195 13.6756 9.19195Z" id="Path" fill="#F47991" stroke="none" />
        <path d="M21.1728 20.9604C20.8257 21.9353 20.8951 23.6066 18.049 24.7904C15.5499 25.835 13.3285 24.9993 12.2872 23.1888C11.7318 22.2835 11.593 20.3337 12.8425 19.4284C13.3285 19.0803 13.6756 18.5928 13.9532 18.1054C14.7863 16.4341 14.7863 14.2057 14.7863 14.2057L20.8951 14.4146C20.8951 14.4146 20.6869 15.6681 20.6175 17.2697C20.6175 17.4786 20.6175 17.6875 20.6175 17.8965C20.548 19.7766 21.1728 20.9604 21.1728 20.9604Z" id="Path" fill="#FDBBA4" stroke="none" />
        <g id="Group" transform="translate(13.467297 14.205742)" opacity="0.25">
          <g id="Group">
            <path d="M7.21958 2.7158C5.97004 3.27289 2.84618 5.36197 0 4.80488C1.4578 3.06398 1.38838 0 1.38838 0L7.49726 0.208908C7.42784 0.208908 7.289 1.18381 7.21958 2.7158Z" id="Path" fill="#000000" stroke="none" />
          </g>
        </g>
        <path d="M12.8425 17.0608L20.8951 18.175C21.1728 18.2446 21.4505 18.0357 21.4505 17.7572L23.0471 6.12797L13.9532 4.87452L12.3566 16.5037C12.3566 16.7823 12.5648 16.9912 12.8425 17.0608Z" id="Path" fill="#FDBBA4" stroke="none" />
        <path d="M24.019 11.3507C24.1578 10.515 23.5331 9.74904 22.7695 9.6794C22.0058 9.60977 21.1728 10.1669 21.1034 10.9328C20.9646 11.7685 21.5893 12.5345 22.3529 12.6041C23.186 12.7434 23.9496 12.1863 24.019 11.3507Z" id="Path" fill="#FDBBA4" stroke="none" />
        <path d="M22.3529 10.3758C22.3529 10.3758 23.186 10.7936 23.4636 11.4899C23.4636 11.5596 23.4636 11.6292 23.3942 11.6292C23.3942 11.6292 23.3248 11.6292 23.3248 11.6292C23.2554 11.6292 23.2554 11.6292 23.2554 11.5596C23.186 11.4203 23.1165 11.3507 23.0471 11.2114C22.9777 11.3507 22.7694 11.5596 22.4224 11.5596C22.4224 11.5596 22.4224 11.5596 22.4224 11.5596C22.3529 11.5596 22.2835 11.4899 22.2835 11.4203C22.2835 11.3507 22.3529 11.281 22.4224 11.281C22.6306 11.281 22.7694 11.0721 22.8389 11.0025C22.5612 10.7239 22.2141 10.515 22.2141 10.515C22.1447 10.515 22.1447 10.3758 22.1447 10.3758C22.2141 10.3758 22.2835 10.3758 22.3529 10.3758Z" id="Path" fill="#F47991" stroke="none" />
        <path d="M18.1184 14.4843L15.9664 14.345C15.9664 14.345 15.9664 15.877 17.0077 15.7377C18.049 15.6681 18.1184 14.4843 18.1184 14.4843Z" id="Path" fill="#FFFFFF" stroke="none" />
        <path d="M27.4899 35.8625C25.5462 36.6982 23.4636 37.2553 21.3117 37.4642C20.4786 37.5338 19.6456 37.6034 18.8126 37.6034C16.3135 37.6034 13.8838 37.1856 11.6624 36.4196C9.23273 35.584 7.01132 34.3305 4.99817 32.7986C4.7205 32.5896 4.44282 32.3111 4.16514 32.1022C4.78992 27.2973 5.34527 23.4673 5.69236 22.4228C5.8312 22.0746 5.97004 21.7961 6.10888 21.5872C6.45597 21.0997 6.87249 20.7515 7.35842 20.5426C7.35842 20.5426 7.35842 20.5426 7.35842 20.5426C7.91377 20.2641 8.46913 20.1944 8.95506 20.1944L8.95506 20.1944C9.71867 20.1248 10.274 20.2641 10.274 20.2641L11.7318 20.2641L11.7318 20.2641L12.2872 20.2641L12.2872 20.2641L12.4954 20.4033L16.3135 23.6762L20.9646 20.6123L21.1034 20.5426C21.1034 20.5426 21.1034 20.5426 21.1034 20.5426C21.1728 20.5426 21.3811 20.5426 21.7282 20.6123C22.7 20.6819 24.4355 20.8908 25.7545 21.1693L25.7545 21.1693C26.6569 21.3783 27.2817 21.5872 27.3511 21.8657C27.4899 23.3281 27.5594 27.2973 27.5594 32.1718C27.4205 33.3556 27.4899 34.6091 27.4899 35.8625Z" id="Path" fill="#FFFFFF" stroke="none" />
        <path d="M15.6193 12.9523C15.5499 13.3701 14.8557 13.6487 14.1615 13.5094C13.4673 13.3701 12.9119 12.8827 12.9814 12.4648C13.0508 12.047 13.745 11.7685 14.4392 11.9078C15.2028 12.047 15.7581 12.5345 15.6193 12.9523Z" id="Path" fill="#F79CAE" stroke="none" />
        <path d="M21.9364 14.2057C21.867 14.6236 21.1728 14.9021 20.4786 14.7628C19.7844 14.6236 19.2291 14.1361 19.2985 13.7183C19.3679 13.3005 20.0621 13.0219 20.7563 13.1612C21.5199 13.3005 22.0058 13.7183 21.9364 14.2057Z" id="Path" fill="#F79CAE" stroke="none" />
        <path d="M22.6306 9.60977C22.6306 9.60977 23.1165 6.05833 21.1034 6.33688C19.0902 6.68506 12.4954 7.31178 11.593 4.59598C10.6905 1.94981 12.6343 1.11418 12.6343 1.11418C12.6343 1.11418 12.2178 2.01944 13.1896 2.43726C13.1896 2.43726 12.426 0.417816 14.5086 0C14.5086 0 14.3003 1.11418 16.1746 1.32308C18.049 1.53199 20.4092 -0.417816 22.7695 1.18381C25.1297 2.7158 23.9496 5.43161 23.9496 5.43161C23.9496 5.43161 26.3098 7.17251 22.6306 9.60977Z" id="Path" fill="#4D2768" stroke="none" />
        <path d="M12.4954 19.8463C12.4954 19.8463 16.2441 22.1442 20.8951 20.1944L22.9083 21.239L15.3416 26.4617L10.76 21.239L11.3847 20.2641L12.4954 19.8463Z" id="Path" fill="#FDBBA4" stroke="none" />
        <path d="M12.4954 19.8463L12.4954 19.8463L12.4954 20.4033L12.3566 22.5621L12.3566 22.5621L12.3566 22.9799L12.3566 23.1888L12.3566 23.1888L12.1483 27.2277L11.6624 36.4196C9.23273 35.584 7.01132 34.3305 4.99817 32.7985C4.7205 32.5896 4.44282 32.3111 4.16514 32.1022C3.40153 31.4058 2.63792 30.7095 2.01315 29.9435C3.12386 27.6455 4.85933 24.0244 5.62294 22.1442C5.62294 22.1442 5.62294 22.0746 5.62294 22.0746C6.80307 19.2195 12.4954 19.8463 12.4954 19.8463Z" id="Path" fill="#1F83FF" stroke="none" />
        <path d="M31.0997 33.9127C30.8221 34.052 30.6138 34.2609 30.3361 34.4002C29.4337 34.9573 28.4618 35.4447 27.4205 35.8625C25.4768 36.6982 23.3942 37.2553 21.2422 37.4642L20.8951 22.7013L20.8951 22.005L20.8951 22.005L20.8951 20.6819L20.8951 20.2641L20.8951 20.2641C21.9364 20.2641 27.1429 21.3086 27.1429 21.3086L27.3511 21.7264L30.7526 27.4366L31.0997 33.9127Z" id="Path" fill="#1F83FF" stroke="none" />
      </g>
      <path d="M44.567 22.2835C44.567 27.6455 42.6927 32.5896 39.4994 36.4196C38.1111 38.1605 36.445 39.6229 34.5707 40.8763C34.293 41.0156 34.0848 41.2245 33.8071 41.3638C32.9046 41.9209 31.9328 42.4083 30.8915 42.8261C28.9477 43.6618 26.8652 44.2189 24.7132 44.4278C23.8802 44.4974 23.0471 44.567 22.2141 44.567C19.715 44.567 17.2853 44.1492 15.0639 43.3832C12.6343 42.5476 10.4129 41.2941 8.39971 39.7622C8.12203 39.5532 7.84435 39.2747 7.56668 39.0658C6.80307 38.3694 6.03946 37.6731 5.41469 36.9071C4.65108 36.0714 3.95689 35.0965 3.40153 34.1913C1.24954 30.7791 1.57841e-13 26.6706 1.57841e-13 22.3532C1.57841e-13 10.0276 9.99634 0.069636 22.2835 0.069636C34.5707 0.069636 44.567 9.95795 44.567 22.2835Z" id="Path" fill="none" fill-rule="evenodd" stroke="none" />
    </g>
    <path d="M146.296 96.2067C147.901 96.2067 149.203 94.9054 149.203 93.3001C149.203 91.6949 147.901 90.3936 146.296 90.3936C144.691 90.3936 143.39 91.6949 143.39 93.3001C143.39 94.9054 144.691 96.2067 146.296 96.2067Z" id="Oval" fill="#D9ECFF" stroke="none" />
    <path d="M235.915 68.1101C238.858 68.1101 241.243 65.7243 241.243 62.7814C241.243 59.8384 238.858 57.4527 235.915 57.4527C232.972 57.4527 230.586 59.8384 230.586 62.7814C230.586 65.7243 232.972 68.1101 235.915 68.1101Z" id="Oval" fill="#D9ECFF" stroke="none" />
    <path d="M144.358 124.303C145.429 124.303 146.296 123.436 146.296 122.366C146.296 121.295 145.429 120.428 144.358 120.428C143.288 120.428 142.421 121.295 142.421 122.366C142.421 123.436 143.288 124.303 144.358 124.303Z" id="Oval" fill="#D9ECFF" stroke="none" />
    <g id="Group" transform="translate(23.252365 105.89515)">
      <path d="M2.8849 5.81309C4.47818 5.81309 5.76979 4.51179 5.76979 2.90655C5.76979 1.3013 4.47818 0 2.8849 0C1.29161 0 0 1.3013 0 2.90655C0 4.51179 1.29161 5.81309 2.8849 5.81309Z" id="Oval" fill="#F5B315" stroke="none" />
      <path d="M12.595 5.81309C14.1883 5.81309 15.4799 4.51179 15.4799 2.90655C15.4799 1.3013 14.1883 0 12.595 0C11.0017 0 9.71014 1.3013 9.71014 2.90655C9.71014 4.51179 11.0017 5.81309 12.595 5.81309Z" id="Oval" fill="#F5B315" stroke="none" />
      <path d="M22.3052 5.81309C23.8985 5.81309 25.1901 4.51179 25.1901 2.90655C25.1901 1.3013 23.8985 0 22.3052 0C20.7119 0 19.4203 1.3013 19.4203 2.90655C19.4203 4.51179 20.7119 5.81309 22.3052 5.81309Z" id="Oval" fill="#F5B315" stroke="none" />
    </g>
    <g id="Group" transform="translate(188.92548 84.58048)">
      <path d="M1.86068 3.87539C2.8883 3.87539 3.72135 3.00786 3.72135 1.9377C3.72135 0.867537 2.8883 0 1.86068 0C0.833053 0 0 0.867537 0 1.9377C0 3.00786 0.833053 3.87539 1.86068 3.87539Z" id="Oval" fill="#1F83FF" stroke="none" />
      <path d="M8.20076 3.87539C9.22838 3.87539 10.0614 3.00786 10.0614 1.9377C10.0614 0.867537 9.22838 0 8.20076 0C7.17313 0 6.34008 0.867537 6.34008 1.9377C6.34008 3.00786 7.17313 3.87539 8.20076 3.87539Z" id="Oval" fill="#1F83FF" stroke="none" />
      <path d="M14.6097 3.87539C15.6374 3.87539 16.4704 3.00786 16.4704 1.9377C16.4704 0.867537 15.6374 0 14.6097 0C13.5821 0 12.7491 0.867537 12.7491 1.9377C12.7491 3.00786 13.5821 3.87539 14.6097 3.87539Z" id="Oval" fill="#1F83FF" stroke="none" />
    </g>
    <g id="Group-19" transform="translate(198.5807 25.480717)">
      <path d="M22.1515 0L3.21473 0C1.45667 0 0 1.44548 0 3.19004L0 12.3115C0 14.0561 1.45667 15.5016 3.21473 15.5016L22.1515 15.5016C23.9095 15.5016 25.3662 14.0561 25.3662 12.3115L25.3662 3.19004C25.3662 1.39564 23.9598 0 22.1515 0ZM22.1515 14.4548L3.21473 14.4548C2.56174 14.4548 1.95898 14.1558 1.60736 13.7072C1.35621 13.458 1.20552 13.1589 1.10506 12.81C1.05483 12.6106 1.0046 12.4611 1.0046 12.2617L1.0046 3.14019C1.0046 2.5919 1.20552 2.09346 1.55713 1.69471C1.75805 1.44548 2.05944 1.24611 2.41105 1.09657C2.6622 0.996886 2.91335 0.947042 3.21473 0.947042L22.1515 0.947042C22.5533 0.947042 22.9049 1.04673 23.2063 1.24611C23.5077 1.39564 23.7589 1.64486 23.9598 1.94393C24.2109 2.29284 24.3114 2.69159 24.3114 3.14019L24.3114 12.2617C24.3114 12.3614 24.3114 12.4611 24.3114 12.5109C24.2612 12.8598 24.1105 13.2087 23.9095 13.5078C23.5579 14.1059 22.9049 14.4548 22.1515 14.4548Z" id="Shape" fill="#1F83FF" stroke="none" />
      <path d="M12.4564 11.2739L0.704617 1.44893L1.35749 0.704617L12.4564 9.98373L23.3041 0.803859L23.957 1.54817L12.4564 11.2739Z" id="Path" fill="#1F83FF" stroke="none" />
      <path d="M0.880184 14.2866L8.95693 7.45992L9.61335 8.23653L1.5366 15.0632L0.880184 14.2866Z" id="Rectangle" fill="#1F83FF" stroke="none" />
      <path d="M16.9477 7.21712L17.63 6.46319L24.6416 12.809L23.9593 13.5629L16.9477 7.21712Z" id="Rectangle" fill="#1F83FF" stroke="none" />
    </g>
    <g id="Group-17" transform="translate(121.10607 40.982296)">
      <path d="M0.999 0L16.4403 0Q16.5387 0 16.6352 0.0191955Q16.7317 0.038391 16.8226 0.0760443Q16.9135 0.113698 16.9953 0.168362Q17.0771 0.223026 17.1467 0.2926Q17.2162 0.362175 17.2709 0.443985Q17.3256 0.525796 17.3632 0.616699Q17.4009 0.707602 17.4201 0.804105Q17.4393 0.900607 17.4393 0.999L17.4393 9.65833Q17.4393 9.75673 17.4201 9.85323Q17.4009 9.94973 17.3632 10.0406Q17.3256 10.1315 17.2709 10.2133Q17.2162 10.2952 17.1467 10.3647Q17.0771 10.4343 16.9953 10.489Q16.9135 10.5436 16.8226 10.5813Q16.7317 10.6189 16.6352 10.6381Q16.5387 10.6573 16.4403 10.6573L0.999 10.6573Q0.900607 10.6573 0.804105 10.6381Q0.707602 10.6189 0.616699 10.5813Q0.525796 10.5436 0.443985 10.489Q0.362175 10.4343 0.2926 10.3647Q0.223026 10.2952 0.168362 10.2133Q0.113698 10.1315 0.0760443 10.0406Q0.038391 9.94973 0.0191955 9.85323Q0 9.75673 0 9.65833L0 0.999Q0 0.900607 0.0191955 0.804105Q0.038391 0.707602 0.0760443 0.616699Q0.113698 0.525796 0.168362 0.443985Q0.223026 0.362175 0.2926 0.2926Q0.362175 0.223026 0.443985 0.168362Q0.525796 0.113698 0.616699 0.0760443Q0.707602 0.038391 0.804105 0.0191955Q0.900607 0 0.999 0Z" id="Rectangle" fill="#F5B315" fill-rule="evenodd" stroke="none" />
      <path d="M8.9331 8.71964L0.25234 1.29062C-0.0322755 0.9964 -0.103429 0.555073 0.181186 0.260854C0.465801 -0.0333645 0.892723 -0.106919 1.17734 0.187299L8.9331 6.80722L16.2619 0.334409C16.5466 0.0401901 17.0446 0.113745 17.2581 0.407963C17.5427 0.702182 17.4715 1.21706 17.1869 1.43773L8.9331 8.71964Z" id="Path" fill="#FFFFFF" stroke="none" />
      <path d="M0.744333 10.6573C0.532602 10.6573 0.320871 10.5894 0.179717 10.3855C-0.102591 10.1137 -0.0320139 9.63805 0.250294 9.43419L5.61415 5.01728C5.89645 4.74547 6.39049 4.81342 6.60222 5.08523C6.88453 5.35704 6.81395 5.83271 6.53165 6.03656L1.16779 10.4535C1.09722 10.5894 0.885487 10.6573 0.744333 10.6573Z" id="Path" fill="#FFFFFF" stroke="none" />
      <path d="M16.7633 10.6573C16.6281 10.6573 16.4254 10.5864 16.2902 10.4447L11.829 6.0494C11.5586 5.76583 11.5586 5.34048 11.829 5.05692C12.0993 4.77335 12.5049 4.77335 12.7753 5.05692L17.2365 9.45218C17.5069 9.73575 17.5069 10.1611 17.2365 10.4447C17.1013 10.5156 16.8985 10.6573 16.7633 10.6573Z" id="Path" fill="#FFFFFF" stroke="none" />
    </g>
    <g id="Group" transform="translate(205.39589 102.9886)">
      <path d="M41.9941 11.4172L0.917519 11.4172C0.564627 11.4172 0.282313 11.1317 0.282313 10.775L0.282313 0.642216C0.282313 0.285429 0.564627 0 0.917519 0L41.9941 0C42.347 0 42.6293 0.285429 42.6293 0.642216L42.6293 10.775C42.6293 11.1317 42.347 11.4172 41.9941 11.4172Z" id="Path" fill="#1F83FF" stroke="none" />
      <path d="M5.57569 10.6322C5.57569 10.6322 6.63437 14.5569 0 16.2695C0 16.2695 7.62246 18.1248 10.7279 10.5609C13.8334 2.99701 5.57569 10.6322 5.57569 10.6322Z" id="Path" fill="#1F83FF" stroke="none" />
      <path d="M36.1361 4.13872L4.94049 4.13872C4.79933 4.13872 4.72875 4.06737 4.72875 3.92465L4.72875 3.13972C4.72875 2.99701 4.79933 2.92565 4.94049 2.92565L36.1361 2.92565C36.2773 2.92565 36.3479 2.99701 36.3479 3.13972L36.3479 3.92465C36.3479 4.06737 36.2773 4.13872 36.1361 4.13872Z" id="Path" fill="#FFFFFF" stroke="none" />
      <g id="Group" transform="translate(4.728751 6.564873)" opacity="0.46">
        <g id="Group">
          <path d="M19.2679 1.21307L0.211735 1.21307C0.0705784 1.21307 0 1.14172 0 0.999002L0 0.214072C0 0.0713573 0.0705784 0 0.211735 0L19.2679 0C19.4091 0 19.4796 0.0713573 19.4796 0.214072L19.4796 0.999002C19.4796 1.14172 19.3385 1.21307 19.2679 1.21307Z" id="Path" fill="#FFFFFF" stroke="none" />
        </g>
      </g>
    </g>
    <g id="Group" transform="translate(0 56.48387)">
      <path d="M0.916429 16.0745L59.7791 16.0745C60.2685 16.0745 60.6879 15.657 60.6879 15.1699L60.6879 0.904628C60.6879 0.417521 60.2685 0 59.7791 0L0.916429 0C0.427072 0 0.00762268 0.417521 0.00762268 0.904628L0.00762268 15.1699C-0.0622855 15.7266 0.357164 16.0745 0.916429 16.0745Z" id="Path" fill="#F5B315" stroke="none" />
      <path d="M53.0679 15.0307C53.0679 15.0307 51.5299 20.5977 61.0375 22.9636C61.0375 22.9636 50.1318 25.6079 45.6577 14.8916C41.1835 4.17521 53.0679 15.0307 53.0679 15.0307Z" id="Path" fill="#F5B315" stroke="none" />
      <path d="M9.09569 5.63653L53.9767 5.63653C54.1166 5.63653 54.1865 5.56694 54.1865 5.42777L54.1865 4.66231C54.1865 4.52314 54.1166 4.45355 53.9767 4.45355L9.09569 4.45355C8.95587 4.45355 8.88596 4.52314 8.88596 4.66231L8.88596 5.42777C8.95587 5.56694 9.02578 5.63653 9.09569 5.63653Z" id="Path" fill="#FFFFFF" stroke="none" />
      <g id="Group" transform="translate(26.363005 9.6725645)" opacity="0.53">
        <g id="Group">
          <path d="M0.209725 1.18298L27.6137 1.18298C27.7535 1.18298 27.8235 1.11339 27.8235 0.974215L27.8235 0.20876C27.8235 0.0695868 27.7535 0 27.6137 0L0.209725 0C0.0699082 0 0 0.0695868 0 0.20876L0 0.974215C0 1.0438 0.139816 1.18298 0.209725 1.18298Z" id="Path" fill="#FFFFFF" stroke="none" />
        </g>
      </g>
    </g>
    <g id="Group" transform="translate(244.57692 130.49838)">
      <path d="M15.4686 7.78382C15.4868 3.5214 12.0462 0.0512524 7.78378 0.0330296C3.52136 0.0148067 0.051217 3.45541 0.0329943 7.71783C0.0147717 11.9802 3.45537 15.4504 7.71779 15.4686C11.9802 15.4868 15.4504 12.0462 15.4686 7.78382Z" id="Oval" fill="#3146C7" stroke="none" />
      <g id="Group" transform="translate(4.767101 4.5471077)">
        <path d="M4.23234 3.17425C3.92114 3.48546 3.48546 3.60994 2.98753 3.60994C2.48961 3.60994 2.05393 3.42322 1.74273 3.17425C0.746883 3.67218 0 4.66802 0 5.85059C0 5.97507 0.0622403 6.03731 0.186721 6.03731L5.72611 6.03731C5.85059 6.03731 5.91283 5.97507 5.91283 5.85059C5.91283 4.73026 5.22818 3.67218 4.23234 3.17425Z" id="Path" fill="#FFFFFF" stroke="none" />
        <path d="M2.98753 7.0759e-14C2.11617 7.0759e-14 1.43153 0.684643 1.43153 1.55601C1.43153 2.42737 2.11617 3.11201 2.98753 3.11201C3.8589 3.11201 4.54354 2.42737 4.54354 1.55601C4.54354 0.684643 3.8589 7.0759e-14 2.98753 7.0759e-14Z" id="Path" fill="#FFFFFF" stroke="none" />
      </g>
    </g>
    <g id="Group" transform="translate(46.50473 20.15205)">
      <g id="Group">
        <path d="M1.45327 14.8234L53.2867 14.8234C54.0618 14.8234 54.7399 14.1452 54.7399 13.3701L54.7399 1.45327C54.7399 0.678194 54.0618 0 53.2867 0L1.45327 0C0.678194 0 0 0.678194 0 1.45327L0 13.467C0 14.1452 0.678194 14.8234 1.45327 14.8234Z" id="Path" fill="#FDD483" stroke="none" />
        <g id="Group" transform="translate(9.010292 4.747358)">
          <path d="M0 0.484424L37.6882 0.484424" id="Path" fill="none" fill-rule="evenodd" stroke="#FFFFFF" stroke-width="0.5969" />
          <path d="M0 4.06916L16.9548 4.06916" id="Path" fill="none" fill-rule="evenodd" stroke="#FFFFFF" stroke-width="0.5969" />
        </g>
      </g>
      <path d="M49.1206 13.5639L49.1206 18.0206C49.1206 18.505 48.5393 18.8925 48.0549 18.505L41.7574 13.467L49.1206 13.467L49.1206 13.5639Z" id="Path" fill="#FDD483" stroke="none" />
    </g>
    <g id="Group" transform="translate(143.38959 0)">
      <g id="Group" transform="translate(5.512159 5.757144)">
        <path d="M22.1099 21.6199L2.02113 21.6199C0.918693 21.6199 0 20.7012 0 19.5988L0 2.02113C0 0.918693 0.918693 0 2.02113 0L22.1099 0C23.2123 0 24.131 0.918693 24.131 2.02113L24.131 19.5375C24.131 20.7012 23.2123 21.6199 22.1099 21.6199Z" id="Path" fill="#3146C7" stroke="none" />
        <path d="M12.0655 19.3538L18.1901 25.1109C18.5576 25.4172 19.1088 25.1722 19.1088 24.6822L19.1088 17.5777L12.0655 19.3538Z" id="Path" fill="#3146C7" stroke="none" />
      </g>
      <g id="Group">
        <path d="M5.6959 11.3918C8.84165 11.3918 11.3918 8.84165 11.3918 5.6959C11.3918 2.55014 8.84165 0 5.6959 0C2.55014 0 0 2.55014 0 5.6959C0 8.84165 2.55014 11.3918 5.6959 11.3918Z" id="Oval" fill="#70C0F8" stroke="none" />
        <path d="M3.1848 6.00213L5.26717 7.53328L7.83952 4.34848" id="Path" fill="none" fill-rule="evenodd" stroke="#FFFFFF" stroke-width="1.597" stroke-linecap="round" stroke-linejoin="round" />
      </g>
      <path d="M22.6611 15.1891L21.8036 15.0666C21.6812 14.6991 21.5587 14.3316 21.3749 14.0254L21.8649 13.3517C22.0486 13.1067 21.9874 12.7392 21.8036 12.5555L21.3137 12.0655C21.0687 11.8205 20.7625 11.8205 20.5175 12.0043L19.8438 12.4942C19.5375 12.3105 19.1701 12.188 18.8026 12.0655L18.6801 11.2081C18.6188 10.9018 18.3739 10.6568 18.0676 10.6568L17.3327 10.6568C17.0264 10.6568 16.7202 10.9018 16.7202 11.2081L16.5977 12.0655C16.2302 12.188 15.8628 12.3105 15.5565 12.4942L14.8828 12.0043C14.6378 11.8205 14.2704 11.8818 14.0866 12.0655L13.5967 12.5555C13.3517 12.8005 13.3517 13.1067 13.5354 13.3517L14.0254 14.0254C13.8416 14.3316 13.7192 14.6991 13.5967 15.0666L12.7392 15.1891C12.433 15.2503 12.188 15.4953 12.188 15.8015L12.188 16.5365C12.188 16.8427 12.433 17.1489 12.7392 17.1489L13.5967 17.2714C13.7192 17.6389 13.8416 18.0064 14.0254 18.3126L13.5354 18.9863C13.3517 19.2313 13.4129 19.5988 13.5967 19.7825L14.0866 20.2725C14.3316 20.5175 14.6378 20.5175 14.8828 20.3337L15.5565 19.8438C15.8628 20.0275 16.2302 20.15 16.5977 20.2725L16.7202 21.1299C16.7815 21.4362 17.0264 21.6812 17.3327 21.6812L18.0676 21.6812C18.3739 21.6812 18.6801 21.4362 18.6801 21.1299L18.8026 20.2725C19.1701 20.15 19.5375 20.0275 19.8438 19.8438L20.5175 20.3337C20.7625 20.5175 21.1299 20.4562 21.3137 20.2725L21.8036 19.7825C22.0486 19.5375 22.0486 19.2313 21.8649 18.9863L21.3749 18.3126C21.5587 18.0064 21.6812 17.6389 21.8036 17.2714L22.6611 17.1489C22.9673 17.0877 23.2123 16.8427 23.2123 16.5365L23.2123 15.8015C23.2123 15.4953 22.9673 15.2503 22.6611 15.1891ZM17.5777 18.0676C16.5365 18.0676 15.679 17.2102 15.679 16.169C15.679 15.1278 16.5365 14.2704 17.5777 14.2704C18.6188 14.2704 19.4763 15.1278 19.4763 16.169C19.4763 16.169 19.4763 16.169 19.4763 16.169C19.4763 17.2102 18.6188 18.0676 17.5777 18.0676Z" id="Shape" fill="#FFFFFF" stroke="none" />
    </g>
  </g>
</svg>