<?xml version="1.0" encoding="utf-8"?>
<svg width="31.975586px" height="25px" viewBox="0 0 31.975586 25" version="1.1" xmlns:xlink="http://www.w3.org/1999/xlink" xmlns="http://www.w3.org/2000/svg">
  <g id="Group">
    <path d="M11.2721 4.24355C12.9438 2.95763 14.7441 1.8003 17.0587 0C7.92867 1.8003 0.984669 8.10133 0.213114 14.7881C-0.301258 18.5173 -0.172665 22.2465 3.9423 24.1754C7.02852 25.5899 9.72896 24.947 11.915 22.3751C15.0013 18.6459 13.3296 15.4311 10.5005 12.7307C7.02852 9.38726 8.05726 6.8154 11.2721 4.24355ZM29.6608 14.1452C25.0315 9.77303 25.9316 6.30104 31.9755 2.82904C23.1026 3.98637 16.673 12.2163 18.0875 19.0317C18.859 21.9893 20.4021 24.4326 23.8741 24.947C26.5746 25.2041 28.8892 24.5612 30.3038 22.2465C32.1041 19.4175 32.1041 16.3313 29.6608 14.1452Z" id="Combined-Shape" fill="#1D3A89" fill-rule="evenodd" stroke="none" />
  </g>
</svg>