<?xml version="1.0" encoding="utf-8"?>
<svg width="31.975586px" height="25px" viewBox="0 0 31.975586 25" version="1.1" xmlns:xlink="http://www.w3.org/1999/xlink" xmlns="http://www.w3.org/2000/svg">
  <g id="Group-2">
    <path d="M2.31467 10.8548C6.944 15.227 6.04385 18.699 0 22.171C8.87289 21.0136 15.3025 12.7837 13.888 5.9683C13.1164 3.01067 11.5733 0.567416 8.10133 0.0530461C5.40089 -0.204139 3.08622 0.438824 1.6717 2.75349C-0.128593 5.58253 -0.128593 8.66875 2.31467 10.8548ZM20.7034 20.7564C19.0317 22.0424 17.2314 23.1997 14.9167 25C24.0468 23.1997 30.9908 16.8987 31.7624 10.2119C32.2767 6.48267 32.1481 2.75349 28.0332 0.824601C24.947 -0.589917 22.2465 0.0530461 20.0604 2.6249C16.9742 6.35408 18.6459 9.56889 21.475 12.2693C24.947 15.6127 23.9182 18.1846 20.7034 20.7564Z" id="Combined-Shape" fill="#1D3A89" fill-rule="evenodd" stroke="none" />
  </g>
</svg>