<?xml version="1.0" encoding="UTF-8"?>
<svg width="40px" height="40px" viewBox="0 0 40 40" version="1.1" xmlns="http://www.w3.org/2000/svg" xmlns:xlink="http://www.w3.org/1999/xlink">
    <title>facebook-2</title>
    <g id="SẢN-PHẨM--(Đã-duyệt)" stroke="none" stroke-width="1" fill="none" fill-rule="evenodd">
        <g id="TIN-TỨC" transform="translate(-1214.000000, -4247.000000)" fill-rule="nonzero">
            <g id="Group-4" transform="translate(-1.000000, 4148.000000)">
                <g id="Group-16" transform="translate(1.000000, 0.000000)">
                    <g id="Group-11" transform="translate(1049.000000, 99.000000)">
                        <g id="facebook-2" transform="translate(165.000000, 0.000000)">
                            <path d="M40,20 C40,29.9828125 32.6859375,38.2570312 23.125,39.7570312 L23.125,25.78125 L27.7851562,25.78125 L28.671875,20 L23.125,20 L23.125,16.2484375 C23.125,14.6664062 23.9,13.125 26.384375,13.125 L28.90625,13.125 L28.90625,8.203125 C28.90625,8.203125 26.6171875,7.8125 24.4289063,7.8125 C19.8609375,7.8125 16.875,10.58125 16.875,15.59375 L16.875,20 L11.796875,20 L11.796875,25.78125 L16.875,25.78125 L16.875,39.7570312 C7.3140625,38.2570312 0,29.9828125 0,20 C0,8.9546875 8.9546875,0 20,0 C31.0453125,0 40,8.9546875 40,20 Z" id="Path" fill="#1877F2"></path>
                            <path d="M27.7851562,25.78125 L28.671875,20 L23.125,20 L23.125,16.2483594 C23.125,14.6667187 23.8998438,13.125 26.3842969,13.125 L28.90625,13.125 L28.90625,8.203125 C28.90625,8.203125 26.6175,7.8125 24.4292969,7.8125 C19.8608594,7.8125 16.875,10.58125 16.875,15.59375 L16.875,20 L11.796875,20 L11.796875,25.78125 L16.875,25.78125 L16.875,39.7569531 C17.8932813,39.9167188 18.936875,40 20,40 C21.063125,40 22.1067187,39.9167188 23.125,39.7569531 L23.125,25.78125 L27.7851562,25.78125 Z" id="Path" fill="#FFFFFF"></path>
                        </g>
                    </g>
                </g>
            </g>
        </g>
    </g>
</svg>