<?xml version="1.0" encoding="utf-8"?>
<svg width="24px" height="23.97049px" viewBox="0 0 24 23.97049" version="1.1" xmlns:xlink="http://www.w3.org/1999/xlink" xmlns="http://www.w3.org/2000/svg">
  <g id="Group-18">
    <path d="M23.3486 10.6086C23.7612 10.9414 24.0008 11.4432 24 11.9733C24.0007 12.5032 23.7616 13.0049 23.3495 13.3381L21.8148 14.5789L22.5106 16.4678C22.6964 16.9626 22.6509 17.5146 22.3864 17.9723C22.122 18.43 21.6665 18.7452 21.145 18.8314L19.1967 19.1386L18.8547 21.1221C18.7685 21.6436 18.4532 22.099 17.9955 22.3633C17.5378 22.6276 16.9858 22.6729 16.4911 22.4869L14.6495 21.7794L13.3617 23.325C13.0264 23.7336 12.5256 23.9705 11.997 23.9705C11.4683 23.9705 10.9675 23.7336 10.6322 23.325L9.39097 21.7911L7.50251 22.4869C7.00786 22.6727 6.456 22.6272 5.99842 22.3629C5.54085 22.0987 5.22564 21.6434 5.13933 21.1221L4.83122 19.173L2.84814 18.8305C2.32684 18.7444 1.87153 18.4293 1.60726 17.9717C1.34299 17.5142 1.29754 16.9624 1.4834 16.4678L2.19136 14.6258L0.645354 13.3381C0.236946 13.0027 0.00016609 12.502 0 11.9735C-0.000165915 11.445 0.236299 10.9442 0.644496 10.6086L2.17917 9.36775L1.4834 7.47887C1.29758 6.98404 1.34314 6.432 1.60756 5.97433C1.87199 5.51666 2.32749 5.20146 2.84898 5.11529L4.7973 4.808L5.13932 2.82451C5.22543 2.30301 5.54067 1.84753 5.99841 1.58323C6.45615 1.31893 7.00822 1.27363 7.50292 1.45977L9.34445 2.16726L10.6322 0.62167C10.9757 0.226745 11.4735 0 11.997 0C12.5204 0 13.0182 0.226745 13.3617 0.62167L14.6029 2.15554L16.4914 1.45977C16.986 1.27377 17.538 1.31915 17.9956 1.58344C18.4533 1.84772 18.7684 2.30311 18.8546 2.82451L19.1627 4.77371L21.1458 5.11615C21.6671 5.20227 22.1224 5.51736 22.3866 5.97488C22.6509 6.4324 22.6964 6.98424 22.5105 7.47883L21.8026 9.32082L23.3486 10.6086ZM8.84883 15.5066C9.29184 15.8389 9.83101 16.0179 10.3848 16.0165C11.18 16.0189 11.9318 15.6544 12.4223 15.0285L17.3894 8.64184C17.6802 8.26798 17.613 7.72912 17.2391 7.43827C16.8652 7.14741 16.3264 7.2147 16.0355 7.58855L11.0688 13.9752C10.7801 14.3417 10.2525 14.4125 9.87741 14.1351L7.79597 12.5736C7.55099 12.3898 7.22655 12.3507 6.94487 12.4709C6.66319 12.5912 6.46707 12.8526 6.43037 13.1566C6.39367 13.4607 6.52198 13.7613 6.76697 13.9451L8.84883 15.5066Z" id="Combined-Shape" fill="#3B80F3" fill-rule="evenodd" stroke="none" />
  </g>
</svg>