<?xml version="1.0" encoding="utf-8"?>
<svg width="40px" height="40px" viewBox="0 0 40 40" version="1.1" xmlns:xlink="http://www.w3.org/1999/xlink" xmlns="http://www.w3.org/2000/svg">
  <defs>
    <linearGradient gradientUnits="userSpaceOnUse" x1="5.857813" y1="5.857813" x2="34.142185" y2="34.142185" id="gradient_1">
      <stop offset="0%" stop-color="#21D1F7" />
      <stop offset="100%" stop-color="#2196F3" />
    </linearGradient>
  </defs>
  <g id="Group-6-Copy">
    <path d="M20 40C31.0457 40 40 31.0457 40 20C40 8.9543 31.0457 0 20 0C8.9543 0 0 8.9543 0 20C0 31.0457 8.9543 40 20 40Z" id="Oval" fill="url(#gradient_1)" stroke="none" />
    <path d="M30 24.135C27.8425 24.135 25.785 23.665 23.8875 22.7375C23.59 22.595 23.245 22.5725 22.93 22.68C22.615 22.79 22.3575 23.02 22.2125 23.3175L21.3125 25.18C18.6125 23.63 16.3725 21.3875 14.82 18.6875L16.685 17.7875C16.985 17.6425 17.2125 17.385 17.3225 17.07C17.43 16.755 17.41 16.41 17.265 16.1125C16.335 14.2175 15.865 12.16 15.865 10C15.865 9.31 15.305 8.75 14.615 8.75L10 8.75C9.31 8.75 8.75 9.31 8.75 10C8.75 21.7175 18.2825 31.25 30 31.25C30.69 31.25 31.25 30.69 31.25 30L31.25 25.385C31.25 24.695 30.69 24.135 30 24.135Z" id="Path" fill="#FAFAFA" stroke="none" />
  </g>
</svg>