<?xml version="1.0" encoding="UTF-8"?>
<svg width="40px" height="40px" viewBox="0 0 40 40" version="1.1" xmlns="http://www.w3.org/2000/svg" xmlns:xlink="http://www.w3.org/1999/xlink">
    <title>linkedin</title>
    <g id="SẢN-PHẨM--(Đã-duyệt)" stroke="none" stroke-width="1" fill="none" fill-rule="evenodd">
        <g id="TIN-TỨC" transform="translate(-1159.000000, -4247.000000)" fill-rule="nonzero">
            <g id="Group-4" transform="translate(-1.000000, 4148.000000)">
                <g id="Group-16" transform="translate(1.000000, 0.000000)">
                    <g id="Group-11" transform="translate(1049.000000, 99.000000)">
                        <g id="linkedin" transform="translate(110.000000, 0.000000)">
                            <circle id="Oval" fill="#007AB9" cx="20" cy="20" r="20"></circle>
                            <path d="M31.9498021,21.6093265 L31.9498021,29.8548968 L27.1692395,29.8548968 L27.1692395,22.1619309 C27.1692395,20.2303112 26.4790189,18.9111911 24.7481194,18.9111911 C23.4272167,18.9111911 22.6425184,19.7992798 22.295982,20.6592035 C22.1701308,20.9665229 22.1376876,21.3932761 22.1376876,21.8243075 L22.1376876,29.8545403 L17.3567685,29.8545403 C17.3567685,29.8545403 17.4209419,16.8251988 17.3567685,15.4764876 L22.1380441,15.4764876 L22.1380441,17.5139934 C22.1284181,17.5300367 22.1148704,17.5457236 22.106314,17.5610539 L22.1380441,17.5610539 L22.1380441,17.5139934 C22.7733609,16.5364184 23.9063781,15.1388641 26.4465756,15.1388641 C29.5917858,15.1388641 31.9498021,17.1938394 31.9498021,21.6093265 L31.9498021,21.6093265 Z M12.3555207,8.54575921 C10.7201683,8.54575921 9.65025491,9.61923776 9.65025491,11.0296267 C9.65025491,12.4100681 10.6891511,13.5145638 12.2927734,13.5145638 L12.3237905,13.5145638 C13.9912296,13.5145638 15.0279867,12.4100681 15.0279867,11.0296267 C14.9962566,9.61923776 13.9912296,8.54575921 12.3555207,8.54575921 L12.3555207,8.54575921 Z M9.93440051,29.8548968 L14.713537,29.8548968 L14.713537,15.4764876 L9.93440051,15.4764876 L9.93440051,29.8548968 Z" id="Shape" fill="#F1F2F2"></path>
                        </g>
                    </g>
                </g>
            </g>
        </g>
    </g>
</svg>