<svg width="500" height="182" viewBox="0 0 500 182" fill="none" xmlns="http://www.w3.org/2000/svg">
<g id="Group">
<path id="Path" d="M77.0708 132.231L49.3406 49.5868H67.0134L87.1696 113.093L107.202 49.5868H124.999L97.1442 132.231H77.0708Z" fill="#000575"/>
<path id="Path_2" d="M165.471 72.7277H180.921V130.607H165.471V124.108C161.777 129.551 155.773 132.232 147.629 132.232C141.037 132.232 135.664 130.16 131.339 125.855C127.141 121.59 125 115.782 125 108.268V72.7277H140.45V106.399C140.45 114.157 145.11 118.341 152.289 118.341C160.308 118.341 165.429 113.589 165.429 104.003V72.7277H165.471Z" fill="#000575"/>
<path id="Path_3" d="M233.551 87.3832H220.001V111.942C220.001 118.319 224.672 118.443 233.551 117.946V131.737C212.342 134.098 204.514 128.093 204.514 111.9V87.3418H194.078V72.7228H204.514V60.7957L220.001 56.1988V72.7228H233.551V87.3832Z" fill="#000575"/>
<path id="Path_4" d="M289.584 78.1296C293.912 82.4726 296.055 88.3874 296.055 96.0394V132.231H280.593V97.942C280.593 90.0419 275.93 85.7816 268.745 85.7816C260.721 85.7816 255.595 90.6209 255.595 100.382V132.19H240.133V46.2808H255.595V79.9082C259.292 74.3656 265.3 71.6771 273.451 71.6771C280.005 71.6357 285.383 73.7452 289.584 78.1296Z" fill="#000575"/>
<path id="Shape" fill-rule="evenodd" clip-rule="evenodd" d="M365.133 67.7851H350.052V74.7964C345.461 68.9536 339.191 66.1157 330.994 66.1157C323.166 66.1157 316.527 69.204 310.912 75.2555C305.42 81.3069 302.633 88.6939 302.633 97.4998C302.633 106.306 305.42 113.818 310.912 119.869C316.527 125.962 323.166 128.926 330.994 128.926C339.191 128.926 345.502 126.088 350.052 120.245V127.256H365.133V67.7851ZM345.379 109.644C342.347 112.733 338.494 114.277 333.822 114.277C329.15 114.277 325.297 112.733 322.265 109.644C319.232 106.431 317.715 102.383 317.715 97.4998C317.715 92.6169 319.232 88.5687 322.265 85.4804C325.297 82.2668 329.15 80.7227 333.822 80.7227C338.494 80.7227 342.347 82.2668 345.379 85.4804C348.535 88.5687 350.052 92.6169 350.052 97.4998C350.052 102.383 348.535 106.431 345.379 109.644Z" fill="#000575"/>
<path id="Shape_2" fill-rule="evenodd" clip-rule="evenodd" d="M387.283 119.869C393.334 125.962 400.752 128.926 409.497 128.926C418.201 128.926 425.661 125.962 431.712 119.869C437.722 113.776 440.789 106.306 440.789 97.4998C440.789 88.6939 437.722 81.3069 431.712 75.2555C425.661 69.204 418.242 66.1157 409.497 66.1157C400.752 66.1157 393.292 69.204 387.283 75.2555C381.231 81.3069 378.289 88.6939 378.289 97.4998C378.289 106.306 381.273 113.818 387.283 119.869ZM420.936 109.311C417.869 112.399 414.098 113.943 409.497 113.943C404.855 113.943 401.084 112.399 398.058 109.311C395.116 106.222 393.582 102.299 393.582 97.5415C393.582 92.7838 395.116 88.8608 398.058 85.7725C401.125 82.6842 404.897 81.14 409.497 81.14C414.098 81.14 417.869 82.6842 420.936 85.7725C424.003 88.8608 425.537 92.7838 425.537 97.5415C425.537 102.299 424.003 106.222 420.936 109.311Z" fill="#000575"/>
<rect id="Rectangle" x="450.659" y="115.702" width="46.0526" height="19.8347" fill="#000575"/>
<path id="Path_5" d="M165.837 147.751V166.622H15.0836V15.1963H165.837V55.9536H180.921V0H0V181.818H180.921V147.751H165.837Z" fill="#000575"/>
<g id="Group_2">
<path id="Path_6" d="M213.033 172.359C212.338 171.934 211.725 171.626 211.07 171.394C210.498 171.163 209.68 170.893 208.617 170.546C207.022 170.045 205.917 169.582 205.263 169.157C204.691 168.772 204.404 168.232 204.404 167.422C204.404 165.686 205.877 164.491 208.126 164.491C210.252 164.491 211.643 165.378 212.461 167.229L212.665 167.73L214.792 166.612L214.628 166.226C213.524 163.719 211.111 162.215 208.126 162.215C206.367 162.215 204.936 162.678 203.709 163.642C202.523 164.606 201.91 165.879 201.91 167.46C201.91 168.27 202.155 169.119 202.605 169.852C203.014 170.469 203.914 171.086 204.404 171.356C204.65 171.51 205.018 171.703 205.672 171.934L206.899 172.359L208.249 172.744C209.925 173.246 211.07 173.747 211.766 174.21C212.42 174.673 212.747 175.251 212.747 176.061C212.747 177.951 211.193 179.108 208.535 179.108C205.877 179.108 204.036 177.989 203.423 175.907L203.218 175.29L201.051 176.485L201.174 176.871C202.114 179.648 204.936 181.383 208.494 181.383C210.457 181.383 212.093 180.921 213.279 179.956C214.506 178.992 215.16 177.681 215.16 176.061C215.201 174.403 214.465 173.207 213.033 172.359Z" fill="#000575"/>
<path id="Shape_3" fill-rule="evenodd" clip-rule="evenodd" d="M220.068 165.031C221.99 163.179 224.444 162.215 227.266 162.215C230.088 162.215 232.542 163.179 234.464 165.031C236.427 166.882 237.408 169.157 237.408 171.819C237.408 174.441 236.427 176.717 234.464 178.606C232.501 180.458 230.088 181.383 227.266 181.383C224.444 181.383 222.031 180.458 220.068 178.606C218.105 176.755 217.124 174.441 217.124 171.819C217.124 169.157 218.105 166.882 220.068 165.031ZM227.266 179.146C229.433 179.146 231.274 178.452 232.746 177.025C234.259 175.56 234.995 173.863 234.995 171.819C234.995 169.775 234.259 168.078 232.746 166.651C231.274 165.224 229.433 164.491 227.266 164.491C225.098 164.491 223.299 165.185 221.786 166.651C220.273 168.039 219.537 169.813 219.537 171.819C219.537 173.863 220.273 175.56 221.786 177.025C223.299 178.452 225.098 179.146 227.266 179.146Z" fill="#000575"/>
<path id="Path_7" d="M240.517 181.114H242.971V173.053H251.641V170.816H242.971V164.723H251.927V162.486H240.517V181.114Z" fill="#000575"/>
<path id="Path_8" d="M253.232 164.723H259.08V181.114H261.575V164.723H267.464V162.486H253.232V164.723Z" fill="#000575"/>
<path id="Path_9" d="M291.881 162.486L287.465 177.141L282.598 162.486H280.144L275.359 177.141L270.861 162.486H268.284L274.01 181.114H276.504L281.412 166.381L286.279 181.114H288.732L294.458 162.486H291.881Z" fill="#000575"/>
<path id="Shape_4" fill-rule="evenodd" clip-rule="evenodd" d="M300.387 162.486H302.595L302.718 162.794L310.243 181.114H307.625L305.826 176.64H297.156L295.316 181.114H292.698L300.387 162.486ZM301.491 165.995L298.056 174.403H304.926L301.491 165.995Z" fill="#000575"/>
<path id="Shape_5" fill-rule="evenodd" clip-rule="evenodd" d="M326.151 168.232C326.151 169.505 325.742 170.662 324.883 171.703C324.188 172.552 323.329 173.13 322.307 173.516L327.092 181.152H324.27L319.771 173.901H314.659V181.152H312.205V162.524H320.098C321.734 162.524 323.166 163.103 324.352 164.221C325.578 165.339 326.151 166.651 326.151 168.232ZM314.7 164.722V171.665H320.139C321.121 171.665 321.98 171.317 322.675 170.662C323.411 169.968 323.738 169.158 323.738 168.193C323.738 167.229 323.37 166.419 322.675 165.725C321.98 165.069 321.162 164.722 320.139 164.722H314.7Z" fill="#000575"/>
<path id="Path_10" d="M331.632 172.86H340.179V170.623H331.632V164.723H340.834V162.486H329.178V181.114H340.997V178.915H331.632V172.86Z" fill="#000575"/>
<path id="Path_11" d="M362.387 172.359C361.692 171.934 361.078 171.626 360.424 171.394C359.851 171.163 359.033 170.893 357.97 170.546C356.375 170.045 355.271 169.582 354.617 169.157C354.044 168.772 353.758 168.232 353.758 167.422C353.758 165.686 355.23 164.491 357.479 164.491C359.606 164.491 360.996 165.378 361.814 167.229L362.019 167.73L364.145 166.612L363.982 166.226C362.878 163.719 360.465 162.215 357.479 162.215C355.721 162.215 354.289 162.678 353.063 163.642C351.877 164.606 351.263 165.879 351.263 167.46C351.263 168.27 351.509 169.119 351.958 169.852C352.367 170.469 353.267 171.086 353.758 171.356C354.003 171.51 354.371 171.703 355.026 171.934L356.252 172.359L357.602 172.744C359.279 173.246 360.424 173.747 361.119 174.21C361.773 174.673 362.101 175.251 362.101 176.061C362.101 177.951 360.547 179.108 357.888 179.108C355.23 179.108 353.39 177.989 352.776 175.907L352.572 175.29L350.404 176.485L350.527 176.871C351.468 179.648 354.289 181.383 357.847 181.383C359.81 181.383 361.446 180.921 362.632 179.956C363.859 178.992 364.514 177.681 364.514 176.061C364.554 174.403 363.859 173.207 362.387 172.359Z" fill="#000575"/>
<path id="Shape_6" fill-rule="evenodd" clip-rule="evenodd" d="M369.422 165.031C371.344 163.179 373.798 162.215 376.62 162.215C379.482 162.215 381.895 163.179 383.817 165.031C385.78 166.882 386.762 169.157 386.762 171.819C386.762 174.441 385.78 176.717 383.817 178.606C381.854 180.458 379.441 181.383 376.62 181.383C373.798 181.383 371.385 180.458 369.422 178.606C367.459 176.755 366.477 174.441 366.477 171.819C366.477 169.157 367.459 166.882 369.422 165.031ZM376.62 179.146C378.787 179.146 380.627 178.452 382.1 177.025C383.613 175.56 384.349 173.863 384.349 171.819C384.349 169.775 383.613 168.078 382.1 166.651C380.627 165.224 378.787 164.491 376.62 164.491C374.452 164.491 372.653 165.185 371.139 166.651C369.626 168.039 368.89 169.813 368.89 171.819C368.89 173.863 369.626 175.56 371.139 177.025C372.653 178.452 374.452 179.146 376.62 179.146Z" fill="#000575"/>
<path id="Path_12" d="M392.365 162.486H389.911V181.114H401.198V178.915H392.365V162.486Z" fill="#000575"/>
<path id="Path_13" d="M415.388 174.75C415.388 177.527 413.548 179.147 410.439 179.147C407.372 179.147 405.532 177.488 405.532 174.75V162.524H403.078V174.75C403.078 176.755 403.773 178.375 405.123 179.609C406.473 180.805 408.272 181.422 410.439 181.422C412.648 181.422 414.447 180.805 415.756 179.609C417.106 178.375 417.801 176.755 417.801 174.75V162.524H415.347V174.75H415.388Z" fill="#000575"/>
<path id="Path_14" d="M420.011 164.723H425.9V181.114H428.394V164.723H434.283V162.486H420.011V164.723Z" fill="#000575"/>
<path id="Path_15" d="M436.736 181.114H439.149V162.486H436.736V177.99V181.114Z" fill="#000575"/>
<path id="Shape_7" fill-rule="evenodd" clip-rule="evenodd" d="M445.243 165.031C447.165 163.179 449.618 162.215 452.44 162.215C455.262 162.215 457.675 163.179 459.638 165.031C461.601 166.882 462.583 169.157 462.583 171.819C462.583 174.441 461.601 176.717 459.638 178.606C457.675 180.458 455.262 181.383 452.44 181.383C449.618 181.383 447.206 180.458 445.243 178.606C443.28 176.755 442.298 174.441 442.298 171.819C442.298 169.157 443.28 166.882 445.243 165.031ZM452.399 179.146C454.567 179.146 456.407 178.452 457.88 177.025C459.393 175.56 460.17 173.863 460.129 171.819C460.129 169.775 459.393 168.078 457.88 166.651C456.407 165.224 454.567 164.491 452.399 164.491C450.232 164.491 448.432 165.185 446.919 166.651C445.406 168.039 444.67 169.813 444.67 171.819C444.67 173.863 445.406 175.56 446.919 177.025C448.432 178.452 450.232 179.146 452.399 179.146Z" fill="#000575"/>
<path id="Path_16" d="M478.001 176.601L467.695 162.486H465.691V181.114H468.145V167.037L478.246 180.921L478.41 181.114H480.455V162.486H478.001V176.601Z" fill="#000575"/>
<path id="Path_17" d="M495.095 172.359C494.399 171.934 493.786 171.626 493.131 171.394C492.559 171.163 491.741 170.893 490.678 170.546C489.083 170.045 487.979 169.582 487.324 169.157C486.752 168.772 486.465 168.232 486.465 167.422C486.465 165.686 487.938 164.491 490.187 164.491C492.314 164.491 493.704 165.378 494.522 167.229L494.726 167.73L496.853 166.612L496.689 166.226C495.585 163.719 493.172 162.215 490.187 162.215C488.428 162.215 486.997 162.678 485.77 163.642C484.584 164.606 483.971 165.879 483.971 167.46C483.971 168.27 484.216 169.119 484.666 169.852C485.075 170.469 485.975 171.086 486.465 171.356C486.711 171.51 487.079 171.703 487.733 171.934L488.96 172.359L490.31 172.744C491.986 173.246 493.131 173.747 493.827 174.21C494.481 174.673 494.808 175.251 494.808 176.061C494.808 177.951 493.254 179.108 490.596 179.108C487.938 179.108 486.097 177.989 485.484 175.907L485.279 175.29L483.112 176.485L483.235 176.871C484.175 179.648 486.997 181.383 490.555 181.383C492.518 181.383 494.154 180.921 495.34 179.956C496.567 178.992 497.221 177.681 497.221 176.061C497.262 174.403 496.526 173.207 495.095 172.359Z" fill="#000575"/>
</g>
<g id="Group_3">
<path id="Shape_8" fill-rule="evenodd" clip-rule="evenodd" d="M417.254 45.6525C417.254 50.6773 421.879 54.7434 427.593 54.7434C433.27 54.7434 437.931 50.6773 437.931 45.6525C437.931 40.6277 433.307 36.5616 427.593 36.5616C421.879 36.5616 417.254 40.6277 417.254 45.6525ZM418.57 45.6525C418.57 41.2888 422.63 37.7186 427.593 37.7186C432.555 37.7186 436.615 41.2888 436.615 45.6525C436.615 50.0161 432.555 53.5864 427.593 53.5864C422.63 53.5864 418.57 50.0161 418.57 45.6525Z" fill="#000575"/>
<path id="Shape_9" fill-rule="evenodd" clip-rule="evenodd" d="M427.219 47.1067L429.437 50.4786V50.4456H431.768L429.324 46.8092C430.565 46.3133 431.429 45.1894 431.429 43.9993C431.429 43.1067 431.091 42.3464 430.377 41.7183C429.662 41.1232 428.798 40.7927 427.783 40.7927H423.384V50.4786H425.565V47.1067H427.219ZM425.565 45.4538V42.5778H427.783C428.61 42.5778 429.286 43.2059 429.286 43.9993C429.286 44.7927 428.61 45.4538 427.783 45.4538H425.565Z" fill="#000575"/>
</g>
</g>
</svg>
