<?xml version="1.0" encoding="UTF-8"?>
<svg width="288px" height="106px" viewBox="0 0 288 106" version="1.1" xmlns="http://www.w3.org/2000/svg" xmlns:xlink="http://www.w3.org/1999/xlink">
    <title>Combined Shape</title>
    <g id="Page-1" stroke="none" stroke-width="1" fill="none" fill-rule="evenodd">
        <g id="LOGO-VuThao" transform="translate(-571.000000, -557.000000)" fill="#002485" fill-rule="nonzero">
            <path d="M675.481908,557 L675.481908,589.313196 L666.771126,589.313196 L666.771126,565.775835 L579.710782,565.775835 L579.710782,653.224165 L666.771126,653.224165 L666.771126,642.325914 L675.481908,642.325914 L675.481908,662 L571,662 L571,557 L675.481908,557 Z M609.701121,585.636364 L621.341283,622.311005 L632.909739,585.636364 L643.1875,585.636364 L627.101609,633.363636 L615.509251,633.363636 L599.495066,585.636364 L609.701121,585.636364 Z M652.109679,599 L652.109679,618.445361 C652.109679,622.925535 654.800879,625.341545 658.946783,625.341545 C663.577588,625.341545 666.535484,622.597146 666.535484,617.061433 L666.535484,599 L675.481908,599 L675.481908,632.42538 L666.559729,632.42538 L666.559729,628.672355 C664.426165,631.815513 660.959122,633.363636 656.255582,633.363636 C652.449109,633.363636 649.345743,632.16736 646.848503,629.68098 C644.423998,627.218058 643.1875,623.863791 643.1875,619.524356 L643.1875,599 L652.109679,599 Z M705.876645,607.463578 L698.051134,607.463578 L698.051134,621.645991 C698.051134,625.329113 700.748748,625.400862 705.876645,625.113866 L705.876645,633.07802 C693.628019,634.441253 689.107693,630.973378 689.107693,621.622074 L689.107693,607.439662 L683.080592,607.439662 L683.080592,598.99718 L689.107693,598.99718 L689.107693,592.109263 L698.051134,589.454545 L698.051134,598.99718 L705.876645,598.99718 L705.876645,607.463578 L705.876645,607.463578 Z M738.233852,602.119958 C740.732968,604.628051 741.970395,608.043836 741.970395,612.462858 L741.970395,633.363636 L733.041513,633.363636 L733.041513,613.561641 C733.041513,608.9993 730.34829,606.53898 726.199271,606.53898 C721.564987,606.53898 718.604869,609.333712 718.604869,614.970951 L718.604869,633.33975 L709.675987,633.33975 L709.675987,583.727273 L718.604869,583.727273 L718.604869,603.147082 C720.740036,599.946277 724.209684,598.393648 728.916757,598.393648 C732.701827,598.369761 735.807525,599.587978 738.233852,602.119958 Z M773.153651,596.145877 L781.863487,596.145877 L781.863487,630.490486 L773.153651,630.490486 L773.153651,626.441438 C770.526499,629.815645 766.881622,631.454545 762.148016,631.454545 C757.627421,631.454545 753.7932,629.74334 750.550679,626.224524 C747.379163,622.72981 745.769737,618.391543 745.769737,613.306131 C745.769737,608.220719 747.379163,603.954757 750.550679,600.460042 C753.7932,596.965328 757.627421,595.181818 762.148016,595.181818 C766.881622,595.181818 770.502831,596.820719 773.153651,600.194926 L773.153651,596.145877 Z M763.78111,622.994926 C766.479266,622.994926 768.704061,622.103171 770.455495,620.319662 C772.277934,618.463848 773.153651,616.126004 773.153651,613.306131 C773.153651,610.486258 772.277934,608.148414 770.455495,606.364905 C768.704061,604.509091 766.479266,603.617336 763.78111,603.617336 C761.082954,603.617336 758.858159,604.509091 757.106725,606.364905 C755.35529,608.148414 754.479573,610.486258 754.479573,613.306131 C754.479573,616.126004 755.35529,618.463848 757.106725,620.319662 C758.858159,622.103171 761.082954,622.994926 763.78111,622.994926 Z M807.485111,631.454545 C802.434858,631.454545 798.150521,629.74334 794.656033,626.224524 C791.18548,622.72981 789.462171,618.391543 789.462171,613.306131 C789.462171,608.220719 791.161545,603.954757 794.656033,600.460042 C798.126586,596.965328 802.434858,595.181818 807.485111,595.181818 C812.535364,595.181818 816.819702,596.965328 820.314189,600.460042 C823.784742,603.954757 825.555921,608.220719 825.555921,613.306131 C825.555921,618.391543 823.784742,622.705708 820.314189,626.224524 C816.819702,629.74334 812.511429,631.454545 807.485111,631.454545 Z M807.485111,622.802114 C810.141879,622.802114 812.31995,621.910359 814.091129,620.12685 C815.862308,618.34334 816.747897,616.077801 816.747897,613.330233 C816.747897,610.582664 815.862308,608.317125 814.091129,606.533615 C812.31995,604.750106 810.141879,603.858351 807.485111,603.858351 C804.828343,603.858351 802.650272,604.750106 800.879093,606.533615 C799.179719,608.317125 798.29413,610.582664 798.29413,613.330233 C798.29413,616.077801 799.179719,618.34334 800.879093,620.12685 C802.626337,621.910359 804.804408,622.802114 807.485111,622.802114 Z M831.254934,623.818182 L857.850329,623.818182 L857.850329,635.272727 L831.254934,635.272727 Z M817.935526,578.114545 C821.235526,578.114545 823.905921,580.462727 823.905921,583.364545 C823.905921,586.266364 821.213816,588.614545 817.935526,588.614545 C814.635526,588.614545 811.965132,586.266364 811.965132,583.364545 C811.965132,580.462727 814.635526,578.114545 817.935526,578.114545 Z M817.935526,578.782727 C815.069737,578.782727 812.725,580.844545 812.725,583.364545 C812.725,585.884545 815.069737,587.946364 817.935526,587.946364 C820.801316,587.946364 823.146053,585.884545 823.146053,583.364545 C823.146053,580.844545 820.801316,578.782727 817.935526,578.782727 Z M818.044079,580.558182 C818.630263,580.558182 819.129605,580.749091 819.542105,581.092727 C819.954605,581.455455 820.15,581.894545 820.15,582.41 C820.15,583.097273 819.650658,583.746364 818.934211,584.032727 L820.345395,586.132727 L818.999342,586.132727 L818.999342,586.151818 L817.718421,584.204545 L816.763158,584.204545 L816.763158,586.151818 L815.503947,586.151818 L815.503947,580.558182 L818.044079,580.558182 Z M818.044079,581.589091 L816.763158,581.589091 L816.763158,583.25 L818.044079,583.25 C818.521711,583.25 818.9125,582.868182 818.9125,582.41 C818.9125,581.951818 818.521711,581.589091 818.044079,581.589091 Z M687.386,662.291667 L687.386,650.644667 L682.826,650.644667 L682.826,648.991667 L693.827,648.991667 L693.827,650.644667 L689.267,650.644667 L689.267,662.291667 L687.386,662.291667 Z M701.727,654.729667 L708.567,654.729667 L708.567,656.344667 L701.727,656.344667 L701.727,654.729667 Z M701.898,660.638667 L709.65,660.638667 L709.65,662.291667 L699.998,662.291667 L699.998,648.991667 L709.384,648.991667 L709.384,650.644667 L701.898,650.644667 L701.898,660.638667 Z M722.756,662.443667 C721.742667,662.443667 720.8085,662.275833 719.9535,661.940167 C719.0985,661.6045 718.3575,661.1295 717.7305,660.515167 C717.1035,659.900833 716.612667,659.182 716.258,658.358667 C715.903333,657.535333 715.726,656.629667 715.726,655.641667 C715.726,654.653667 715.903333,653.748 716.258,652.924667 C716.612667,652.101333 717.106667,651.3825 717.74,650.768167 C718.373333,650.153833 719.1175,649.678833 719.9725,649.343167 C720.8275,649.0075 721.761667,648.839667 722.775,648.839667 C723.801,648.839667 724.747833,649.013833 725.6155,649.362167 C726.483167,649.7105 727.221,650.226667 727.829,650.910667 L726.594,652.107667 C726.087333,651.575667 725.517333,651.179833 724.884,650.920167 C724.250667,650.6605 723.573,650.530667 722.851,650.530667 C722.103667,650.530667 721.410167,650.657333 720.7705,650.910667 C720.130833,651.164 719.576667,651.518667 719.108,651.974667 C718.639333,652.430667 718.275167,652.972167 718.0155,653.599167 C717.755833,654.226167 717.626,654.907 717.626,655.641667 C717.626,656.376333 717.755833,657.057167 718.0155,657.684167 C718.275167,658.311167 718.639333,658.852667 719.108,659.308667 C719.576667,659.764667 720.130833,660.119333 720.7705,660.372667 C721.410167,660.626 722.103667,660.752667 722.851,660.752667 C723.573,660.752667 724.250667,660.622833 724.884,660.363167 C725.517333,660.1035 726.087333,659.701333 726.594,659.156667 L727.829,660.353667 C727.221,661.037667 726.483167,661.557 725.6155,661.911667 C724.747833,662.266333 723.794667,662.443667 722.756,662.443667 Z M744.184,648.991667 L746.084,648.991667 L746.084,662.291667 L744.184,662.291667 L744.184,648.991667 Z M736.546,662.291667 L734.646,662.291667 L734.646,648.991667 L736.546,648.991667 L736.546,662.291667 Z M744.355,656.363667 L736.356,656.363667 L736.356,654.710667 L744.355,654.710667 L744.355,656.363667 Z M754.174,662.291667 L754.174,648.991667 L755.732,648.991667 L764.529,659.916667 L763.712,659.916667 L763.712,648.991667 L765.612,648.991667 L765.612,662.291667 L764.054,662.291667 L755.257,651.366667 L756.074,651.366667 L756.074,662.291667 L754.174,662.291667 Z M779.706,662.443667 C778.692667,662.443667 777.752167,662.272667 776.8845,661.930667 C776.016833,661.588667 775.266333,661.1105 774.633,660.496167 C773.999667,659.881833 773.505667,659.163 773.151,658.339667 C772.796333,657.516333 772.619,656.617 772.619,655.641667 C772.619,654.666333 772.796333,653.767 773.151,652.943667 C773.505667,652.120333 773.999667,651.4015 774.633,650.787167 C775.266333,650.172833 776.013667,649.694667 776.875,649.352667 C777.736333,649.010667 778.68,648.839667 779.706,648.839667 C780.719333,648.839667 781.6535,649.0075 782.5085,649.343167 C783.3635,649.678833 784.110833,650.153833 784.7505,650.768167 C785.390167,651.3825 785.884167,652.101333 786.2325,652.924667 C786.580833,653.748 786.755,654.653667 786.755,655.641667 C786.755,656.629667 786.580833,657.535333 786.2325,658.358667 C785.884167,659.182 785.390167,659.900833 784.7505,660.515167 C784.110833,661.1295 783.3635,661.6045 782.5085,661.940167 C781.6535,662.275833 780.719333,662.443667 779.706,662.443667 Z M779.706,660.752667 C780.440667,660.752667 781.1215,660.626 781.7485,660.372667 C782.3755,660.119333 782.920167,659.7615 783.3825,659.299167 C783.844833,658.836833 784.205833,658.295333 784.4655,657.674667 C784.725167,657.054 784.855,656.376333 784.855,655.641667 C784.855,654.907 784.725167,654.229333 784.4655,653.608667 C784.205833,652.988 783.844833,652.4465 783.3825,651.984167 C782.920167,651.521833 782.3755,651.164 781.7485,650.910667 C781.1215,650.657333 780.440667,650.530667 779.706,650.530667 C778.958667,650.530667 778.2715,650.657333 777.6445,650.910667 C777.0175,651.164 776.469667,651.521833 776.001,651.984167 C775.532333,652.4465 775.168167,652.988 774.9085,653.608667 C774.648833,654.229333 774.519,654.907 774.519,655.641667 C774.519,656.376333 774.648833,657.054 774.9085,657.674667 C775.168167,658.295333 775.532333,658.836833 776.001,659.299167 C776.469667,659.7615 777.0175,660.119333 777.6445,660.372667 C778.2715,660.626 778.958667,660.752667 779.706,660.752667 Z M793.762,662.291667 L793.762,648.991667 L795.662,648.991667 L795.662,660.638667 L802.863,660.638667 L802.863,662.291667 L793.762,662.291667 Z M814.905,662.443667 C813.891667,662.443667 812.951167,662.272667 812.0835,661.930667 C811.215833,661.588667 810.465333,661.1105 809.832,660.496167 C809.198667,659.881833 808.704667,659.163 808.35,658.339667 C807.995333,657.516333 807.818,656.617 807.818,655.641667 C807.818,654.666333 807.995333,653.767 808.35,652.943667 C808.704667,652.120333 809.198667,651.4015 809.832,650.787167 C810.465333,650.172833 811.212667,649.694667 812.074,649.352667 C812.935333,649.010667 813.879,648.839667 814.905,648.839667 C815.918333,648.839667 816.8525,649.0075 817.7075,649.343167 C818.5625,649.678833 819.309833,650.153833 819.9495,650.768167 C820.589167,651.3825 821.083167,652.101333 821.4315,652.924667 C821.779833,653.748 821.954,654.653667 821.954,655.641667 C821.954,656.629667 821.779833,657.535333 821.4315,658.358667 C821.083167,659.182 820.589167,659.900833 819.9495,660.515167 C819.309833,661.1295 818.5625,661.6045 817.7075,661.940167 C816.8525,662.275833 815.918333,662.443667 814.905,662.443667 Z M814.905,660.752667 C815.639667,660.752667 816.3205,660.626 816.9475,660.372667 C817.5745,660.119333 818.119167,659.7615 818.5815,659.299167 C819.043833,658.836833 819.404833,658.295333 819.6645,657.674667 C819.924167,657.054 820.054,656.376333 820.054,655.641667 C820.054,654.907 819.924167,654.229333 819.6645,653.608667 C819.404833,652.988 819.043833,652.4465 818.5815,651.984167 C818.119167,651.521833 817.5745,651.164 816.9475,650.910667 C816.3205,650.657333 815.639667,650.530667 814.905,650.530667 C814.157667,650.530667 813.4705,650.657333 812.8435,650.910667 C812.2165,651.164 811.668667,651.521833 811.2,651.984167 C810.731333,652.4465 810.367167,652.988 810.1075,653.608667 C809.847833,654.229333 809.718,654.907 809.718,655.641667 C809.718,656.376333 809.847833,657.054 810.1075,657.674667 C810.367167,658.295333 810.731333,658.836833 811.2,659.299167 C811.668667,659.7615 812.2165,660.119333 812.8435,660.372667 C813.4705,660.626 814.157667,660.752667 814.905,660.752667 Z M834.965,662.443667 C833.939,662.443667 832.995333,662.275833 832.134,661.940167 C831.272667,661.6045 830.525333,661.1295 829.892,660.515167 C829.258667,659.900833 828.764667,659.182 828.41,658.358667 C828.055333,657.535333 827.878,656.629667 827.878,655.641667 C827.878,654.653667 828.055333,653.748 828.41,652.924667 C828.764667,652.101333 829.261833,651.3825 829.9015,650.768167 C830.541167,650.153833 831.291667,649.678833 832.153,649.343167 C833.014333,649.0075 833.964333,648.839667 835.003,648.839667 C836.054333,648.839667 837.017,649.010667 837.891,649.352667 C838.765,649.694667 839.506,650.207667 840.114,650.891667 L838.936,652.069667 C838.391333,651.537667 837.799167,651.148167 837.1595,650.901167 C836.519833,650.654167 835.826333,650.530667 835.079,650.530667 C834.319,650.530667 833.612833,650.657333 832.9605,650.910667 C832.308167,651.164 831.7445,651.518667 831.2695,651.974667 C830.7945,652.430667 830.427167,652.972167 830.1675,653.599167 C829.907833,654.226167 829.778,654.907 829.778,655.641667 C829.778,656.363667 829.907833,657.038167 830.1675,657.665167 C830.427167,658.292167 830.7945,658.836833 831.2695,659.299167 C831.7445,659.7615 832.305,660.119333 832.951,660.372667 C833.597,660.626 834.3,660.752667 835.06,660.752667 C835.769333,660.752667 836.450167,660.641833 837.1025,660.420167 C837.754833,660.1985 838.359667,659.828 838.917,659.308667 L840,660.752667 C839.341333,661.31 838.571833,661.731167 837.6915,662.016167 C836.811167,662.301167 835.902333,662.443667 834.965,662.443667 Z M838.176,660.505667 L838.176,655.565667 L840,655.565667 L840,660.752667 L838.176,660.505667 Z M850.94,662.291667 L850.94,657.199667 L851.377,658.377667 L845.658,648.991667 L847.691,648.991667 L852.498,656.914667 L851.396,656.914667 L856.222,648.991667 L858.103,648.991667 L852.403,658.377667 L852.821,657.199667 L852.821,662.291667 L850.94,662.291667 Z" id="Combined-Shape"></path>
        </g>
    </g>
</svg>