<?xml version="1.0" encoding="utf-8"?>
<svg width="25.600098px" height="18px" viewBox="0 0 25.600098 18" version="1.1" xmlns:xlink="http://www.w3.org/1999/xlink" xmlns="http://www.w3.org/2000/svg">
  <g id="Group-13">
    <path d="M2.25 0L23.35 0C23.6964 0 24.0206 0.08515 24.314 0.2255L14.3908 10.0986C13.5134 10.976 12.0866 10.976 11.2092 10.0986L1.28605 0.2255C1.5794 0.08515 1.90365 0 2.25 0ZM0.2255 1.28605C0.08515 1.5794 0 1.90365 0 2.25L0 15.75C0 16.0963 0.08515 16.4207 0.2255 16.714L7.98945 9L0.2255 1.28605ZM17.6105 9L25.3745 1.28605C25.5149 1.5794 25.6 1.90365 25.6 2.25L25.6 15.75C25.6 16.0963 25.5149 16.4206 25.3745 16.714L17.6105 9ZM15.4514 11.1592L16.55 10.0605L24.314 17.7745C24.0206 17.9149 23.6964 18 23.35 18L2.25 18C1.90365 18 1.5794 17.9149 1.28605 17.7745L9.05 10.0605L10.1486 11.1592C11.6105 12.6212 13.9894 12.6212 15.4514 11.1592Z" id="Combined-Shape" fill="#0060FF" fill-rule="evenodd" stroke="none" />
  </g>
</svg>