<?xml version="1.0" encoding="utf-8"?>
<svg width="40px" height="40px" viewBox="0 0 40 40" version="1.1" xmlns:xlink="http://www.w3.org/1999/xlink" xmlns="http://www.w3.org/2000/svg">
  <defs>
    <radialGradient gradientUnits="objectBoundingBox" cx="50%" cy="50%" fx="50%" fy="50%" r="74.67098%" gradientTransform="translate(0.5,0.5),rotate(1.2661431),translate(-0.5,-0.5)" id="gradient_1">
      <stop offset="0%" stop-color="#FFFFFF" />
      <stop offset="100%" stop-color="#B2E6FF" />
    </radialGradient>
  </defs>
  <g id="Group-39">
    <path d="M40 20L40 20C40 31.053 31.053 40 20 40L20 40C8.96279 40 0 31.053 0 20L0 20C0 8.96279 8.94695 0 20 0L20 0C31.053 0 40 8.96279 40 20Z" id="Path-Copy" fill="url(#gradient_1)" stroke="none" />
    <path d="M24.2193 10.0001C27.412 10.0001 30.0001 12.5885 30.0001 15.7814C30.0001 18.9743 27.412 21.5626 24.2193 21.5626C21.0267 21.5626 18.4386 18.9743 18.4386 15.7814C18.4386 12.5885 21.0267 10.0001 24.2193 10.0001ZM24.2193 10.7814C21.4582 10.7814 19.2198 13.0199 19.2198 15.7814C19.2198 18.5428 21.4582 20.7814 24.2193 20.7814C26.9805 20.7814 29.2188 18.5428 29.2188 15.7814C29.2188 13.0199 26.9805 10.7814 24.2193 10.7814ZM24.8285 13.1167C24.8285 12.8406 24.6048 12.6167 24.3288 12.6167L24.3282 12.6167C24.0523 12.6167 23.8285 12.8406 23.8285 13.1167C23.8285 13.3929 24.0523 13.6167 24.3282 13.6167L24.3288 13.6167C24.6048 13.6167 24.8285 13.3929 24.8285 13.1167ZM24.2638 14.7634C24.2492 14.7612 24.2343 14.7601 24.2191 14.7601L23.0788 14.7601C22.8631 14.7601 22.6882 14.984 22.6882 15.2601C22.6882 15.5363 22.8631 15.7601 23.0788 15.7601L23.8285 15.7601L23.8285 18.1647L22.8716 18.1647C22.6559 18.1647 22.481 18.3885 22.481 18.6647C22.481 18.9408 22.6559 19.1647 22.8716 19.1647L25.567 19.1647C25.7828 19.1647 25.9576 18.9408 25.9576 18.6647C25.9576 18.3885 25.7828 18.1647 25.567 18.1647L24.8285 18.1647L24.8285 15.1507C24.8285 14.935 24.6047 14.7601 24.3285 14.7601C24.3066 14.7601 24.285 14.7612 24.2638 14.7634ZM15.9545 21.0255C16.1702 21.0255 16.3451 21.2004 16.3451 21.4162L16.3451 21.5103L17.7214 21.5103C17.9038 21.5103 18.081 21.5521 18.2573 21.6315C18.5058 21.7433 18.7292 21.9102 19.0707 22.2133C19.1283 22.2646 19.4023 22.5118 19.4813 22.5818C19.6481 22.7297 19.7919 22.8513 19.9392 22.9673C20.53 23.4324 21.1331 23.7647 21.8677 23.9837C22.7748 24.2541 23.2874 25.1545 22.9907 25.9985C23.2802 25.9201 23.5764 25.816 23.8843 25.6865C23.999 25.6382 24.1104 25.5891 24.2234 25.5367L24.2612 25.5191C24.6519 25.336 25.068 25.1115 25.7049 24.7512C26.1283 24.5116 26.3168 24.4053 26.4774 24.3174L26.4931 24.3088L26.5009 24.3045L26.5165 24.2961C26.532 24.2876 26.5474 24.2793 26.5628 24.2709L26.5784 24.2626L26.5862 24.2584L26.6018 24.2499C26.6386 24.2301 26.6768 24.2097 26.7189 24.1873C26.7877 24.1507 26.8546 24.1156 26.9202 24.0818L26.9456 24.0684C27.9643 23.5375 29.0666 23.6942 29.6553 24.3753C29.9515 24.7181 30.068 25.1547 29.9568 25.5829C29.8416 26.0264 29.4977 26.4128 28.9616 26.7C28.7386 26.8194 28.2864 27.0673 27.8222 27.3225L27.7588 27.3573C27.1882 27.671 26.6143 27.9872 26.4385 28.082C25.4994 28.5881 24.7767 28.9418 24.0711 29.2269C22.7523 29.7599 21.5479 30.019 20.285 29.9991C18.9084 29.9773 17.468 29.6182 15.868 28.8776L10.3907 28.8776C10.175 28.8776 10.0001 28.7027 10.0001 28.4869L10.0001 21.4162C10.0001 21.2004 10.175 21.0255 10.3907 21.0255L15.9545 21.0255ZM10.7813 21.8068L13.7991 21.8068L13.7991 28.0963L10.7813 28.0963L10.7813 21.8068ZM15.5639 28.0963L14.7991 28.0963L14.7991 21.8068L15.5639 21.8068L15.5639 28.0963ZM16.3451 28.2366L16.3451 22.2915L17.7214 22.2915C17.7873 22.2915 17.8567 22.3079 17.9367 22.3439C18.092 22.4138 18.2668 22.5444 18.552 22.7976C18.578 22.8206 18.654 22.8891 18.7354 22.9623L18.7587 22.9833C18.8407 23.057 18.9238 23.1316 18.9631 23.1665C19.1404 23.3236 19.2953 23.4546 19.456 23.5811C20.1197 24.1037 20.8083 24.4831 21.6445 24.7323C22.1445 24.8814 22.4026 25.3428 22.2483 25.7543C22.086 26.187 21.5245 26.4367 21.0056 26.282L18.8317 25.6339C18.625 25.5723 18.4074 25.6899 18.3458 25.8966C18.2841 26.1034 18.4018 26.3209 18.6085 26.3826L20.7824 27.0307C21.2303 27.1642 21.6998 27.1224 22.0969 26.9439C22.7838 26.893 23.4628 26.7114 24.1873 26.4066C24.7457 26.1717 25.2218 25.922 26.0896 25.4311C26.5424 25.1749 26.7231 25.0731 26.8893 24.9826L26.9119 24.9703C26.927 24.9622 26.942 24.9541 26.9572 24.9459L26.9724 24.9377C27.0082 24.9185 27.0452 24.8987 27.086 24.877C27.1518 24.8419 27.2158 24.8084 27.2783 24.7762L27.2837 24.7733C28.0013 24.3889 28.7193 24.487 29.0643 24.8862C29.3603 25.2287 29.2483 25.6601 28.5926 26.0113C28.0801 26.2859 26.3881 27.2217 26.0679 27.3942C25.1518 27.8879 24.4526 28.2301 23.7784 28.5026C22.5507 28.9987 21.4475 29.2361 20.2973 29.2179C19.0774 29.1986 17.7896 28.887 16.3451 28.2366Z" id="Combined-Shape" fill="#28B0FF" fill-rule="evenodd" stroke="none" />
  </g>
</svg>