<?xml version="1.0" encoding="utf-8"?>
<svg width="40px" height="40px" viewBox="0 0 40 40" version="1.1" xmlns:xlink="http://www.w3.org/1999/xlink" xmlns="http://www.w3.org/2000/svg">
  <defs>
    <radialGradient gradientUnits="objectBoundingBox" cx="50%" cy="50%" fx="50%" fy="50%" r="115.637794%" gradientTransform="translate(0.5,0.5),rotate(-0.91817814),translate(-0.5,-0.5)" id="gradient_1">
      <stop offset="0%" stop-color="#FFFFFF" />
      <stop offset="28.125086%" stop-color="#FDF6E2" />
      <stop offset="100%" stop-color="#FFCA2F" />
    </radialGradient>
  </defs>
  <g id="Group-36-Copy">
    <path d="M40 20L40 20C40 31.053 31.053 40 20 40L20 40C8.96279 40 0 31.053 0 20L0 20C0 8.96279 8.94695 0 20 0L20 0C31.053 0 40 8.96279 40 20Z" id="Path-Copy" fill="url(#gradient_1)" stroke="none" />
    <path d="M28.7037 15.237L28.5662 17.7086L29.9208 19.7718C30.0124 19.9108 30.0124 20.0912 29.9208 20.2303L28.5579 22.2934L28.6954 24.765C28.7033 24.9306 28.6135 25.0853 28.4662 25.161L26.2655 26.2738L25.1527 28.4745C25.0783 28.6231 24.9226 28.7133 24.7567 28.7037L22.2851 28.5662L20.222 29.9291C20.0837 30.0236 19.9017 30.0236 19.7635 29.9291L17.7003 28.5662L15.2287 28.7037C15.0631 28.7116 14.9083 28.622 14.8328 28.4745L13.7199 26.2738L11.5192 25.161C11.3704 25.0867 11.2804 24.9309 11.29 24.765L11.4276 22.2934L10.0687 20.2262C9.97708 20.087 9.97708 19.9067 10.0687 19.7677L11.4316 17.7046L11.2942 15.2329C11.2864 15.0674 11.376 14.9125 11.5235 14.837L13.724 13.7242L14.837 11.5235C14.9112 11.3747 15.0669 11.2845 15.2329 11.2942L17.7044 11.4318L19.7675 10.0687C19.9067 9.97708 20.087 9.97708 20.226 10.0687L22.2892 11.4318L24.765 11.2983C24.9304 11.2905 25.0853 11.3802 25.161 11.5275L26.2738 13.7282L28.4745 14.8411C28.6231 14.9153 28.7133 15.0711 28.7037 15.237ZM27.7243 22.206C27.7165 22.1159 27.7401 22.0262 27.7909 21.9517L29.0789 20.001L27.7909 18.0504C27.7443 17.974 27.721 17.8856 27.7243 17.7962L27.8534 15.4579L25.7736 14.4077C25.6943 14.3679 25.63 14.3036 25.5903 14.2243L24.5399 12.1444L22.2017 12.2737C22.1119 12.2815 22.022 12.2579 21.9474 12.2069L19.9968 10.9191L18.0463 12.2069C17.9698 12.2537 17.8814 12.2768 17.792 12.2737L15.4537 12.1444L14.4034 14.2243C14.3637 14.3036 14.2994 14.3679 14.2201 14.4077L12.1402 15.4579L12.2695 17.7962C12.2773 17.8861 12.2537 17.976 12.2027 18.0504L10.9149 20.001L12.2027 21.9517C12.2494 22.028 12.2727 22.1164 12.2695 22.206L12.1402 24.5441L14.2242 25.5903C14.3036 25.63 14.3679 25.6943 14.4077 25.7736L15.4579 27.8535L17.7962 27.7243L17.8171 27.7243C17.8988 27.7246 17.9786 27.7493 18.0463 27.7951L19.9968 29.0831L21.9474 27.7951C22.0238 27.7484 22.1122 27.7252 22.2017 27.7285L24.5399 27.8576L25.5903 25.7779C25.63 25.6986 25.6943 25.6341 25.7736 25.5944L27.8534 24.5441L27.7243 22.206ZM19.9968 13.7742C16.5625 13.7742 13.7699 16.5667 13.7699 20.001C13.7699 23.4355 16.5625 26.228 19.9968 26.228C23.4313 26.228 26.2238 23.4355 26.2238 20.001C26.2238 16.5667 23.4313 13.7742 19.9968 13.7742ZM19.9968 25.3944C17.0209 25.3944 14.6035 22.9728 14.6035 20.001C14.6035 17.0292 17.0209 14.6077 19.9968 14.6077C22.9756 14.6077 25.3902 17.0224 25.3902 20.001C25.3902 22.9796 22.9756 25.3944 19.9968 25.3944ZM22.2266 18.1422L19.2216 20.9805L17.7795 19.4968C17.6196 19.3322 17.3563 19.3284 17.1919 19.4883C17.0273 19.6484 17.0235 19.9115 17.1834 20.0761L18.9131 21.8517C19.0738 22.0134 19.3335 22.0189 19.5009 21.8641L22.8061 18.7466C22.8863 18.6709 22.9332 18.5663 22.9363 18.4561C22.9394 18.3459 22.8986 18.2389 22.8227 18.1588C22.6618 17.9916 22.3966 17.9843 22.2266 18.1422Z" id="Combined-Shape" fill="#FDC113" fill-rule="evenodd" stroke="none" />
  </g>
</svg>