<?xml version="1.0" encoding="utf-8"?>
<svg width="60px" height="60px" viewBox="0 0 60 60" version="1.1" xmlns:xlink="http://www.w3.org/1999/xlink" xmlns="http://www.w3.org/2000/svg">
  <defs>
    <radialGradient gradientUnits="objectBoundingBox" cx="50%" cy="50%" fx="50%" fy="50%" r="115.6378%" gradientTransform="translate(0.5,0.5),rotate(-0.9181773),translate(-0.5,-0.5)" id="gradient_1">
      <stop offset="0%" stop-color="#FFFFFF" />
      <stop offset="28.125086%" stop-color="#FDF6E2" />
      <stop offset="100%" stop-color="#FFCA2F" />
    </radialGradient>
  </defs>
  <g id="Group-3">
    <path d="M60 30L60 30C60 46.5796 46.5796 60 30 60L30 60C13.4442 60 0 46.5796 0 30L0 30C0 13.4442 13.4204 0 30 0L30 0C46.5796 0 60 13.4442 60 30Z" id="Path-Copy" fill="url(#gradient_1)" stroke="none" />
    <path d="M36.515 18.0386C33.3272 18.0386 30.7336 20.6321 30.7336 23.82C30.7336 25.3187 31.1865 26.0927 31.6661 26.9122C32.1927 27.8122 32.7372 28.743 32.868 30.9398L32.868 31.784C32.868 32.3658 33.2395 32.8623 33.7576 33.0493L33.7576 33.5058C33.7576 34.085 34.1258 34.58 34.6405 34.7687L34.6405 35.2276C34.6405 35.969 35.2438 36.5722 35.9852 36.5722L37.1024 36.5722C37.8439 36.5722 38.4471 35.969 38.4471 35.2276L38.4471 34.7687C38.9618 34.58 39.3299 34.085 39.3299 33.5058L39.3299 33.027C39.8178 32.825 40.162 32.3441 40.162 31.784L40.162 30.9398C40.2928 28.743 40.8373 27.8123 41.364 26.9122C41.8435 26.0927 42.2964 25.3187 42.2964 23.82C42.2964 20.6321 39.7029 18.0386 36.515 18.0386L36.515 18.0386ZM35.1163 24.6061L34.3692 24.6061C33.9572 24.6061 33.622 24.2709 33.622 23.859C33.622 23.447 33.9572 23.1118 34.3692 23.1118C34.7812 23.1118 35.1163 23.447 35.1163 23.859L35.1163 24.6061ZM36.946 30.4392L36.0841 30.4392L36.0841 25.5739L36.946 25.5739L36.946 30.4392ZM39.1943 31.4069L39.1943 31.784C39.1943 31.9919 39.0252 32.1609 38.8174 32.1609L34.2128 32.1609C34.0049 32.1609 33.8358 31.9918 33.8358 31.784L33.8358 31.4069L39.1943 31.4069ZM37.9853 33.8826L35.1024 33.8826C34.8944 33.8826 34.7254 33.7135 34.7254 33.5057L34.7254 33.1287L38.3622 33.1287L38.3622 33.5057C38.3622 33.7135 38.1931 33.8826 37.9853 33.8826ZM37.1024 35.6044L35.9852 35.6044C35.7773 35.6044 35.6082 35.4353 35.6082 35.2275L35.6082 34.8504L37.4794 34.8504L37.4794 35.2275C37.4794 35.4353 37.3103 35.6044 37.1024 35.6044ZM40.5287 26.4235C40.0326 27.2713 39.423 28.3132 39.2292 30.4392L37.9137 30.4392L37.9137 25.5739L38.6609 25.5739C39.6065 25.5739 40.3758 24.8046 40.3758 23.859C40.3758 22.9133 39.6065 22.1441 38.6609 22.1441C37.7153 22.1441 36.946 22.9133 36.946 23.859L36.946 24.6061L36.0841 24.6061L36.0841 23.859C36.0841 22.9133 35.3148 22.1441 34.3692 22.1441C33.4236 22.1441 32.6542 22.9133 32.6542 23.859C32.6542 24.8046 33.4236 25.5739 34.3692 25.5739L35.1163 25.5739L35.1163 30.4392L33.8009 30.4392C33.6071 28.3132 32.9975 27.2713 32.5014 26.4235C32.0544 25.6596 31.7014 25.0563 31.7014 23.82C31.7014 21.1657 33.8607 19.0063 36.515 19.0063C39.1693 19.0063 41.3287 21.1657 41.3287 23.82C41.3287 25.0563 40.9756 25.6596 40.5287 26.4235ZM37.9137 24.6061L37.9137 23.859C37.9137 23.4469 38.2489 23.1118 38.6609 23.1118C39.0729 23.1118 39.4081 23.447 39.4081 23.859C39.4081 24.2709 39.0729 24.6061 38.6609 24.6061L37.9137 24.6061ZM36.0312 16.7317L36.0312 15.4839C36.0312 15.2167 36.2478 15 36.515 15C36.7822 15 36.9989 15.2167 36.9989 15.4839L36.9989 16.7317C36.9989 16.9989 36.7822 17.2156 36.515 17.2156C36.2478 17.2156 36.0312 16.999 36.0312 16.7317ZM31.4765 16.9635C31.3429 16.7321 31.4222 16.4362 31.6536 16.3026C31.8852 16.169 32.181 16.2483 32.3146 16.4797L32.9385 17.5603C33.0722 17.7918 32.9928 18.0877 32.7614 18.2213C32.6852 18.2653 32.602 18.2862 32.5199 18.2862C32.3526 18.2862 32.1901 18.1994 32.1004 18.0442L31.4765 16.9635ZM28.0949 19.8614C28.2284 19.63 28.5244 19.5506 28.7558 19.6843L29.8365 20.3082C30.0679 20.4418 30.1473 20.7377 30.0136 20.9692C29.924 21.1244 29.7613 21.2111 29.5941 21.2111C29.512 21.2111 29.4289 21.1902 29.3526 21.1462L28.272 20.5224C28.0406 20.3888 27.9612 20.0928 28.0949 19.8614L28.0949 19.8614ZM40.0916 17.5604L40.7154 16.4797C40.849 16.2483 41.1449 16.169 41.3764 16.3026C41.6078 16.4363 41.6872 16.7322 41.5535 16.9636L40.9296 18.0443C40.84 18.1995 40.6773 18.2863 40.5101 18.2863C40.428 18.2863 40.3449 18.2653 40.2686 18.2214C40.0372 18.0878 39.9579 17.7918 40.0916 17.5604L40.0916 17.5604ZM44.7581 20.5224L43.6774 21.1462C43.6012 21.1902 43.518 21.2111 43.4359 21.2111C43.2686 21.2111 43.1061 21.1244 43.0164 20.9692C42.8828 20.7377 42.9621 20.4418 43.1935 20.3082L44.2742 19.6843C44.5057 19.5507 44.8016 19.63 44.9352 19.8614C45.0688 20.0928 44.9895 20.3888 44.7581 20.5224L44.7581 20.5224ZM32.3271 35.306L32.3271 33.0017C32.3271 32.8501 32.2561 32.7073 32.1352 32.6159C32.0143 32.5244 31.8573 32.4948 31.7118 32.5361L30.7149 32.8176C30.4242 31.7353 29.4066 30.9158 27.8307 30.5249C27.0127 30.322 26.1955 30.1868 25.3817 30.1183C26.5764 29.5095 27.4224 28.0267 27.4224 26.2973C27.4224 24.2243 26.1777 22.9366 24.174 22.9366C22.1703 22.9366 20.9256 24.2244 20.9256 26.2973C20.9256 28.0227 21.7677 29.5027 22.958 30.1141C22.1361 30.1813 21.3203 30.3184 20.5133 30.5259C18.9166 30.9364 17.9168 31.7387 17.6317 32.8172L16.6363 32.536C16.4906 32.4948 16.3337 32.5243 16.2128 32.6158C16.092 32.7073 16.0209 32.8501 16.0209 33.0016L16.0209 35.3059C15.4279 35.508 15 36.07 15 36.7304L15 38.5201C15 39.1805 15.4279 39.7426 16.0209 39.9446L16.0209 42.3502C16.0209 42.5668 16.1649 42.757 16.3733 42.8159L24.0425 44.9818C24.0855 44.994 24.1297 45 24.174 45C24.2183 45 24.2626 44.9939 24.3055 44.9818L31.9747 42.8159C32.1832 42.757 32.3271 42.5668 32.3271 42.3502L32.3271 39.9446C32.9201 39.7426 33.348 39.1806 33.348 38.5201L33.348 36.7304C33.348 36.07 32.92 35.508 32.3271 35.306L32.3271 35.306ZM21.8933 26.2972C21.8933 24.2151 23.3223 23.9043 24.174 23.9043C25.0257 23.9043 26.4547 24.2152 26.4547 26.2972C26.4547 28.0339 25.4316 29.4468 24.174 29.4468C22.9164 29.4468 21.8933 28.0339 21.8933 26.2972ZM20.7543 31.4631C22.9827 30.89 25.2852 30.8904 27.5978 31.4641C28.3361 31.6473 29.5259 32.092 29.7827 33.0808L24.174 34.6648L18.565 33.0807C18.8036 32.1582 19.8573 31.6937 20.7543 31.4631ZM15.9677 36.7304C15.9677 36.4343 16.2086 36.1934 16.5048 36.1934C16.8009 36.1934 17.0418 36.4343 17.0418 36.7304L17.0418 38.5201C17.0418 38.8162 16.8009 39.0571 16.5048 39.0571C16.2086 39.0571 15.9677 38.8162 15.9677 38.5201L15.9677 36.7304ZM16.9886 39.9446C17.5816 39.7426 18.0095 39.1806 18.0095 38.5201L18.0095 36.7304C18.0095 36.07 17.5816 35.508 16.9886 35.3059L16.9886 33.6411L23.6901 35.5337L23.6901 43.8766L16.9886 41.984L16.9886 39.9446ZM24.6579 43.8766L24.6579 35.5337L31.3594 33.6411L31.3594 35.306C30.7664 35.508 30.3385 36.07 30.3385 36.7305L30.3385 38.5202C30.3385 39.1806 30.7664 39.7426 31.3594 39.9446L31.3594 41.9841L24.6579 43.8766ZM32.3802 38.5201C32.3802 38.8162 32.1394 39.0571 31.8432 39.0571C31.5471 39.0571 31.3063 38.8162 31.3063 38.5201L31.3063 36.7304C31.3063 36.4343 31.5471 36.1934 31.8432 36.1934C32.1394 36.1934 32.3802 36.4343 32.3802 36.7304L32.3802 38.5201Z" id="Shape" fill="#FDC113" stroke="none" />
  </g>
</svg>