<?xml version="1.0" encoding="utf-8"?>
<svg width="40px" height="40px" viewBox="0 0 40 40" version="1.1" xmlns:xlink="http://www.w3.org/1999/xlink" xmlns="http://www.w3.org/2000/svg">
  <defs>
    <radialGradient gradientUnits="objectBoundingBox" cx="50%" cy="50%" fx="50%" fy="50%" r="115.637794%" gradientTransform="translate(0.5,0.5),rotate(-0.91817814),translate(-0.5,-0.5)" id="gradient_1">
      <stop offset="0%" stop-color="#FFFFFF" />
      <stop offset="28.125086%" stop-color="#FFF7F7" />
      <stop offset="100%" stop-color="#FF0000" />
    </radialGradient>
  </defs>
  <g id="Group-36">
    <path d="M40 20L40 20C40 31.053 31.053 40 20 40L20 40C8.96279 40 0 31.053 0 20L0 20C0 8.96279 8.94695 0 20 0L20 0C31.053 0 40 8.96279 40 20Z" id="Path-Copy" fill="url(#gradient_1)" stroke="none" />
    <path d="M29.2317 12.7304C29.3212 12.7761 29.4118 12.8521 29.4677 12.9607C29.5053 13.0322 29.5244 13.1148 29.5237 13.1922C29.5237 13.2918 29.4953 13.3804 29.457 13.4549C29.4179 13.5297 29.3681 13.593 29.3112 13.6502L25.8608 17.1004C25.7183 17.2407 25.5474 17.3404 25.3642 17.4174C25.1808 17.4922 24.9891 17.5427 24.7893 17.5441L22.8172 17.5441C22.7563 17.5439 22.6977 17.5367 22.6405 17.5246L21.1024 19.1082C21.4963 19.6 21.7333 20.2229 21.7333 20.9017C21.7333 22.4882 20.4464 23.7748 18.8599 23.7748C17.2727 23.7748 15.9865 22.4882 15.9865 20.9017C15.9865 19.3152 17.2727 18.0286 18.8599 18.0286C19.5087 18.0286 20.1048 18.2465 20.586 18.609L22.071 17.0797C22.014 16.9668 21.9792 16.841 21.9788 16.706L21.9788 14.7351C21.9802 14.5353 22.031 14.3435 22.1057 14.1599C22.1824 13.977 22.2822 13.806 22.4225 13.6638L25.8737 10.2127C25.9308 10.1557 25.9942 10.1057 26.0687 10.0667C26.1433 10.0283 26.2319 10.0003 26.3317 10C26.4093 9.99977 26.4917 10.0188 26.5632 10.056C26.6349 10.0931 26.6942 10.1465 26.7375 10.2036C26.8247 10.3194 26.8578 10.4437 26.8711 10.5688L27.0424 12.2793C27.0448 12.3141 27.0688 12.3688 27.1126 12.4117C27.1555 12.4555 27.2103 12.4796 27.2451 12.4822L28.955 12.6527C29.0493 12.6625 29.1414 12.6841 29.2317 12.7304ZM22.6976 14.7354L22.6976 16.4352L26.4025 12.6206C26.3658 12.537 26.3382 12.4477 26.3282 12.3513L26.185 10.9182L22.931 14.1718C22.8851 14.2157 22.8155 14.3217 22.77 14.4351C22.7221 14.5479 22.6962 14.672 22.6976 14.7354ZM26.8457 17.3005L26.4534 17.6931C26.4005 17.7454 26.3481 17.7912 26.2959 17.8333C26.7475 18.8449 27.0012 19.9638 27.0012 21.1413C27.0012 25.6303 23.349 29.2822 18.8599 29.2822C14.3705 29.2822 10.7183 25.6303 10.7183 21.1413C10.7183 16.6529 14.3705 13.0013 18.8599 13.0013C19.7949 13.0013 20.6926 13.1618 21.5298 13.4531L21.5298 13.4528C21.6096 13.3261 21.7027 13.1999 21.8301 13.0715L22.0316 12.8697C21.0465 12.4917 19.9778 12.2826 18.8601 12.2826C13.9675 12.2829 10 16.2492 10 21.1411C10 26.0337 13.9675 30 18.8599 30C23.753 30 27.7196 26.0337 27.7196 21.1411C27.7195 19.7654 27.4059 18.4623 26.8457 17.3005ZM25.0898 16.7539C25.2032 16.7079 25.3087 16.6386 25.353 16.5929L28.6062 13.3397L27.1738 13.1968C27.0802 13.1868 26.9942 13.1604 26.9128 13.1256L23.3189 16.8263L24.7894 16.8263C24.8528 16.8278 24.9769 16.8018 25.0898 16.7539ZM24.29 18.3823L23.4848 18.3823C23.8944 19.1314 24.1276 19.9898 24.1276 20.9017C24.1276 23.8063 21.7644 26.1692 18.8599 26.1692C15.9551 26.1692 13.5919 23.8062 13.5919 20.9017C13.5919 17.9976 15.955 15.6347 18.8599 15.6347C19.6763 15.6347 20.4504 15.8214 21.1408 16.1547L21.1408 15.3677C20.4377 15.0777 19.6675 14.9164 18.8599 14.9164C15.5535 14.9164 12.8733 17.5964 12.8733 20.9018C12.8733 24.2072 15.5535 26.8876 18.8599 26.8876C22.1655 26.8876 24.8462 24.2072 24.8462 20.9018C24.8462 20.0014 24.6459 19.1483 24.29 18.3823ZM16.7046 20.9019C16.7046 22.0902 17.6714 23.0567 18.8599 23.0567C20.0481 23.0567 21.0149 22.0902 21.0149 20.9019C21.0149 20.426 20.8579 19.9872 20.5958 19.6304L19.1176 21.1524C18.9795 21.2946 18.7518 21.298 18.6096 21.1598C18.4674 21.0217 18.464 20.7942 18.6022 20.652L20.0812 19.1287C19.7338 18.8886 19.3132 18.7471 18.8599 18.7471C17.6714 18.7471 16.7046 19.7139 16.7046 20.9019Z" id="Combined-Shape" fill="#FF3939" fill-rule="evenodd" stroke="none" />
  </g>
</svg>