<?xml version="1.0" encoding="utf-8"?>
<svg width="40px" height="40px" viewBox="0 0 40 40" version="1.1" xmlns:xlink="http://www.w3.org/1999/xlink" xmlns="http://www.w3.org/2000/svg">
  <defs>
    <radialGradient gradientUnits="objectBoundingBox" cx="50%" cy="50%" fx="50%" fy="50%" r="50%" gradientTransform="translate(0.5,0.5),translate(-0.5,-0.5)" id="gradient_1">
      <stop offset="0%" stop-color="#FFFFFF" />
      <stop offset="53.22556%" stop-color="#EEFFEE" />
      <stop offset="100%" stop-color="#B4F1B4" />
    </radialGradient>
  </defs>
  <g id="Group-38">
    <path d="M40 20L40 20C40 31.053 31.053 40 20 40L20 40C8.96279 40 0 31.053 0 20L0 20C0 8.96279 8.94695 0 20 0L20 0C31.053 0 40 8.96279 40 20Z" id="Path-Copy" fill="url(#gradient_1)" stroke="none" />
    <path d="M30.2641 27.0174L28.1947 24.6033C28.1296 24.5276 28.0339 24.4835 27.933 24.4835L10.3451 24.4835C10.2221 24.4835 10.1086 24.5486 10.0466 24.6548C9.98463 24.7609 9.98463 24.8923 10.0456 24.9995L11.3267 27.2423L10.0466 29.485C9.98568 29.5912 9.98568 29.7225 10.0477 29.8287C10.1097 29.9348 10.2232 30 10.3462 30L27.933 30C28.0339 30 28.1296 29.9559 28.1947 29.8791L30.2641 27.4651C30.3744 27.3369 30.3744 27.1466 30.2641 27.0174ZM10.94 29.3106L12.0246 27.4125C12.0855 27.3064 12.0855 27.1761 12.0246 27.0699L10.94 25.1719L13.9394 25.1719L15.1218 27.2412L13.9394 29.3106L10.94 29.3106ZM14.7329 29.3106L15.8175 27.4125C15.8784 27.3064 15.8784 27.1761 15.8175 27.0699L14.7329 25.1719L17.6188 25.1719L18.8012 27.2412L17.6188 29.3106L14.7329 29.3106ZM18.4134 29.3106L19.498 27.4125C19.5589 27.3064 19.5589 27.1761 19.498 27.0699L18.4134 25.1719L21.2993 25.1719L22.4817 27.2412L21.2993 29.3106L18.4134 29.3106ZM22.0939 29.3106L23.1785 27.4125C23.2394 27.3064 23.2394 27.1761 23.1785 27.0699L22.0939 25.1719L24.9798 25.1719L26.1622 27.2412L24.9798 29.3106L22.0939 29.3106ZM27.7743 29.3106L25.7743 29.3106L26.8589 27.4125C26.9199 27.3064 26.9199 27.1761 26.8589 27.0699L25.7743 25.1719L27.7743 25.1719L29.5484 27.2412L27.7743 29.3106ZM20.7749 17.5135C20.592 17.1887 20.2347 17.0237 19.8847 17.0689L19.2626 16.0285C19.1648 15.8656 18.9525 15.812 18.7896 15.9097C18.6267 16.0074 18.5731 16.2197 18.6709 16.3826L19.2899 17.4157C19.086 17.6879 19.0503 18.0642 19.2279 18.3795C19.4675 18.8062 20.0098 18.9575 20.4365 18.7179C20.8632 18.4793 21.0156 17.9402 20.7749 17.5135L20.7749 17.5135ZM20.7749 17.5135C20.592 17.1887 20.2347 17.0237 19.8847 17.0689L19.2626 16.0285C19.1648 15.8656 18.9525 15.812 18.7896 15.9097C18.6267 16.0074 18.5731 16.2197 18.6709 16.3826L19.2899 17.4157C19.086 17.6879 19.0503 18.0642 19.2279 18.3795C19.4675 18.8062 20.0098 18.9575 20.4365 18.7179C20.8632 18.4793 21.0156 17.9402 20.7749 17.5135L20.7749 17.5135ZM20.7749 17.5135C20.592 17.1887 20.2347 17.0237 19.8847 17.0689L19.2626 16.0285C19.1648 15.8656 18.9525 15.812 18.7896 15.9097C18.6267 16.0074 18.5731 16.2197 18.6709 16.3826L19.2899 17.4157C19.086 17.6879 19.0503 18.0642 19.2279 18.3795C19.4675 18.8062 20.0098 18.9575 20.4365 18.7179C20.8632 18.4793 21.0156 17.9402 20.7749 17.5135L20.7749 17.5135ZM20.7749 17.5135C20.592 17.1887 20.2347 17.0237 19.8847 17.0689L19.2626 16.0285C19.1648 15.8656 18.9525 15.812 18.7896 15.9097C18.6267 16.0074 18.5731 16.2197 18.6709 16.3826L19.2899 17.4157C19.086 17.6879 19.0503 18.0642 19.2279 18.3795C19.4675 18.8062 20.0098 18.9575 20.4365 18.7179C20.8632 18.4793 21.0156 17.9402 20.7749 17.5135L20.7749 17.5135ZM20.7749 17.5135C20.592 17.1887 20.2347 17.0237 19.8847 17.0689L19.2626 16.0285C19.1648 15.8656 18.9525 15.812 18.7896 15.9097C18.6267 16.0074 18.5731 16.2197 18.6709 16.3826L19.2899 17.4157C19.086 17.6879 19.0503 18.0642 19.2279 18.3795C19.4675 18.8062 20.0098 18.9575 20.4365 18.7179C20.8632 18.4793 21.0156 17.9402 20.7749 17.5135L20.7749 17.5135ZM20.7749 17.5135C20.592 17.1887 20.2347 17.0237 19.8847 17.0689L19.2626 16.0285C19.1648 15.8656 18.9525 15.812 18.7896 15.9097C18.6267 16.0074 18.5731 16.2197 18.6709 16.3826L19.2899 17.4157C19.086 17.6879 19.0503 18.0642 19.2279 18.3795C19.4675 18.8062 20.0098 18.9575 20.4365 18.7179C20.8632 18.4793 21.0156 17.9402 20.7749 17.5135L20.7749 17.5135ZM23.7376 15.8529C22.5784 13.7973 19.9636 13.0658 17.9016 14.2208C15.8385 15.3769 15.106 17.9854 16.2652 20.041C17.4234 22.0967 20.0392 22.8282 22.1012 21.6732C24.1632 20.5182 24.8968 17.9097 23.7376 15.8529ZM21.7639 21.072C20.0329 22.0421 17.8385 21.4283 16.8664 19.7037C15.8942 17.979 16.5101 15.792 18.24 14.823C19.9709 13.854 22.1653 14.4667 23.1375 16.1924C24.1086 17.916 23.4927 20.1031 21.7639 21.072ZM19.8847 17.07L19.2626 16.0295C19.1648 15.8666 18.9525 15.813 18.7896 15.9107C18.6267 16.0085 18.5731 16.2208 18.6709 16.3837L19.2899 17.4168C19.086 17.689 19.0503 18.0652 19.2279 18.3805C19.4675 18.8072 20.0098 18.9585 20.4365 18.7189C20.8642 18.4793 21.0156 17.9391 20.7749 17.5135C20.592 17.1887 20.2347 17.0237 19.8847 17.07ZM20.7749 17.5135C20.592 17.1887 20.2347 17.0237 19.8847 17.0689L19.2626 16.0285C19.1648 15.8656 18.9525 15.812 18.7896 15.9097C18.6267 16.0074 18.5731 16.2197 18.6709 16.3826L19.2899 17.4157C19.086 17.6879 19.0503 18.0642 19.2279 18.3795C19.4675 18.8062 20.0098 18.9575 20.4365 18.7179C20.8632 18.4793 21.0156 17.9402 20.7749 17.5135L20.7749 17.5135ZM20.7749 17.5135C20.592 17.1887 20.2347 17.0237 19.8847 17.0689L19.2626 16.0285C19.1648 15.8656 18.9525 15.812 18.7896 15.9097C18.6267 16.0074 18.5731 16.2197 18.6709 16.3826L19.2899 17.4157C19.086 17.6879 19.0503 18.0642 19.2279 18.3795C19.4675 18.8062 20.0098 18.9575 20.4365 18.7179C20.8632 18.4793 21.0156 17.9402 20.7749 17.5135L20.7749 17.5135ZM20.7749 17.5135C20.592 17.1887 20.2347 17.0237 19.8847 17.0689L19.2626 16.0285C19.1648 15.8656 18.9525 15.812 18.7896 15.9097C18.6267 16.0074 18.5731 16.2197 18.6709 16.3826L19.2899 17.4157C19.086 17.6879 19.0503 18.0642 19.2279 18.3795C19.4675 18.8062 20.0098 18.9575 20.4365 18.7179C20.8632 18.4793 21.0156 17.9402 20.7749 17.5135L20.7749 17.5135ZM20.7749 17.5135C20.592 17.1887 20.2347 17.0237 19.8847 17.0689L19.2626 16.0285C19.1648 15.8656 18.9525 15.812 18.7896 15.9097C18.6267 16.0074 18.5731 16.2197 18.6709 16.3826L19.2899 17.4157C19.086 17.6879 19.0503 18.0642 19.2279 18.3795C19.4675 18.8062 20.0098 18.9575 20.4365 18.7179C20.8632 18.4793 21.0156 17.9402 20.7749 17.5135L20.7749 17.5135ZM23.7376 15.8529C22.5784 13.7973 19.9636 13.0658 17.9016 14.2208C15.8385 15.3769 15.106 17.9854 16.2652 20.041C17.4234 22.0967 20.0392 22.8282 22.1012 21.6732C24.1632 20.5182 24.8968 17.9097 23.7376 15.8529ZM21.7639 21.072C20.0329 22.0421 17.8385 21.4283 16.8664 19.7037C15.8942 17.979 16.5101 15.792 18.24 14.823C19.9709 13.854 22.1653 14.4667 23.1375 16.1924C24.1086 17.916 23.4927 20.1031 21.7639 21.072ZM19.8847 17.07L19.2626 16.0295C19.1648 15.8666 18.9525 15.813 18.7896 15.9107C18.6267 16.0085 18.5731 16.2208 18.6709 16.3837L19.2899 17.4168C19.086 17.689 19.0503 18.0652 19.2279 18.3805C19.4675 18.8072 20.0098 18.9585 20.4365 18.7189C20.8642 18.4793 21.0156 17.9391 20.7749 17.5135C20.592 17.1887 20.2347 17.0237 19.8847 17.07ZM20.7749 17.5135C20.592 17.1887 20.2347 17.0237 19.8847 17.0689L19.2626 16.0285C19.1648 15.8656 18.9525 15.812 18.7896 15.9097C18.6267 16.0074 18.5731 16.2197 18.6709 16.3826L19.2899 17.4157C19.086 17.6879 19.0503 18.0642 19.2279 18.3795C19.4675 18.8062 20.0098 18.9575 20.4365 18.7179C20.8632 18.4793 21.0156 17.9402 20.7749 17.5135L20.7749 17.5135ZM20.7749 17.5135C20.592 17.1887 20.2347 17.0237 19.8847 17.0689L19.2626 16.0285C19.1648 15.8656 18.9525 15.812 18.7896 15.9097C18.6267 16.0074 18.5731 16.2197 18.6709 16.3826L19.2899 17.4157C19.086 17.6879 19.0503 18.0642 19.2279 18.3795C19.4675 18.8062 20.0098 18.9575 20.4365 18.7179C20.8632 18.4793 21.0156 17.9402 20.7749 17.5135L20.7749 17.5135ZM20.7749 17.5135C20.592 17.1887 20.2347 17.0237 19.8847 17.0689L19.2626 16.0285C19.1648 15.8656 18.9525 15.812 18.7896 15.9097C18.6267 16.0074 18.5731 16.2197 18.6709 16.3826L19.2899 17.4157C19.086 17.6879 19.0503 18.0642 19.2279 18.3795C19.4675 18.8062 20.0098 18.9575 20.4365 18.7179C20.8632 18.4793 21.0156 17.9402 20.7749 17.5135L20.7749 17.5135ZM20.7749 17.5135C20.592 17.1887 20.2347 17.0237 19.8847 17.0689L19.2626 16.0285C19.1648 15.8656 18.9525 15.812 18.7896 15.9097C18.6267 16.0074 18.5731 16.2197 18.6709 16.3826L19.2899 17.4157C19.086 17.6879 19.0503 18.0642 19.2279 18.3795C19.4675 18.8062 20.0098 18.9575 20.4365 18.7179C20.8632 18.4793 21.0156 17.9402 20.7749 17.5135L20.7749 17.5135ZM23.7376 15.8529C22.5784 13.7973 19.9636 13.0658 17.9016 14.2208C15.8385 15.3769 15.106 17.9854 16.2652 20.041C17.4234 22.0967 20.0392 22.8282 22.1012 21.6732C24.1632 20.5182 24.8968 17.9097 23.7376 15.8529ZM21.7639 21.072C20.0329 22.0421 17.8385 21.4283 16.8664 19.7037C15.8942 17.979 16.5101 15.792 18.24 14.823C19.9709 13.854 22.1653 14.4667 23.1375 16.1924C24.1086 17.916 23.4927 20.1031 21.7639 21.072ZM19.8847 17.07L19.2626 16.0295C19.1648 15.8666 18.9525 15.813 18.7896 15.9107C18.6267 16.0085 18.5731 16.2208 18.6709 16.3837L19.2899 17.4168C19.086 17.689 19.0503 18.0652 19.2279 18.3805C19.4675 18.8072 20.0098 18.9585 20.4365 18.7189C20.8642 18.4793 21.0156 17.9391 20.7749 17.5135C20.592 17.1887 20.2347 17.0237 19.8847 17.07ZM23.7376 15.8529C22.5784 13.7973 19.9636 13.0658 17.9016 14.2208C15.8385 15.3769 15.106 17.9854 16.2652 20.041C17.4234 22.0967 20.0392 22.8282 22.1012 21.6732C24.1632 20.5182 24.8968 17.9097 23.7376 15.8529ZM21.7639 21.072C20.0329 22.0421 17.8385 21.4283 16.8664 19.7037C15.8942 17.979 16.5101 15.792 18.24 14.823C19.9709 13.854 22.1653 14.4667 23.1375 16.1924C24.1086 17.916 23.4927 20.1031 21.7639 21.072ZM19.8847 17.07L19.2626 16.0295C19.1648 15.8666 18.9525 15.813 18.7896 15.9107C18.6267 16.0085 18.5731 16.2208 18.6709 16.3837L19.2899 17.4168C19.086 17.689 19.0503 18.0652 19.2279 18.3805C19.4675 18.8072 20.0098 18.9585 20.4365 18.7189C20.8642 18.4793 21.0156 17.9391 20.7749 17.5135C20.592 17.1887 20.2347 17.0237 19.8847 17.07ZM25.1112 15.0826C24.6046 14.184 23.8942 13.4694 23.0692 12.9659C22.2452 12.4625 21.3067 12.1693 20.3451 12.1115L20.3451 11.7468L20.6793 11.751C21.1154 11.7563 21.4727 11.4074 21.4769 10.9723L21.479 10.8146L21.479 10.8104C21.4843 10.3753 21.1354 10.019 20.6992 10.0138L19.4854 10.0001C19.0492 9.99486 18.6929 10.3438 18.6877 10.7789L18.6856 10.9407C18.6803 11.3748 19.0282 11.7321 19.4654 11.7374L19.6556 11.7395L19.6556 12.1115C18.9021 12.1546 18.1475 12.3448 17.4328 12.6916L17.2531 12.37L17.4801 12.2429C17.8606 12.0295 17.9951 11.5492 17.7817 11.1698L17.7019 11.028C17.4885 10.6496 17.0082 10.514 16.6278 10.7274L15.5705 11.3201C15.1901 11.5335 15.0555 12.0138 15.2699 12.3932L15.272 12.3974L15.354 12.5435L15.3488 12.535C15.5621 12.9134 16.0434 13.0479 16.4228 12.8356L16.652 12.7074L16.8338 13.029C14.24 14.6874 13.3624 18.0999 14.8916 20.8125C16.4764 23.6248 20.0539 24.6243 22.8737 23.0447C25.6945 21.463 26.6971 17.896 25.1112 15.0826ZM19.4749 11.0469C19.4223 11.0469 19.3792 11.0059 19.3771 10.9544L19.3782 10.7894L19.3782 10.7852C19.3782 10.7305 19.4244 10.6885 19.478 10.6885L20.6919 10.7022C20.7465 10.7032 20.7907 10.7463 20.7896 10.801L20.7875 10.9628C20.7865 11.0175 20.7413 11.0605 20.6866 11.0595L19.4749 11.0469ZM16.0844 12.2345C16.0361 12.2618 15.9762 12.2439 15.9489 12.1966L15.952 12.2019L15.87 12.0548C15.8438 12.0075 15.8606 11.9486 15.9079 11.9223L16.9662 11.3296C17.0145 11.3023 17.0744 11.3191 17.1018 11.3664L17.1816 11.5083C17.2079 11.5555 17.1911 11.6144 17.1438 11.6407L16.0844 12.2345ZM22.5353 22.4415C20.0466 23.8361 16.8895 22.9543 15.4906 20.473C14.0929 17.9938 14.9767 14.8503 17.4623 13.4546L17.4686 13.4504C19.1123 12.5308 21.0471 12.6044 22.5742 13.4746C23.3582 13.9213 24.035 14.5792 24.51 15.421C25.9089 17.9023 25.024 21.0479 22.5353 22.4415ZM17.9016 14.2208C15.8385 15.3769 15.106 17.9854 16.2652 20.041C17.4234 22.0967 20.0392 22.8282 22.1012 21.6732C24.1643 20.5171 24.8968 17.9097 23.7386 15.8529C22.5784 13.7973 19.9636 13.0658 17.9016 14.2208ZM21.7639 21.072C20.0329 22.0421 17.8385 21.4283 16.8664 19.7037C15.8942 17.979 16.5101 15.792 18.24 14.823C19.9709 13.854 22.1653 14.4667 23.1375 16.1924C24.1086 17.916 23.4927 20.1031 21.7639 21.072ZM19.8847 17.07L19.2626 16.0295C19.1648 15.8666 18.9525 15.813 18.7896 15.9107C18.6267 16.0085 18.5731 16.2208 18.6709 16.3837L19.2899 17.4168C19.086 17.689 19.0503 18.0652 19.2279 18.3805C19.4675 18.8072 20.0098 18.9585 20.4365 18.7189C20.8642 18.4793 21.0156 17.9391 20.7749 17.5135C20.592 17.1887 20.2347 17.0237 19.8847 17.07ZM20.7749 17.5135C20.592 17.1887 20.2347 17.0237 19.8847 17.0689L19.2626 16.0285C19.1648 15.8656 18.9525 15.812 18.7896 15.9097C18.6267 16.0074 18.5731 16.2197 18.6709 16.3826L19.2899 17.4157C19.086 17.6879 19.0503 18.0642 19.2279 18.3795C19.4675 18.8062 20.0098 18.9575 20.4365 18.7179C20.8632 18.4793 21.0156 17.9402 20.7749 17.5135L20.7749 17.5135ZM20.7749 17.5135C20.592 17.1887 20.2347 17.0237 19.8847 17.0689L19.2626 16.0285C19.1648 15.8656 18.9525 15.812 18.7896 15.9097C18.6267 16.0074 18.5731 16.2197 18.6709 16.3826L19.2899 17.4157C19.086 17.6879 19.0503 18.0642 19.2279 18.3795C19.4675 18.8062 20.0098 18.9575 20.4365 18.7179C20.8632 18.4793 21.0156 17.9402 20.7749 17.5135L20.7749 17.5135ZM23.7376 15.8529C22.5784 13.7973 19.9636 13.0658 17.9016 14.2208C15.8385 15.3769 15.106 17.9854 16.2652 20.041C17.4234 22.0967 20.0392 22.8282 22.1012 21.6732C24.1632 20.5182 24.8968 17.9097 23.7376 15.8529ZM21.7639 21.072C20.0329 22.0421 17.8385 21.4283 16.8664 19.7037C15.8942 17.979 16.5101 15.792 18.24 14.823C19.9709 13.854 22.1653 14.4667 23.1375 16.1924C24.1086 17.916 23.4927 20.1031 21.7639 21.072ZM19.8847 17.07L19.2626 16.0295C19.1648 15.8666 18.9525 15.813 18.7896 15.9107C18.6267 16.0085 18.5731 16.2208 18.6709 16.3837L19.2899 17.4168C19.086 17.689 19.0503 18.0652 19.2279 18.3805C19.4675 18.8072 20.0098 18.9585 20.4365 18.7189C20.8642 18.4793 21.0156 17.9391 20.7749 17.5135C20.592 17.1887 20.2347 17.0237 19.8847 17.07ZM20.7749 17.5135C20.592 17.1887 20.2347 17.0237 19.8847 17.0689L19.2626 16.0285C19.1648 15.8656 18.9525 15.812 18.7896 15.9097C18.6267 16.0074 18.5731 16.2197 18.6709 16.3826L19.2899 17.4157C19.086 17.6879 19.0503 18.0642 19.2279 18.3795C19.4675 18.8062 20.0098 18.9575 20.4365 18.7179C20.8632 18.4793 21.0156 17.9402 20.7749 17.5135L20.7749 17.5135ZM20.7749 17.5135C20.592 17.1887 20.2347 17.0237 19.8847 17.0689L19.2626 16.0285C19.1648 15.8656 18.9525 15.812 18.7896 15.9097C18.6267 16.0074 18.5731 16.2197 18.6709 16.3826L19.2899 17.4157C19.086 17.6879 19.0503 18.0642 19.2279 18.3795C19.4675 18.8062 20.0098 18.9575 20.4365 18.7179C20.8632 18.4793 21.0156 17.9402 20.7749 17.5135L20.7749 17.5135ZM23.7376 15.8529C22.5784 13.7973 19.9636 13.0658 17.9016 14.2208C15.8385 15.3769 15.106 17.9854 16.2652 20.041C17.4234 22.0967 20.0392 22.8282 22.1012 21.6732C24.1632 20.5182 24.8968 17.9097 23.7376 15.8529ZM21.7639 21.072C20.0329 22.0421 17.8385 21.4283 16.8664 19.7037C15.8942 17.979 16.5101 15.792 18.24 14.823C19.9709 13.854 22.1653 14.4667 23.1375 16.1924C24.1086 17.916 23.4927 20.1031 21.7639 21.072ZM19.8847 17.07L19.2626 16.0295C19.1648 15.8666 18.9525 15.813 18.7896 15.9107C18.6267 16.0085 18.5731 16.2208 18.6709 16.3837L19.2899 17.4168C19.086 17.689 19.0503 18.0652 19.2279 18.3805C19.4675 18.8072 20.0098 18.9585 20.4365 18.7189C20.8642 18.4793 21.0156 17.9391 20.7749 17.5135C20.592 17.1887 20.2347 17.0237 19.8847 17.07ZM20.7749 17.5135C20.592 17.1887 20.2347 17.0237 19.8847 17.0689L19.2626 16.0285C19.1648 15.8656 18.9525 15.812 18.7896 15.9097C18.6267 16.0074 18.5731 16.2197 18.6709 16.3826L19.2899 17.4157C19.086 17.6879 19.0503 18.0642 19.2279 18.3795C19.4675 18.8062 20.0098 18.9575 20.4365 18.7179C20.8632 18.4793 21.0156 17.9402 20.7749 17.5135L20.7749 17.5135ZM20.7749 17.5135C20.592 17.1887 20.2347 17.0237 19.8847 17.0689L19.2626 16.0285C19.1648 15.8656 18.9525 15.812 18.7896 15.9097C18.6267 16.0074 18.5731 16.2197 18.6709 16.3826L19.2899 17.4157C19.086 17.6879 19.0503 18.0642 19.2279 18.3795C19.4675 18.8062 20.0098 18.9575 20.4365 18.7179C20.8632 18.4793 21.0156 17.9402 20.7749 17.5135L20.7749 17.5135ZM20.7749 17.5135C20.592 17.1887 20.2347 17.0237 19.8847 17.0689L19.2626 16.0285C19.1648 15.8656 18.9525 15.812 18.7896 15.9097C18.6267 16.0074 18.5731 16.2197 18.6709 16.3826L19.2899 17.4157C19.086 17.6879 19.0503 18.0642 19.2279 18.3795C19.4675 18.8062 20.0098 18.9575 20.4365 18.7179C20.8632 18.4793 21.0156 17.9402 20.7749 17.5135L20.7749 17.5135ZM20.7749 17.5135C20.592 17.1887 20.2347 17.0237 19.8847 17.0689L19.2626 16.0285C19.1648 15.8656 18.9525 15.812 18.7896 15.9097C18.6267 16.0074 18.5731 16.2197 18.6709 16.3826L19.2899 17.4157C19.086 17.6879 19.0503 18.0642 19.2279 18.3795C19.4675 18.8062 20.0098 18.9575 20.4365 18.7179C20.8632 18.4793 21.0156 17.9402 20.7749 17.5135L20.7749 17.5135ZM20.7749 17.5135C20.592 17.1887 20.2347 17.0237 19.8847 17.0689L19.2626 16.0285C19.1648 15.8656 18.9525 15.812 18.7896 15.9097C18.6267 16.0074 18.5731 16.2197 18.6709 16.3826L19.2899 17.4157C19.086 17.6879 19.0503 18.0642 19.2279 18.3795C19.4675 18.8062 20.0098 18.9575 20.4365 18.7179C20.8632 18.4793 21.0156 17.9402 20.7749 17.5135L20.7749 17.5135ZM20.7749 17.5135C20.592 17.1887 20.2347 17.0237 19.8847 17.0689L19.2626 16.0285C19.1648 15.8656 18.9525 15.812 18.7896 15.9097C18.6267 16.0074 18.5731 16.2197 18.6709 16.3826L19.2899 17.4157C19.086 17.6879 19.0503 18.0642 19.2279 18.3795C19.4675 18.8062 20.0098 18.9575 20.4365 18.7179C20.8632 18.4793 21.0156 17.9402 20.7749 17.5135L20.7749 17.5135ZM23.7376 15.8529C22.5784 13.7973 19.9636 13.0658 17.9016 14.2208C15.8385 15.3769 15.106 17.9854 16.2652 20.041C17.4234 22.0967 20.0392 22.8282 22.1012 21.6732C24.1632 20.5182 24.8968 17.9097 23.7376 15.8529ZM21.7639 21.072C20.0329 22.0421 17.8385 21.4283 16.8664 19.7037C15.8942 17.979 16.5101 15.792 18.24 14.823C19.9709 13.854 22.1653 14.4667 23.1375 16.1924C24.1086 17.916 23.4927 20.1031 21.7639 21.072ZM19.8847 17.07L19.2626 16.0295C19.1648 15.8666 18.9525 15.813 18.7896 15.9107C18.6267 16.0085 18.5731 16.2208 18.6709 16.3837L19.2899 17.4168C19.086 17.689 19.0503 18.0652 19.2279 18.3805C19.4675 18.8072 20.0098 18.9585 20.4365 18.7189C20.8642 18.4793 21.0156 17.9391 20.7749 17.5135C20.592 17.1887 20.2347 17.0237 19.8847 17.07ZM20.7749 17.5135C20.592 17.1887 20.2347 17.0237 19.8847 17.0689L19.2626 16.0285C19.1648 15.8656 18.9525 15.812 18.7896 15.9097C18.6267 16.0074 18.5731 16.2197 18.6709 16.3826L19.2899 17.4157C19.086 17.6879 19.0503 18.0642 19.2279 18.3795C19.4675 18.8062 20.0098 18.9575 20.4365 18.7179C20.8632 18.4793 21.0156 17.9402 20.7749 17.5135L20.7749 17.5135ZM20.7749 17.5135C20.592 17.1887 20.2347 17.0237 19.8847 17.0689L19.2626 16.0285C19.1648 15.8656 18.9525 15.812 18.7896 15.9097C18.6267 16.0074 18.5731 16.2197 18.6709 16.3826L19.2899 17.4157C19.086 17.6879 19.0503 18.0642 19.2279 18.3795C19.4675 18.8062 20.0098 18.9575 20.4365 18.7179C20.8632 18.4793 21.0156 17.9402 20.7749 17.5135L20.7749 17.5135ZM20.7749 17.5135C20.592 17.1887 20.2347 17.0237 19.8847 17.0689L19.2626 16.0285C19.1648 15.8656 18.9525 15.812 18.7896 15.9097C18.6267 16.0074 18.5731 16.2197 18.6709 16.3826L19.2899 17.4157C19.086 17.6879 19.0503 18.0642 19.2279 18.3795C19.4675 18.8062 20.0098 18.9575 20.4365 18.7179C20.8632 18.4793 21.0156 17.9402 20.7749 17.5135L20.7749 17.5135ZM20.7749 17.5135C20.592 17.1887 20.2347 17.0237 19.8847 17.0689L19.2626 16.0285C19.1648 15.8656 18.9525 15.812 18.7896 15.9097C18.6267 16.0074 18.5731 16.2197 18.6709 16.3826L19.2899 17.4157C19.086 17.6879 19.0503 18.0642 19.2279 18.3795C19.4675 18.8062 20.0098 18.9575 20.4365 18.7179C20.8632 18.4793 21.0156 17.9402 20.7749 17.5135L20.7749 17.5135ZM20.7749 17.5135C20.592 17.1887 20.2347 17.0237 19.8847 17.0689L19.2626 16.0285C19.1648 15.8656 18.9525 15.812 18.7896 15.9097C18.6267 16.0074 18.5731 16.2197 18.6709 16.3826L19.2899 17.4157C19.086 17.6879 19.0503 18.0642 19.2279 18.3795C19.4675 18.8062 20.0098 18.9575 20.4365 18.7179C20.8632 18.4793 21.0156 17.9402 20.7749 17.5135L20.7749 17.5135ZM20.7749 17.5135C20.592 17.1887 20.2347 17.0237 19.8847 17.0689L19.2626 16.0285C19.1648 15.8656 18.9525 15.812 18.7896 15.9097C18.6267 16.0074 18.5731 16.2197 18.6709 16.3826L19.2899 17.4157C19.086 17.6879 19.0503 18.0642 19.2279 18.3795C19.4675 18.8062 20.0098 18.9575 20.4365 18.7179C20.8632 18.4793 21.0156 17.9402 20.7749 17.5135L20.7749 17.5135ZM23.7376 15.8529C22.5784 13.7973 19.9636 13.0658 17.9016 14.2208C15.8385 15.3769 15.106 17.9854 16.2652 20.041C17.4234 22.0967 20.0392 22.8282 22.1012 21.6732C24.1632 20.5182 24.8968 17.9097 23.7376 15.8529ZM21.7639 21.072C20.0329 22.0421 17.8385 21.4283 16.8664 19.7037C15.8942 17.979 16.5101 15.792 18.24 14.823C19.9709 13.854 22.1653 14.4667 23.1375 16.1924C24.1086 17.916 23.4927 20.1031 21.7639 21.072ZM19.8847 17.07L19.2626 16.0295C19.1648 15.8666 18.9525 15.813 18.7896 15.9107C18.6267 16.0085 18.5731 16.2208 18.6709 16.3837L19.2899 17.4168C19.086 17.689 19.0503 18.0652 19.2279 18.3805C19.4675 18.8072 20.0098 18.9585 20.4365 18.7189C20.8642 18.4793 21.0156 17.9391 20.7749 17.5135C20.592 17.1887 20.2347 17.0237 19.8847 17.07ZM20.7749 17.5135C20.592 17.1887 20.2347 17.0237 19.8847 17.0689L19.2626 16.0285C19.1648 15.8656 18.9525 15.812 18.7896 15.9097C18.6267 16.0074 18.5731 16.2197 18.6709 16.3826L19.2899 17.4157C19.086 17.6879 19.0503 18.0642 19.2279 18.3795C19.4675 18.8062 20.0098 18.9575 20.4365 18.7179C20.8632 18.4793 21.0156 17.9402 20.7749 17.5135L20.7749 17.5135ZM20.7749 17.5135C20.592 17.1887 20.2347 17.0237 19.8847 17.0689L19.2626 16.0285C19.1648 15.8656 18.9525 15.812 18.7896 15.9097C18.6267 16.0074 18.5731 16.2197 18.6709 16.3826L19.2899 17.4157C19.086 17.6879 19.0503 18.0642 19.2279 18.3795C19.4675 18.8062 20.0098 18.9575 20.4365 18.7179C20.8632 18.4793 21.0156 17.9402 20.7749 17.5135L20.7749 17.5135ZM20.7749 17.5135C20.592 17.1887 20.2347 17.0237 19.8847 17.0689L19.2626 16.0285C19.1648 15.8656 18.9525 15.812 18.7896 15.9097C18.6267 16.0074 18.5731 16.2197 18.6709 16.3826L19.2899 17.4157C19.086 17.6879 19.0503 18.0642 19.2279 18.3795C19.4675 18.8062 20.0098 18.9575 20.4365 18.7179C20.8632 18.4793 21.0156 17.9402 20.7749 17.5135L20.7749 17.5135ZM20.7749 17.5135C20.592 17.1887 20.2347 17.0237 19.8847 17.0689L19.2626 16.0285C19.1648 15.8656 18.9525 15.812 18.7896 15.9097C18.6267 16.0074 18.5731 16.2197 18.6709 16.3826L19.2899 17.4157C19.086 17.6879 19.0503 18.0642 19.2279 18.3795C19.4675 18.8062 20.0098 18.9575 20.4365 18.7179C20.8632 18.4793 21.0156 17.9402 20.7749 17.5135L20.7749 17.5135ZM20.7749 17.5135C20.592 17.1887 20.2347 17.0237 19.8847 17.0689L19.2626 16.0285C19.1648 15.8656 18.9525 15.812 18.7896 15.9097C18.6267 16.0074 18.5731 16.2197 18.6709 16.3826L19.2899 17.4157C19.086 17.6879 19.0503 18.0642 19.2279 18.3795C19.4675 18.8062 20.0098 18.9575 20.4365 18.7179C20.8632 18.4793 21.0156 17.9402 20.7749 17.5135L20.7749 17.5135ZM20.7749 17.5135C20.592 17.1887 20.2347 17.0237 19.8847 17.0689L19.2626 16.0285C19.1648 15.8656 18.9525 15.812 18.7896 15.9097C18.6267 16.0074 18.5731 16.2197 18.6709 16.3826L19.2899 17.4157C19.086 17.6879 19.0503 18.0642 19.2279 18.3795C19.4675 18.8062 20.0098 18.9575 20.4365 18.7179C20.8632 18.4793 21.0156 17.9402 20.7749 17.5135L20.7749 17.5135ZM20.7749 17.5135C20.592 17.1887 20.2347 17.0237 19.8847 17.0689L19.2626 16.0285C19.1648 15.8656 18.9525 15.812 18.7896 15.9097C18.6267 16.0074 18.5731 16.2197 18.6709 16.3826L19.2899 17.4157C19.086 17.6879 19.0503 18.0642 19.2279 18.3795C19.4675 18.8062 20.0098 18.9575 20.4365 18.7179C20.8632 18.4793 21.0156 17.9402 20.7749 17.5135L20.7749 17.5135ZM20.7749 17.5135C20.592 17.1887 20.2347 17.0237 19.8847 17.0689L19.2626 16.0285C19.1648 15.8656 18.9525 15.812 18.7896 15.9097C18.6267 16.0074 18.5731 16.2197 18.6709 16.3826L19.2899 17.4157C19.086 17.6879 19.0503 18.0642 19.2279 18.3795C19.4675 18.8062 20.0098 18.9575 20.4365 18.7179C20.8632 18.4793 21.0156 17.9402 20.7749 17.5135L20.7749 17.5135ZM20.7749 17.5135C20.592 17.1887 20.2347 17.0237 19.8847 17.0689L19.2626 16.0285C19.1648 15.8656 18.9525 15.812 18.7896 15.9097C18.6267 16.0074 18.5731 16.2197 18.6709 16.3826L19.2899 17.4157C19.086 17.6879 19.0503 18.0642 19.2279 18.3795C19.4675 18.8062 20.0098 18.9575 20.4365 18.7179C20.8632 18.4793 21.0156 17.9402 20.7749 17.5135L20.7749 17.5135ZM20.7749 17.5135C20.592 17.1887 20.2347 17.0237 19.8847 17.0689L19.2626 16.0285C19.1648 15.8656 18.9525 15.812 18.7896 15.9097C18.6267 16.0074 18.5731 16.2197 18.6709 16.3826L19.2899 17.4157C19.086 17.6879 19.0503 18.0642 19.2279 18.3795C19.4675 18.8062 20.0098 18.9575 20.4365 18.7179C20.8632 18.4793 21.0156 17.9402 20.7749 17.5135L20.7749 17.5135ZM23.7376 15.8529C22.5784 13.7973 19.9636 13.0658 17.9016 14.2208C15.8385 15.3769 15.106 17.9854 16.2652 20.041C17.4234 22.0967 20.0392 22.8282 22.1012 21.6732C24.1632 20.5182 24.8968 17.9097 23.7376 15.8529ZM21.7639 21.072C20.0329 22.0421 17.8385 21.4283 16.8664 19.7037C15.8942 17.979 16.5101 15.792 18.24 14.823C19.9709 13.854 22.1653 14.4667 23.1375 16.1924C24.1086 17.916 23.4927 20.1031 21.7639 21.072ZM19.8847 17.07L19.2626 16.0295C19.1648 15.8666 18.9525 15.813 18.7896 15.9107C18.6267 16.0085 18.5731 16.2208 18.6709 16.3837L19.2899 17.4168C19.086 17.689 19.0503 18.0652 19.2279 18.3805C19.4675 18.8072 20.0098 18.9585 20.4365 18.7189C20.8642 18.4793 21.0156 17.9391 20.7749 17.5135C20.592 17.1887 20.2347 17.0237 19.8847 17.07ZM20.7749 17.5135C20.592 17.1887 20.2347 17.0237 19.8847 17.0689L19.2626 16.0285C19.1648 15.8656 18.9525 15.812 18.7896 15.9097C18.6267 16.0074 18.5731 16.2197 18.6709 16.3826L19.2899 17.4157C19.086 17.6879 19.0503 18.0642 19.2279 18.3795C19.4675 18.8062 20.0098 18.9575 20.4365 18.7179C20.8632 18.4793 21.0156 17.9402 20.7749 17.5135L20.7749 17.5135ZM20.7749 17.5135C20.592 17.1887 20.2347 17.0237 19.8847 17.0689L19.2626 16.0285C19.1648 15.8656 18.9525 15.812 18.7896 15.9097C18.6267 16.0074 18.5731 16.2197 18.6709 16.3826L19.2899 17.4157C19.086 17.6879 19.0503 18.0642 19.2279 18.3795C19.4675 18.8062 20.0098 18.9575 20.4365 18.7179C20.8632 18.4793 21.0156 17.9402 20.7749 17.5135L20.7749 17.5135ZM20.7749 17.5135C20.592 17.1887 20.2347 17.0237 19.8847 17.0689L19.2626 16.0285C19.1648 15.8656 18.9525 15.812 18.7896 15.9097C18.6267 16.0074 18.5731 16.2197 18.6709 16.3826L19.2899 17.4157C19.086 17.6879 19.0503 18.0642 19.2279 18.3795C19.4675 18.8062 20.0098 18.9575 20.4365 18.7179C20.8632 18.4793 21.0156 17.9402 20.7749 17.5135L20.7749 17.5135ZM20.7749 17.5135C20.592 17.1887 20.2347 17.0237 19.8847 17.0689L19.2626 16.0285C19.1648 15.8656 18.9525 15.812 18.7896 15.9097C18.6267 16.0074 18.5731 16.2197 18.6709 16.3826L19.2899 17.4157C19.086 17.6879 19.0503 18.0642 19.2279 18.3795C19.4675 18.8062 20.0098 18.9575 20.4365 18.7179C20.8632 18.4793 21.0156 17.9402 20.7749 17.5135L20.7749 17.5135ZM20.7749 17.5135C20.592 17.1887 20.2347 17.0237 19.8847 17.0689L19.2626 16.0285C19.1648 15.8656 18.9525 15.812 18.7896 15.9097C18.6267 16.0074 18.5731 16.2197 18.6709 16.3826L19.2899 17.4157C19.086 17.6879 19.0503 18.0642 19.2279 18.3795C19.4675 18.8062 20.0098 18.9575 20.4365 18.7179C20.8632 18.4793 21.0156 17.9402 20.7749 17.5135L20.7749 17.5135ZM20.7749 17.5135C20.592 17.1887 20.2347 17.0237 19.8847 17.0689L19.2626 16.0285C19.1648 15.8656 18.9525 15.812 18.7896 15.9097C18.6267 16.0074 18.5731 16.2197 18.6709 16.3826L19.2899 17.4157C19.086 17.6879 19.0503 18.0642 19.2279 18.3795C19.4675 18.8062 20.0098 18.9575 20.4365 18.7179C20.8632 18.4793 21.0156 17.9402 20.7749 17.5135L20.7749 17.5135ZM20.7749 17.5135C20.592 17.1887 20.2347 17.0237 19.8847 17.0689L19.2626 16.0285C19.1648 15.8656 18.9525 15.812 18.7896 15.9097C18.6267 16.0074 18.5731 16.2197 18.6709 16.3826L19.2899 17.4157C19.086 17.6879 19.0503 18.0642 19.2279 18.3795C19.4675 18.8062 20.0098 18.9575 20.4365 18.7179C20.8632 18.4793 21.0156 17.9402 20.7749 17.5135L20.7749 17.5135ZM20.7749 17.5135C20.592 17.1887 20.2347 17.0237 19.8847 17.0689L19.2626 16.0285C19.1648 15.8656 18.9525 15.812 18.7896 15.9097C18.6267 16.0074 18.5731 16.2197 18.6709 16.3826L19.2899 17.4157C19.086 17.6879 19.0503 18.0642 19.2279 18.3795C19.4675 18.8062 20.0098 18.9575 20.4365 18.7179C20.8632 18.4793 21.0156 17.9402 20.7749 17.5135L20.7749 17.5135ZM20.7749 17.5135C20.592 17.1887 20.2347 17.0237 19.8847 17.0689L19.2626 16.0285C19.1648 15.8656 18.9525 15.812 18.7896 15.9097C18.6267 16.0074 18.5731 16.2197 18.6709 16.3826L19.2899 17.4157C19.086 17.6879 19.0503 18.0642 19.2279 18.3795C19.4675 18.8062 20.0098 18.9575 20.4365 18.7179C20.8632 18.4793 21.0156 17.9402 20.7749 17.5135L20.7749 17.5135ZM20.7749 17.5135C20.592 17.1887 20.2347 17.0237 19.8847 17.0689L19.2626 16.0285C19.1648 15.8656 18.9525 15.812 18.7896 15.9097C18.6267 16.0074 18.5731 16.2197 18.6709 16.3826L19.2899 17.4157C19.086 17.6879 19.0503 18.0642 19.2279 18.3795C19.4675 18.8062 20.0098 18.9575 20.4365 18.7179C20.8632 18.4793 21.0156 17.9402 20.7749 17.5135L20.7749 17.5135ZM23.7376 15.8529C22.5784 13.7973 19.9636 13.0658 17.9016 14.2208C15.8385 15.3769 15.106 17.9854 16.2652 20.041C17.4234 22.0967 20.0392 22.8282 22.1012 21.6732C24.1632 20.5182 24.8968 17.9097 23.7376 15.8529ZM21.7639 21.072C20.0329 22.0421 17.8385 21.4283 16.8664 19.7037C15.8942 17.979 16.5101 15.792 18.24 14.823C19.9709 13.854 22.1653 14.4667 23.1375 16.1924C24.1086 17.916 23.4927 20.1031 21.7639 21.072ZM19.8847 17.07L19.2626 16.0295C19.1648 15.8666 18.9525 15.813 18.7896 15.9107C18.6267 16.0085 18.5731 16.2208 18.6709 16.3837L19.2899 17.4168C19.086 17.689 19.0503 18.0652 19.2279 18.3805C19.4675 18.8072 20.0098 18.9585 20.4365 18.7189C20.8642 18.4793 21.0156 17.9391 20.7749 17.5135C20.592 17.1887 20.2347 17.0237 19.8847 17.07ZM20.7749 17.5135C20.592 17.1887 20.2347 17.0237 19.8847 17.0689L19.2626 16.0285C19.1648 15.8656 18.9525 15.812 18.7896 15.9097C18.6267 16.0074 18.5731 16.2197 18.6709 16.3826L19.2899 17.4157C19.086 17.6879 19.0503 18.0642 19.2279 18.3795C19.4675 18.8062 20.0098 18.9575 20.4365 18.7179C20.8632 18.4793 21.0156 17.9402 20.7749 17.5135L20.7749 17.5135ZM20.7749 17.5135C20.592 17.1887 20.2347 17.0237 19.8847 17.0689L19.2626 16.0285C19.1648 15.8656 18.9525 15.812 18.7896 15.9097C18.6267 16.0074 18.5731 16.2197 18.6709 16.3826L19.2899 17.4157C19.086 17.6879 19.0503 18.0642 19.2279 18.3795C19.4675 18.8062 20.0098 18.9575 20.4365 18.7179C20.8632 18.4793 21.0156 17.9402 20.7749 17.5135L20.7749 17.5135ZM20.7749 17.5135C20.592 17.1887 20.2347 17.0237 19.8847 17.0689L19.2626 16.0285C19.1648 15.8656 18.9525 15.812 18.7896 15.9097C18.6267 16.0074 18.5731 16.2197 18.6709 16.3826L19.2899 17.4157C19.086 17.6879 19.0503 18.0642 19.2279 18.3795C19.4675 18.8062 20.0098 18.9575 20.4365 18.7179C20.8632 18.4793 21.0156 17.9402 20.7749 17.5135L20.7749 17.5135ZM20.7749 17.5135C20.592 17.1887 20.2347 17.0237 19.8847 17.0689L19.2626 16.0285C19.1648 15.8656 18.9525 15.812 18.7896 15.9097C18.6267 16.0074 18.5731 16.2197 18.6709 16.3826L19.2899 17.4157C19.086 17.6879 19.0503 18.0642 19.2279 18.3795C19.4675 18.8062 20.0098 18.9575 20.4365 18.7179C20.8632 18.4793 21.0156 17.9402 20.7749 17.5135L20.7749 17.5135ZM20.7749 17.5135C20.592 17.1887 20.2347 17.0237 19.8847 17.0689L19.2626 16.0285C19.1648 15.8656 18.9525 15.812 18.7896 15.9097C18.6267 16.0074 18.5731 16.2197 18.6709 16.3826L19.2899 17.4157C19.086 17.6879 19.0503 18.0642 19.2279 18.3795C19.4675 18.8062 20.0098 18.9575 20.4365 18.7179C20.8632 18.4793 21.0156 17.9402 20.7749 17.5135L20.7749 17.5135ZM20.7749 17.5135C20.592 17.1887 20.2347 17.0237 19.8847 17.0689L19.2626 16.0285C19.1648 15.8656 18.9525 15.812 18.7896 15.9097C18.6267 16.0074 18.5731 16.2197 18.6709 16.3826L19.2899 17.4157C19.086 17.6879 19.0503 18.0642 19.2279 18.3795C19.4675 18.8062 20.0098 18.9575 20.4365 18.7179C20.8632 18.4793 21.0156 17.9402 20.7749 17.5135L20.7749 17.5135ZM15.3761 12.5553L15.3961 12.5953L15.4361 12.6453L15.3761 12.5553Z" id="Layer1" fill="#34B933" stroke="none" />
  </g>
</svg>