<?xml version="1.0" encoding="utf-8"?>
<svg width="60px" height="60px" viewBox="0 0 60 60" version="1.1" xmlns:xlink="http://www.w3.org/1999/xlink" xmlns="http://www.w3.org/2000/svg">
  <defs>
    <radialGradient gradientUnits="objectBoundingBox" cx="50%" cy="50%" fx="50%" fy="50%" r="74.67098%" gradientTransform="translate(0.5,0.5),rotate(1.2661431),translate(-0.5,-0.5)" id="gradient_1">
      <stop offset="0%" stop-color="#FFFFFF" />
      <stop offset="100%" stop-color="#B2E6FF" />
    </radialGradient>
  </defs>
  <g id="Group">
    <path d="M60 30L60 30C60 46.5796 46.5796 60 30 60L30 60C13.4442 60 0 46.5796 0 30L0 30C0 18.2622 6.7459 8.08846 16.5808 3.16111C20.6177 1.13859 25.1751 0 30 0L30 0C46.5796 0 60 13.4442 60 30Z" id="Path-Copy" fill="url(#gradient_1)" stroke="none" />
    <path d="M20.675 35.5L19 35.5C17.8954 35.5 17 34.6046 17 33.5L17 18C17 16.8954 17.8954 16 19 16L21 16L21 15.5C21 15.2239 21.2239 15 21.5 15C21.7761 15 22 15.2239 22 15.5L22 16L25.5 16L25.5 15.5C25.5 15.2239 25.7239 15 26 15C26.2761 15 26.5 15.2239 26.5 15.5L26.5 16L30 16L30 15.5C30 15.2239 30.2239 15 30.5 15C30.7761 15 31 15.2239 31 15.5L31 16L34.5 16L34.5 15.5C34.5 15.2239 34.7239 15 35 15C35.2761 15 35.5 15.2239 35.5 15.5L35.5 16L39 16L39 15.5C39 15.2239 39.2239 15 39.5 15C39.7761 15 40 15.2239 40 15.5L40 16L42 16C43.1046 16 44 16.8954 44 18L44 33.5C44 34.6046 43.1046 35.5 42 35.5L40.325 35.5C40.7656 36.7277 40.3558 38.0992 39.314 38.884C40.9495 39.5982 42.0049 41.2153 42 43L42 44C42 44.5523 41.5523 45 41 45L20 45C19.4477 45 19 44.5523 19 44L19 43C19.0025 41.2174 20.056 39.6039 21.687 38.8845C20.6444 38.1 20.2342 36.728 20.675 35.5ZM21 17L19 17C18.4477 17 18 17.4477 18 18L18 19L43 19L43 18C43 17.4477 42.5523 17 42 17L40 17L40 17.5C40 17.7761 39.7761 18 39.5 18C39.2239 18 39 17.7761 39 17.5L39 17L35.5 17L35.5 17.5C35.5 17.7761 35.2761 18 35 18C34.7239 18 34.5 17.7761 34.5 17.5L34.5 17L31 17L31 17.5C31 17.7761 30.7761 18 30.5 18C30.2239 18 30 17.7761 30 17.5L30 17L26.5 17L26.5 17.5C26.5 17.7761 26.2761 18 26 18C25.7239 18 25.5 17.7761 25.5 17.5L25.5 17L22 17L22 17.5C22 17.7761 21.7761 18 21.5 18C21.2239 18 21 17.7761 21 17.5L21 17ZM39.73 34.5L42 34.5C42.5523 34.5 43 34.0523 43 33.5L43 20L18 20L18 33.5C18 34.0523 18.4477 34.5 19 34.5L21.27 34.5C21.8367 33.8639 22.6481 33.5 23.5 33.5C24.3519 33.5 25.1633 33.8639 25.73 34.5L27.5 34.5C27.5 32.8431 28.8431 31.5 30.5 31.5C32.1569 31.5 33.5 32.8431 33.5 34.5L35.27 34.5C35.8367 33.8639 36.6481 33.5 37.5 33.5C38.3519 33.5 39.1633 33.8639 39.73 34.5ZM32.45 23.5L34.119 23.939C34.5097 24.0398 34.8212 24.3344 34.9435 24.719C35.065 25.097 34.983 25.5109 34.7265 25.814L33.664 27.084L33.75 28.905C33.7665 29.2526 33.6082 29.5855 33.328 29.792C33.0408 30.0043 32.6666 30.0593 32.3305 29.9385L30.5 29.2835L28.671 29.9385C28.3349 30.0596 27.9606 30.0046 27.6735 29.792C27.3932 29.5857 27.2343 29.2532 27.25 28.9055L27.3325 27.0845L26.2695 25.8145C26.0132 25.5113 25.9313 25.0974 26.053 24.7195C26.1756 24.3346 26.4877 24.0398 26.879 23.9395L28.55 23.5L29.622 21.9585C29.8229 21.6711 30.1515 21.4998 30.5023 21.4998C30.853 21.4998 31.1816 21.6711 31.3825 21.9585L32.45 23.5ZM32.7735 26.592L33.9615 25.1725C33.9984 25.1308 34.0092 25.0721 33.9895 25.02C33.9709 24.9612 33.9223 24.9169 33.862 24.904L32.012 24.417C31.8967 24.3863 31.7961 24.3154 31.7285 24.217L30.5555 22.5235C30.5437 22.5025 30.5216 22.4895 30.4975 22.4895C30.4734 22.4895 30.4513 22.5025 30.4395 22.5235L29.267 24.2175C29.1991 24.3158 29.0984 24.3867 28.983 24.4175L27.133 24.9045C27.0729 24.9174 27.0242 24.9614 27.0055 25.02C26.9875 25.0718 26.9992 25.1293 27.036 25.17L28.2245 26.59C28.3047 26.6864 28.346 26.8092 28.3405 26.9345L28.245 28.9505C28.278 28.9955 28.301 29.0055 28.3305 28.9955L30.3305 28.28C30.4394 28.2407 30.5586 28.2407 30.6675 28.28L32.6675 28.9955C32.6897 29.0034 32.7143 29 32.7335 28.9865L32.657 26.9365C32.6512 26.8111 32.6928 26.6881 32.7735 26.592ZM28.5 34.5C28.5 35.6046 29.3954 36.5 30.5 36.5C31.6046 36.5 32.5 35.6046 32.5 34.5C32.5 33.3954 31.6046 32.5 30.5 32.5C29.3954 32.5 28.5 33.3954 28.5 34.5ZM23.5 34.5C22.3954 34.5 21.5 35.3954 21.5 36.5C21.5 37.6046 22.3954 38.5 23.5 38.5C24.6046 38.5 25.5 37.6046 25.5 36.5C25.5 35.3954 24.6046 34.5 23.5 34.5ZM35.5 36.5C35.5 37.6046 36.3954 38.5 37.5 38.5C38.6046 38.5 39.5 37.6046 39.5 36.5C39.5 35.3954 38.6046 34.5 37.5 34.5C36.3954 34.5 35.5 35.3954 35.5 36.5ZM26.277 39.461C26.6979 38.311 27.5677 37.3812 28.687 36.8845C28.2224 36.531 27.8708 36.05 27.675 35.5L26.325 35.5C26.7656 36.7277 26.3558 38.0992 25.314 38.884C25.6577 39.0356 25.9812 39.2294 26.277 39.461ZM34.724 39.4625C35.0197 39.2305 35.3432 39.0363 35.687 38.8845C34.6444 38.1 34.2342 36.728 34.675 35.5L33.325 35.5C33.1292 36.05 32.7776 36.531 32.313 36.8845C33.4327 37.3817 34.3027 38.312 34.724 39.4625ZM27 41L27 44L34 44L34 41C34 39.067 32.433 37.5 30.5 37.5C28.567 37.5 27 39.067 27 41ZM20 43L20 44L26 44L26 41C26 40.856 26.0085 40.7135 26.0215 40.573C26.006 40.5565 25.992 40.539 25.976 40.523C24.9748 39.5209 23.4684 39.2211 22.1598 39.7635C20.8513 40.3059 19.9987 41.5835 20 43ZM41 43C41.0009 42.0707 40.6321 41.1792 39.975 40.522C39.3097 39.8578 38.4049 39.4895 37.4648 39.5002C36.5247 39.5109 35.6285 39.8998 34.9785 40.579C34.9915 40.7175 35 40.858 35 41L35 44L41 44L41 43Z" id="Combined-Shape" fill="#28B0FF" fill-rule="evenodd" stroke="none" />
  </g>
</svg>