<?xml version="1.0" encoding="utf-8"?>
<svg width="60px" height="60px" viewBox="0 0 60 60" version="1.1" xmlns:xlink="http://www.w3.org/1999/xlink" xmlns="http://www.w3.org/2000/svg">
  <defs>
    <radialGradient gradientUnits="objectBoundingBox" cx="50%" cy="50%" fx="50%" fy="50%" r="50%" gradientTransform="translate(0.5,0.5),translate(-0.5,-0.5)" id="gradient_1">
      <stop offset="0%" stop-color="#FFFFFF" />
      <stop offset="53.22556%" stop-color="#EEFFEE" />
      <stop offset="100%" stop-color="#B4F1B4" />
    </radialGradient>
  </defs>
  <g id="Group-2">
    <path d="M60 30L60 30C60 46.5796 46.5796 60 30 60L30 60C13.4442 60 0 46.5796 0 30L0 30C0 13.4442 13.4204 0 30 0L30 0C46.5796 0 60 13.4442 60 30Z" id="Path-Copy" fill="url(#gradient_1)" stroke="none" />
    <path d="M43.3107 28.4784C43.3107 29.8069 43.1168 31.1121 42.7342 32.3658C43.8778 32.7955 44.6632 33.895 44.6632 35.1572L44.6632 42.0169C44.6637 43.6617 43.3249 45 41.6801 45L17.9836 45C16.3388 45 15 43.6617 15 42.0164L15 35.1572C15 33.8982 15.7806 32.8015 16.9199 32.3717C16.5399 31.1075 16.3476 29.8 16.3476 28.4784C16.3476 26.7706 16.6594 25.118 17.2739 23.5651C18.8253 19.6071 22.0833 16.677 26.0593 15.5312C26.8108 15.3146 27.5879 15.1617 28.3841 15.0777C28.8528 15.0264 29.3406 15 29.8319 15C32.489 15 35.062 15.7744 37.2746 17.2398C37.2807 17.2435 37.2868 17.2474 37.2928 17.2514C38.5784 18.1083 39.7014 19.1705 40.6318 20.4085L40.6366 20.4148C40.6371 20.4155 40.6375 20.4161 40.638 20.4168L40.6404 20.42C41.6175 21.7301 42.3352 23.1746 42.774 24.7152C43.1299 25.9264 43.3107 27.1939 43.3107 28.4784ZM33.0279 32.1741L24.7537 32.1741C25.1812 31.4353 25.7997 30.7997 26.5985 30.2786C27.0174 30.0078 27.3107 29.5679 27.4031 29.0708C27.4945 28.5776 27.3806 28.0659 27.0907 27.6675C26.534 26.8986 25.7026 26.3673 24.6771 26.1293C24.5231 26.0965 24.3848 26.0501 24.2675 25.9914C23.7694 25.7539 22.1251 24.8917 21.8734 23.7679C21.7732 23.3207 21.9135 22.872 22.303 22.3954C23.4947 20.9359 24.5945 20.623 25.3105 20.6172C25.9181 20.6089 26.4563 20.3606 26.8243 19.9207C27.3346 19.319 28.0023 19.055 28.8191 19.1371C29.5792 19.2095 30.2336 19.1552 30.762 18.9763L30.763 18.9758C31.1477 18.8443 31.4268 18.5281 31.5099 18.1297C31.5939 17.727 31.4629 17.3208 31.157 17.0407C30.8373 16.7518 30.401 16.378 29.8745 15.9777C32.1171 15.9852 34.2937 16.5877 36.21 17.7256C35.8144 18.0593 35.4284 18.3395 35.0546 18.5638C34.7085 18.7808 34.5076 19.1674 34.5306 19.5736C34.5531 19.9783 34.7941 20.3391 35.1616 20.516C36.0669 20.9476 37.3299 21.3821 38.7479 21.3821C39.167 21.3821 39.5996 21.3443 40.0404 21.2574C40.7929 22.3193 41.3657 23.4724 41.7473 24.6956C41.4721 24.9402 41.1783 25.1742 40.8712 25.3936C40.4151 25.7211 39.8213 25.8194 39.2821 25.6576C38.785 25.5085 38.3984 25.1571 38.2078 24.6605C38.1701 24.5617 38.132 24.4664 38.1041 24.3525C37.9942 23.9478 37.7141 23.6193 37.3363 23.4512C36.9584 23.2835 36.5302 23.2957 36.1539 23.4859C35.0448 24.0622 34.0242 24.7533 33.1248 25.5373C32.5671 26.0144 32.2215 26.7104 32.1771 27.4466C32.1331 28.1841 32.3814 28.887 32.8775 29.4266C33.3497 29.9389 33.7329 30.3094 34.079 30.588C34.1606 30.656 34.1635 30.7381 34.1577 30.7806C34.1533 30.8168 34.1352 30.8793 34.0682 30.9228C34.0482 30.9287 34.0281 30.936 34.0091 30.9448C33.491 31.1779 33.1344 31.6395 33.0279 32.1741ZM23.654 32.1741L21.6172 32.1741C21.6055 32.0764 21.5957 31.9796 21.5899 31.8833C21.4936 30.609 20.7188 29.651 20.0815 29.0679C19.9031 28.908 19.8087 28.6544 19.8361 28.408C20.0996 26.0633 19.2041 24.5373 18.3062 23.6223C19.1974 21.5086 20.6193 19.7272 22.3894 18.4173C24.0958 17.1548 26.126 16.3304 28.3166 16.0688C29.2573 16.6895 30.0196 17.3292 30.5005 17.7636C30.567 17.8247 30.5602 17.9 30.5543 17.9293C30.545 17.9709 30.5196 18.0256 30.4477 18.0501C30.174 18.1424 29.6842 18.2373 28.9149 18.1635C27.4749 18.0188 26.5819 18.6957 26.0775 19.2906C25.8404 19.5731 25.5227 19.6362 25.3008 19.6391C24.3779 19.6464 22.978 20.0238 21.5464 21.7766C20.9632 22.4902 20.7521 23.2322 20.9197 23.981C21.2585 25.4934 23.0797 26.5076 23.8393 26.8698C24.0236 26.9622 24.2367 27.0345 24.4644 27.0834C25.2597 27.2686 25.8775 27.6582 26.3003 28.2418C26.4353 28.4281 26.4856 28.6588 26.4421 28.8924C26.3986 29.1265 26.2617 29.3328 26.0667 29.4594C24.9645 30.1779 24.1541 31.09 23.654 32.1741ZM37.0631 18.2806C37.9081 18.8812 38.6744 19.5823 39.3503 20.373C37.8719 20.5284 36.5152 20.0784 35.5844 19.6342C35.5238 19.6049 35.5092 19.5555 35.5067 19.5189C35.5048 19.4817 35.515 19.4289 35.5663 19.3967C36.0485 19.107 36.5502 18.7329 37.0631 18.2806ZM41.6796 32.1741L34.057 32.1741C34.1259 32.0402 34.2344 31.9273 34.3708 31.8559C34.3957 31.8491 34.4206 31.8398 34.4446 31.8286C34.819 31.6565 35.0741 31.3119 35.1269 30.9077C35.1802 30.501 35.0213 30.1002 34.6973 29.8319C34.3844 29.5801 34.0345 29.2409 33.5965 28.7653C33.2822 28.4232 33.1243 27.9759 33.1527 27.5057C33.182 27.0257 33.3976 26.5912 33.7637 26.2779C34.8161 25.3614 35.8894 24.7255 36.6001 24.3564C36.7492 24.2816 36.8758 24.3168 36.9389 24.3447C37.0029 24.373 37.1163 24.4449 37.1574 24.5954C37.1916 24.7362 37.2419 24.8716 37.3079 25.0427C37.5948 25.7915 38.2127 26.357 39.0021 26.5936C39.8291 26.8414 40.7412 26.6899 41.4406 26.1879C41.6424 26.0443 41.8388 25.8938 42.0294 25.7389C42.1773 26.3945 42.2715 27.0637 42.3112 27.7407C42.3255 27.9857 42.3327 28.2317 42.3327 28.4784C42.3327 29.7434 42.1435 30.9849 41.7696 32.1751C41.7491 32.1748 41.7289 32.1744 41.7085 32.1743C41.6991 32.1742 41.6896 32.1741 41.6801 32.1741L41.6796 32.1741ZM20.6341 32.1741L17.9831 32.1741C17.949 32.1741 17.915 32.1746 17.8819 32.1756C17.5119 30.9761 17.3247 29.7341 17.3247 28.4784C17.3247 27.1604 17.5244 25.8782 17.9197 24.6556C18.7088 25.6334 19.0261 26.8558 18.8639 28.301C18.8023 28.8655 19.0135 29.4247 19.425 29.7932C19.928 30.2532 20.5424 31.002 20.6147 31.9581C20.6202 32.0296 20.6266 32.1017 20.6341 32.1741ZM41.7253 33.1517C41.7107 33.1514 41.6959 33.1512 41.6811 33.1512L23.9985 33.1512C23.9912 33.1516 23.984 33.1517 23.9766 33.1517L21.1954 33.1517C21.1881 33.1517 21.1807 33.1516 21.1735 33.1512L17.9836 33.1512L17.9836 33.1517C17.8575 33.1517 17.7436 33.1625 17.6448 33.184C17.6408 33.1847 17.6368 33.1854 17.6328 33.1861C17.6278 33.1872 17.6228 33.1881 17.6178 33.189C16.6584 33.3719 15.9781 34.1936 15.9781 35.1572L15.9781 42.0169C15.9781 43.123 16.8779 44.0229 17.9841 44.0229L41.6806 44.0229C42.7868 44.0229 43.6866 43.123 43.6866 42.0169L43.6866 35.1572C43.6866 34.1855 42.9944 33.3581 42.0396 33.1839C42.0339 33.183 42.0281 33.1821 42.0223 33.181C41.9288 33.164 41.8289 33.154 41.7253 33.1517ZM22.4418 39.6248L20.3557 36.4677C20.297 36.3753 20.2398 36.2854 20.1851 36.2003C20.1303 36.1153 20.0766 36.0458 20.0243 35.9921C19.972 35.9383 19.9109 35.8958 19.8415 35.864C19.7721 35.8322 19.6885 35.8166 19.5912 35.8166C19.4671 35.8166 19.3512 35.8513 19.2442 35.9207Q19.0836 36.0248 19.0139 36.1891C18.9748 36.2893 18.9553 36.4266 18.9553 36.6021L18.9553 40.7348C18.9553 40.9372 19.0017 41.0911 19.0941 41.1972C19.1865 41.3033 19.3097 41.3561 19.4631 41.3561C19.6117 41.3561 19.7339 41.3038 19.8288 41.1992C19.9241 41.0946 19.9715 40.9401 19.9715 40.7353L19.9715 37.5968L22.0068 40.7172C22.0655 40.8023 22.1236 40.8859 22.1823 40.9675C22.2409 41.0491 22.304 41.12 22.3724 41.1811C22.4409 41.2422 22.5142 41.2867 22.5919 41.3145C22.6696 41.3424 22.7576 41.3566 22.8549 41.3566C23.2444 41.3566 23.4395 41.1214 23.4395 40.6512L23.4395 36.4383C23.4395 36.2316 23.394 36.0762 23.3041 35.9725C23.2141 35.8689 23.0909 35.8171 22.935 35.8171C22.784 35.8171 22.6642 35.8689 22.5753 35.9725C22.4863 36.0762 22.4418 36.2311 22.4418 36.4383L22.4418 39.6248ZM40.4577 40.531C40.6243 40.2724 40.7079 39.9816 40.7079 39.6575C40.7079 39.3872 40.6595 39.159 40.5623 38.9717C40.466 38.785 40.3321 38.6311 40.1605 38.5094C39.9889 38.3876 39.7807 38.284 39.5358 38.199C39.2909 38.1139 39.0177 38.0362 38.7156 37.9653C38.4742 37.9042 38.3011 37.8583 38.1965 37.8265C38.0919 37.7947 37.9883 37.7512 37.8861 37.695C37.784 37.6393 37.7038 37.5719 37.6452 37.4941C37.587 37.4164 37.5577 37.3235 37.5577 37.2165C37.5577 37.0435 37.6437 36.8959 37.8153 36.7727C37.9873 36.6495 38.2131 36.5879 38.4932 36.5879C38.7953 36.5879 39.0148 36.6446 39.1511 36.758C39.2875 36.8714 39.4048 37.0288 39.5021 37.2312C39.5779 37.3724 39.6477 37.4741 39.7123 37.5362C39.7768 37.5982 39.8711 37.6295 39.9953 37.6295Q40.1998 37.6295 40.3369 37.4741C40.4283 37.3705 40.4738 37.2541 40.4738 37.1251C40.4738 36.9838 40.4376 36.8387 40.3643 36.6901C40.2915 36.5415 40.1756 36.3997 40.0173 36.2643C39.8589 36.1294 39.66 36.0209 39.42 35.9393C39.18 35.8577 38.8955 35.8171 38.5665 35.8171C38.155 35.8171 37.7967 35.8787 37.4922 36.0019C37.1877 36.1245 36.955 36.301 36.7942 36.5298C36.6334 36.7585 36.5532 37.0205 36.5532 37.3152C36.5532 37.6246 36.6295 37.8837 36.7815 38.0919C36.9335 38.3001 37.1393 38.4644 37.3988 38.5851C37.6584 38.7058 37.9805 38.8114 38.3652 38.9014C38.6526 38.9669 38.8823 39.0289 39.0539 39.0876C39.2259 39.1462 39.3657 39.2308 39.4742 39.3418C39.5827 39.4527 39.637 39.5969 39.637 39.7748C39.637 39.9987 39.5363 40.1859 39.3354 40.3355C39.1345 40.4855 38.8735 40.5603 38.5519 40.5603C38.3177 40.5603 38.1291 40.5232 37.9854 40.4489C37.8417 40.3746 37.7302 40.2802 37.651 40.1659C37.5719 40.051 37.4985 39.9088 37.4301 39.7382C37.3739 39.5945 37.3064 39.4864 37.2273 39.4131C37.1481 39.3403 37.0513 39.3036 36.9369 39.3036C36.7957 39.3036 36.6793 39.3506 36.5879 39.4444C36.4965 39.5378 36.4511 39.6507 36.4511 39.7822C36.4511 40.009 36.5273 40.2421 36.6793 40.4821C36.8318 40.7221 37.0298 40.9137 37.2732 41.0574C37.6163 41.2573 38.0528 41.357 38.5812 41.357C39.0221 41.357 39.4034 41.2837 39.725 41.1376C40.0466 40.9914 40.291 40.7896 40.4577 40.531ZM32.5446 37.2097L33.4108 40.421C33.4817 40.6722 33.5344 40.8497 33.5735 40.9533C33.6126 41.0569 33.6821 41.1503 33.7818 41.2329C33.882 41.3155 34.0144 41.357 34.1801 41.357C34.3556 41.357 34.4915 41.314 34.5878 41.229C34.6841 41.1439 34.7525 41.0447 34.7926 40.9313C34.8327 40.8179 34.883 40.6395 34.9441 40.3961L35.8357 36.7898C35.8889 36.5708 35.9158 36.411 35.9158 36.3113C35.9158 36.17 35.8665 36.0527 35.7677 35.9588C35.669 35.865 35.5492 35.8181 35.408 35.8181C35.2667 35.8181 35.1587 35.8542 35.0844 35.9276C35.0101 36.0004 34.9578 36.0835 34.9275 36.1759C34.8972 36.2682 34.8649 36.3963 34.8307 36.5596L34.1293 39.6873L33.3365 36.7605C33.271 36.519 33.2187 36.346 33.1796 36.2414C33.1405 36.1368 33.0706 36.04 32.9694 35.951C32.8682 35.8621 32.7265 35.8176 32.5437 35.8176C32.3633 35.8176 32.2206 35.8606 32.116 35.9456C32.0114 36.0307 31.9356 36.1314 31.8897 36.2487C31.8437 36.366 31.7914 36.5366 31.7328 36.7605L30.9473 39.6873L30.2459 36.5596C30.195 36.3181 30.1354 36.1343 30.067 36.0077C29.9985 35.8811 29.8661 35.8176 29.6686 35.8176C29.5249 35.8176 29.4042 35.8655 29.3069 35.9603C29.2096 36.0556 29.1607 36.1724 29.1607 36.3113C29.1607 36.4208 29.1871 36.5801 29.2409 36.7898L30.1325 40.3961C30.1593 40.5031 30.1897 40.6195 30.2239 40.7451C30.2581 40.8702 30.3016 40.9787 30.3554 41.0701C30.4091 41.1615 30.479 41.2324 30.5655 41.2823C30.652 41.3321 30.7625 41.357 30.8964 41.357C31.0621 41.357 31.1951 41.315 31.2948 41.2309C31.3945 41.1469 31.4649 41.052 31.505 40.946C31.5456 40.8399 31.5993 40.6649 31.6678 40.4215L32.5446 37.2097ZM25.7123 36.7453L28.1568 36.7453C28.3293 36.7453 28.4579 36.7072 28.5424 36.6304Q28.6685 36.5153 28.6685 36.3254C28.6685 36.2013 28.6265 36.1006 28.5424 36.0239C28.4584 35.9471 28.3298 35.909 28.1568 35.909L25.292 35.909C25.1385 35.909 25.0124 35.9315 24.9136 35.9764C24.8149 36.0214 24.7426 36.0933 24.6961 36.192C24.6497 36.2907 24.6267 36.4178 24.6267 36.5737L24.6267 40.6004C24.6267 40.834 24.6785 41.0037 24.7822 41.1083C24.8858 41.2129 25.0559 41.2652 25.292 41.2652L28.2408 41.2652C28.4114 41.2652 28.54 41.2256 28.6265 41.1464C28.713 41.0672 28.756 40.9641 28.756 40.8375C28.756 40.706 28.713 40.6004 28.6265 40.5212C28.54 40.442 28.4114 40.4024 28.2408 40.4024L25.7123 40.4024L25.7123 38.8789L27.9632 38.8789C28.1309 38.8789 28.2555 38.8408 28.3357 38.764C28.4163 38.6873 28.4564 38.5881 28.4564 38.4663C28.4564 38.3446 28.4158 38.2464 28.3342 38.1721Q28.2118 38.0606 27.9632 38.0606L25.7123 38.0606L25.7123 36.7453Z" id="Combined-Shape" fill="#34B933" fill-rule="evenodd" stroke="none" />
  </g>
</svg>