<?xml version="1.0" encoding="utf-8"?>
<svg width="18.001465px" height="18px" viewBox="0 0 18.001465 18" version="1.1" xmlns:xlink="http://www.w3.org/1999/xlink" xmlns="http://www.w3.org/2000/svg">
  <g id="Group-12">
    <path d="M16.7598 9.00009C16.7598 9.3429 17.0377 9.62079 17.3805 9.62079C17.5452 9.62079 17.703 9.5554 17.8194 9.43899C17.9358 9.32259 18.0012 9.16471 18.0012 9.00009C17.9958 4.03175 13.9695 0.00547326 9.00115 0C8.65835 0 8.38045 0.277895 8.38045 0.620696C8.38045 0.963497 8.65835 1.24139 9.00115 1.24139C13.2842 1.24618 16.7551 4.71707 16.7598 9.00009ZM7.45468 10.5466C5.7366 8.82847 5.34866 7.11038 5.26114 6.42203C5.23669 6.2317 5.30219 6.04083 5.43835 5.90561L6.82871 4.51587C7.03323 4.31148 7.06953 3.99293 6.91623 3.74776L4.70252 0.310348C4.53292 0.0388707 4.18468 -0.0591082 3.8984 0.0841043L0.344609 1.75781C0.113108 1.8718 -0.0230584 2.11777 0.00322607 2.37447C0.189435 4.14346 0.96065 8.49205 5.23414 12.7659C9.50764 17.0397 13.8556 17.8106 15.6255 17.9968C15.8822 18.0231 16.1282 17.8869 16.2422 17.6554L17.9159 14.1016C18.0586 13.8159 17.9612 13.4686 17.6909 13.2987L14.2535 11.0856C14.0085 10.9322 13.6899 10.9682 13.4854 11.1725L12.0956 12.5629C11.9604 12.6991 11.7695 12.7646 11.5792 12.7401C10.8909 12.6526 9.17277 12.2646 7.45468 10.5466ZM14.2771 9.62079C13.9343 9.62079 13.6564 9.34289 13.6564 9.00009C13.6535 6.43029 11.5709 4.34778 9.00115 4.34487C8.65835 4.34487 8.38045 4.06698 8.38045 3.72418C8.38045 3.38138 8.65835 3.10348 9.00115 3.10348C12.2563 3.10707 14.8942 5.74497 14.8978 9.00009C14.8978 9.34289 14.6199 9.62079 14.2771 9.62079Z" id="Combined-Shape" fill="#0060FF" fill-rule="evenodd" stroke="none" />
  </g>
</svg>