<?xml version="1.0" encoding="utf-8"?>
<svg width="40px" height="40px" viewBox="0 0 40 40" version="1.1" xmlns:xlink="http://www.w3.org/1999/xlink" xmlns="http://www.w3.org/2000/svg">
  <defs>
    <radialGradient gradientUnits="objectBoundingBox" cx="50%" cy="50%" fx="50%" fy="50%" r="50%" gradientTransform="translate(0.5,0.5),translate(-0.5,-0.5)" id="gradient_1">
      <stop offset="0%" stop-color="#FFFFFF" />
      <stop offset="100%" stop-color="#C0EBFF" />
    </radialGradient>
  </defs>
  <g id="Group-20">
    <path d="M40 20L40 20C40 31.053 31.053 40 20 40L20 40C8.96279 40 0 31.053 0 20L0 20C0 8.96279 8.94695 0 20 0L20 0C31.053 0 40 8.96279 40 20Z" id="Path-Copy" fill="url(#gradient_1)" stroke="none" />
    <g id="Group" transform="translate(6.629658 8.101012)">
      <path d="M18.4191 0L8.28837 0C7.15029 0 6.08684 0.613929 5.50847 1.59994L0.433775 10.3438C-0.144592 11.3298 -0.144592 12.5576 0.433775 13.5437L5.50847 22.2875C6.08684 23.2735 7.13163 23.8874 8.28837 23.8874L18.4191 23.8874C19.5572 23.8874 20.6206 23.2735 21.199 22.2875L26.2737 13.5437C26.8521 12.5576 26.8521 11.3298 26.2737 10.3438L21.199 1.59994C20.6206 0.613929 19.5572 0 18.4191 0Z" id="Path" fill="#00C86B" stroke="none" />
      <g id="Group" transform="translate(2.9029863 5.2435822)">
        <path d="M14.1137 15.2435L13.9094 15.2435C13.4452 15.2435 12.9438 15.3364 10.9381 15.3364C10.6967 15.3364 10.4924 15.2435 10.3253 15.0207C10.0096 14.8165 9.78674 14.6308 9.41533 14.6308C9.09963 14.6308 8.8025 14.8165 8.09681 15.1693C7.83682 15.3549 7.29827 15.522 7.09399 15.6334C7.09399 15.522 7.09399 15.2435 7.20542 15.1693C7.29827 14.7236 7.29827 14.3152 7.20542 14.1666C7.09399 14.0181 7.00114 14.0181 6.90829 14.0181C6.29546 14.0181 5.71976 14.7236 5.01408 15.3364C4.56838 15.7263 4.10412 16.2461 3.8627 16.2461C3.69556 15.8934 4.40125 14.538 4.56838 13.9253C5.01408 12.9226 5.18122 12.7184 4.88408 12.477C4.79123 12.3842 4.64267 12.3842 4.38268 12.477C3.99269 12.8298 3.47271 13.2197 3.08273 13.721C2.19134 14.5565 1.28138 15.4292 0.575691 15.1693C0.482837 15.0207 0.259989 15.1693 0.129995 15.2621C0.0371413 15.3549 0.129995 15.522 0.241419 15.652C1.28138 16.1533 2.28419 15.1878 3.36129 14.1852C3.65842 13.9438 3.82556 13.6468 4.15983 13.4797C4.06698 13.5725 4.06698 13.6653 3.97412 13.7396C3.36129 15.0393 2.97131 16.0605 3.26844 16.5432C3.36129 16.636 3.45414 16.7475 3.65842 16.7475C4.06698 16.7475 4.54981 16.2833 5.16264 15.652C5.70119 15.1878 6.16546 14.6494 6.57402 14.5565C6.57402 14.6494 6.57402 14.8165 6.48116 15.0207C6.3326 15.4292 6.3326 15.8748 6.48116 16.0605C6.57402 16.1533 6.68544 16.2647 6.77829 16.2647C7.03828 16.2647 7.48398 16.0605 8.0411 15.652C8.39394 15.4478 8.95106 15.1878 9.04391 15.1878C9.28533 15.1878 9.48961 15.2807 9.65675 15.4478C9.89817 15.652 10.1953 15.8934 10.5667 15.8934C11.6809 15.8934 12.8323 15.7448 13.8723 15.7448C14.0394 15.7077 14.2808 15.2435 14.1137 15.2435Z" id="Path" fill="#FFFBF6" fill-rule="evenodd" stroke="none" />
        <g id="Group" transform="translate(13.9279995 0)">
          <path d="M0.167136 14.965C0.148565 15.1878 0.241419 15.2435 0.427125 15.1136C0.947104 14.7236 1.18852 14.5194 1.18852 14.5194C0.928533 14.2966 0.612832 14.1295 0.297131 14.0367C0.204277 14.6494 0.167136 14.965 0.167136 14.965Z" id="Path" fill="#FFFBF6" fill-rule="evenodd" stroke="none" />
          <path d="M0.352843 13.4797C0.83568 13.5539 1.28138 13.7953 1.61565 14.1666C3.11987 12.9598 4.14126 12.1428 4.66124 11.7158L0.83568 9.54345C0.501408 12.1614 0.352843 13.4797 0.352843 13.4797Z" id="Path" fill="#FFFBF6" fill-rule="evenodd" stroke="none" />
          <path d="M6.12832 0.167103L6.12832 0.167103L5.79405 0.761248L5.10693 1.98667L1.0771 9.11641L5.10693 11.4001L6.07261 9.76625L6.09118 9.72912L6.10975 9.69198L6.14689 9.63628L6.25831 9.43204L6.25831 9.43204L6.35117 9.26494L6.46259 9.06071L6.49973 8.98644L6.55544 8.87504L6.6483 8.7265L6.72258 8.59653L6.75972 8.52226L6.83401 8.37373L6.94543 8.15092L6.98257 8.09522L7.20542 7.70531L7.26113 7.61248L7.2797 7.59391L8.82107 4.82743" id="Path" fill="#FFFBF6" fill-rule="evenodd" stroke="none" />
        </g>
      </g>
      <path d="M11.6119 9.70697C11.6464 8.54711 12.5247 7.59303 13.6096 7.57432C14.7462 7.55562 15.6761 8.54711 15.6761 9.7818C15.6761 9.91275 15.6589 10.0437 15.6417 10.1559C15.5384 10.7733 15.1939 11.3158 14.7117 11.6338C14.5223 11.7648 14.419 12.0267 14.4534 12.2699L15.0389 15.3753C15.0734 15.5624 14.9356 15.7307 14.7634 15.7307L12.4386 15.712C12.2663 15.712 12.1286 15.5437 12.163 15.3379L12.783 12.2325C12.8346 11.9893 12.7313 11.7274 12.5419 11.5964C12.0597 11.2597 11.7325 10.7359 11.6292 10.0998C11.6119 10.0063 11.6119 9.85663 11.6119 9.70697Z" id="Path" fill="#2A894E" stroke="none" />
    </g>
  </g>
</svg>