<?xml version="1.0" encoding="utf-8"?>
<svg width="40px" height="40px" viewBox="0 0 40 40" version="1.1" xmlns:xlink="http://www.w3.org/1999/xlink" xmlns="http://www.w3.org/2000/svg">
  <defs>
    <radialGradient gradientUnits="objectBoundingBox" cx="50%" cy="50%" fx="50%" fy="50%" r="50%" gradientTransform="translate(0.5,0.5),translate(-0.5,-0.5)" id="gradient_1">
      <stop offset="0%" stop-color="#FFFFFF" />
      <stop offset="100%" stop-color="#C0EBFF" />
    </radialGradient>
  </defs>
  <g id="Group-22">
    <path d="M40 20L40 20C40 31.053 31.053 40 20 40L20 40C8.96279 40 0 31.053 0 20L0 20C0 8.96279 8.94695 0 20 0L20 0C31.053 0 40 8.96279 40 20Z" id="Path-Copy" fill="url(#gradient_1)" stroke="none" />
    <g id="Group" transform="translate(7.763415 7.763415)">
      <path d="M7.86507 1.96158C8.16116 2.49823 8.49426 3.01639 8.86436 3.47902C10.3263 2.3687 12.0473 1.53595 14.0089 0.943777C11.8622 0.721712 9.75262 1.07331 7.86507 1.96158L7.86507 1.96158ZM9.49355 4.21924C11.0665 2.90535 12.9911 1.88755 15.2857 1.14734C16.174 1.3509 17.0438 1.64698 17.8395 2.0356C16.1925 3.10891 14.6566 4.84842 13.3242 6.92103C11.8622 6.27334 10.5854 5.38508 9.49355 4.21924ZM3.55331 5.36657C3.84939 6.40288 4.38605 7.30964 5.08926 8.12388C5.77396 6.66195 6.68072 5.4406 7.77254 4.40429C7.2914 3.90465 6.82877 3.36799 6.38464 2.77581C5.31132 3.47902 4.34904 4.34878 3.55331 5.36657ZM5.88499 8.91962C6.55119 7.47619 7.43945 6.21782 8.51276 5.1075C9.80814 6.27334 11.2516 7.1431 12.8245 7.73527C12.0658 9.01214 11.3811 10.4001 10.7889 11.825C8.91988 11.0477 7.19888 10.1225 5.88499 8.91962ZM3.51629 15.3595C2.60953 14.7118 1.79529 13.9531 1.09208 13.1018C1.20312 15.7111 2.1839 18.0798 3.71985 19.9859C3.5348 18.3204 3.46078 16.7844 3.51629 15.3595ZM1.29564 10.4371C1.94333 11.7324 2.72056 12.8428 3.60882 13.7865C3.77537 12.1211 4.10847 10.6221 4.58961 9.30823C3.84939 8.60503 3.1832 7.77228 2.59102 6.81C1.96184 7.93883 1.4992 9.16019 1.25863 10.4741L1.29564 10.4371ZM4.40455 14.5453C4.5711 12.8983 4.92271 11.3993 5.42235 10.0299C6.90279 11.1958 8.62379 11.9915 10.5299 12.4727C9.91917 14.0456 9.43803 15.6186 9.10493 17.1175C7.30991 16.5624 5.73695 15.7111 4.40455 14.5453ZM4.95972 21.8734C5.99602 22.5581 7.16186 23.0763 8.38322 23.4094C6.90279 22.8172 5.5889 21.9289 4.47858 20.8186C4.27502 19.0606 4.2195 17.4321 4.29352 15.8777C5.69993 16.7659 7.2729 17.3951 8.9754 17.7467C8.56828 19.8933 8.51276 21.8364 8.90137 23.2798C9.01241 21.5218 9.23447 19.7083 9.62309 17.8762C11.0295 18.0983 12.5099 18.0983 14.0459 17.8948C12.4914 17.8392 11.0665 17.6542 9.73412 17.3211C10.0857 15.7481 10.5484 14.1937 11.159 12.6392C12.1398 12.8428 13.1761 12.9723 14.2494 13.0463C13.2872 12.7502 12.3249 12.4356 11.3996 12.084C11.9918 10.6961 12.695 9.32674 13.5462 8.01285C15.7114 8.67905 18.0986 8.80859 20.7263 8.43848C18.2651 8.36445 16.026 7.99435 14.0644 7.25413C15.2857 5.53312 16.7662 3.90465 18.5612 2.44272C19.7085 3.10891 20.7449 3.94166 21.6146 4.94095C20.9299 3.92315 20.0787 3.03489 19.1349 2.25766C17.1548 0.832744 14.7121 0 12.1028 0C5.42235 0 0.000262664 5.42209 0.000262664 12.1026C-0.0182428 16.0627 1.90632 19.6528 4.95972 21.8734Z" id="Shape" fill="#148BC8" fill-rule="evenodd" stroke="none" />
      <path d="M21.7071 18.9496C21.5591 18.3944 21.4481 18.1538 21.2445 17.6357C21.2445 17.6357 21.2445 17.6357 21.2445 17.6357C20.5043 15.8221 19.394 14.2122 18.3206 12.9168L18.3206 12.9168C18.1541 12.7317 18.006 12.5467 17.858 12.3616C17.8395 12.3246 17.8025 12.3061 17.784 12.2691C17.6359 12.1026 17.4879 11.936 17.3399 11.788L17.3399 11.788C16.7107 11.1218 16.1555 10.5851 15.7484 10.2335L16.4701 9.34524C16.4701 9.34524 16.4701 9.34524 16.4701 9.34524L17.3213 8.29043L9.62309 8.34595L10.2153 11.7695L10.2153 11.7695L10.8444 15.3595L10.8444 15.3595L10.9555 16.0442L12.4544 14.2122C12.6765 14.4157 12.9726 14.7118 13.3057 15.0264L13.3057 15.0264C13.3057 15.0264 13.3242 15.0449 13.3242 15.0449C13.5277 15.2485 13.7313 15.4705 13.9534 15.7111C13.9719 15.7481 14.0089 15.7666 14.0274 15.8036C14.1014 15.8962 14.1754 15.9887 14.2679 16.0812C14.305 16.1367 14.342 16.1737 14.379 16.2293C14.416 16.2848 14.453 16.3218 14.49 16.3773C14.49 16.3773 14.49 16.3773 14.49 16.3773C15.9334 18.1538 17.3584 20.5595 16.8772 22.8912C16.9142 22.8727 19.653 21.8549 21.7071 18.9496Z" id="Path" fill="#FDC113" stroke="none" />
      <path d="M9.49355 23.6684C9.49355 23.6684 18.7093 25.7966 22.9655 16.7844C24.2794 13.9346 24.3164 9.5488 22.1143 5.81071C22.1143 5.81071 24.7605 11.2698 21.4481 17.136C19.8936 19.6528 16.8402 23.2798 11.011 22.7987C10.3263 23.2983 9.49355 23.6684 9.49355 23.6684Z" id="Path" fill="#FDC113" stroke="none" />
    </g>
  </g>
</svg>