<?xml version="1.0" encoding="UTF-8"?>
<svg width="40px" height="40px" viewBox="0 0 40 40" version="1.1" xmlns="http://www.w3.org/2000/svg" xmlns:xlink="http://www.w3.org/1999/xlink">
    <title>tiktok</title>
    <g id="SẢN-PHẨM--(Đã-duyệt)" stroke="none" stroke-width="1" fill="none" fill-rule="evenodd">
        <g id="TIN-TỨC" transform="translate(-1104.000000, -4247.000000)" fill="#000000" fill-rule="nonzero">
            <g id="Group-4" transform="translate(-1.000000, 4148.000000)">
                <g id="Group-16" transform="translate(1.000000, 0.000000)">
                    <g id="Group-11" transform="translate(1049.000000, 99.000000)">
                        <g id="tiktok" transform="translate(55.000000, 0.000000)">
                            <path d="M20,0 C8.95601562,0 0,8.95601562 0,20 C0,31.0439844 8.95601562,40 20,40 C31.0439844,40 40,31.0439844 40,20 C40,8.95601562 31.0439844,0 20,0 Z M30.0335938,15.3025781 L30.0335938,18.010625 C28.7566406,18.0110938 27.5159375,17.7608594 26.3457813,17.2671875 C25.5933594,16.9495312 24.8923438,16.5402344 24.2511719,16.045625 L24.2703906,24.3810156 C24.2623437,26.2579687 23.5197656,28.0214844 22.1757813,29.3498437 C21.0820313,30.4310937 19.6960938,31.1186719 18.1939063,31.34125 C17.8409375,31.3935156 17.4817188,31.4203125 17.1184375,31.4203125 C15.5103906,31.4203125 13.98375,30.899375 12.7349219,29.9382813 C12.4999219,29.7573438 12.2751563,29.5611719 12.0611719,29.3498438 C10.6046094,27.9102344 9.85351563,25.9591406 9.98,23.9065625 C10.0764844,22.3441406 10.7020313,20.8540625 11.7448438,19.6861719 C13.1245313,18.1407031 15.0546875,17.2828906 17.1184375,17.2828906 C17.4817188,17.2828906 17.8409375,17.3101562 18.1939062,17.3624219 L18.1939062,18.3636719 L18.1939062,21.1489844 C17.8592188,21.0385937 17.5017969,20.9778906 17.1296094,20.9778906 C15.2441406,20.9778906 13.71875,22.5161719 13.7469531,24.4030469 C13.7648438,25.6103125 14.4242969,26.665625 15.3969531,27.2473437 C15.8540625,27.5207812 16.3799219,27.6901563 16.9410938,27.7209375 C17.3807813,27.7450781 17.8029688,27.6838281 18.1939063,27.5547656 C19.5410156,27.1097656 20.5128125,25.8444531 20.5128125,24.3521094 L20.5172656,18.7703125 L20.5172656,8.5796875 L24.2466406,8.5796875 C24.2502344,8.94921875 24.2877344,9.30976563 24.3574219,9.65914063 C24.6389063,11.0732813 25.4360156,12.3001563 26.5453906,13.1365625 C27.5127344,13.8661719 28.7172656,14.2986719 30.0228125,14.2986719 C30.0236719,14.2986719 30.0344531,14.2986719 30.0335938,14.2978125 L30.0335938,15.3025781 L30.0335938,15.3025781 Z" id="Shape"></path>
                        </g>
                    </g>
                </g>
            </g>
        </g>
    </g>
</svg>