<?xml version="1.0" encoding="UTF-8"?>
<svg width="40px" height="40px" viewBox="0 0 40 40" version="1.1" xmlns="http://www.w3.org/2000/svg" xmlns:xlink="http://www.w3.org/1999/xlink">
    <title>youtube</title>
    <g id="SẢN-PHẨM--(Đã-duyệt)" stroke="none" stroke-width="1" fill="none" fill-rule="evenodd">
        <g id="TIN-TỨC" transform="translate(-1049.000000, -4247.000000)" fill-rule="nonzero">
            <g id="Group-4" transform="translate(-1.000000, 4148.000000)">
                <g id="Group-16" transform="translate(1.000000, 0.000000)">
                    <g id="youtube" transform="translate(1049.000000, 99.000000)">
                        <circle id="Background" fill="#FF0000" cx="20" cy="20" r="20"></circle>
                        <path d="M26.5447368,12.4763158 L13.4552632,12.4763158 C12.3988267,12.4763158 11.3856975,12.8961634 10.6389309,13.6434235 C9.89216428,14.3906837 9.47298597,15.40409 9.47368334,16.4605263 L9.47368334,23.5394737 C9.47298597,24.59591 9.89216428,25.6093163 10.6389309,26.3565765 C11.3856975,27.1038366 12.3988267,27.5236842 13.4552632,27.5236842 L26.5447368,27.5236842 C27.6011733,27.5236842 28.6143025,27.1038366 29.3610691,26.3565765 C30.1078357,25.6093163 30.527014,24.59591 30.5263167,23.5394737 L30.5263167,16.4605263 C30.527014,15.40409 30.1078357,14.3906837 29.3610691,13.6434235 C28.6143025,12.8961634 27.6011733,12.4763158 26.5447368,12.4763158 L26.5447368,12.4763158 Z M17.2263158,23.2263158 L17.2263158,16.7736842 L22.7736842,20 L17.2263158,23.2263158 Z" id="Icon" fill="#FFFFFF"></path>
                    </g>
                </g>
            </g>
        </g>
    </g>
</svg>