<?xml version="1.0" encoding="utf-8"?>
<svg width="29.999756px" height="30px" viewBox="0 0 29.999756 30" version="1.1" xmlns:xlink="http://www.w3.org/1999/xlink" xmlns="http://www.w3.org/2000/svg">
  <g id="email-4">
    <path d="M14.9997 0C6.71567 0 0 6.71587 0 14.9998C0 23.2836 6.71567 30 14.9997 30C23.2836 30 29.9998 23.2836 29.9998 14.9998C29.9998 6.71587 23.2836 0 14.9997 0ZM15 5.26865L23.8763 10.8037L6.12356 10.8037L15 5.26865ZM23.9869 19.6425L23.986 19.6425C23.986 20.5303 23.2665 21.2497 22.3788 21.2497L7.62108 21.2497C6.73327 21.2497 6.01386 20.5302 6.01386 19.6425L6.01386 11.1559C6.01386 11.062 6.02346 10.9707 6.03906 10.881L14.5199 16.1694C14.5303 16.1759 14.5414 16.1803 14.5521 16.1863C14.5633 16.1925 14.5747 16.1985 14.5861 16.2042C14.646 16.2351 14.7077 16.26 14.7708 16.2763C14.7773 16.2781 14.7838 16.2789 14.7903 16.2804C14.8595 16.2967 14.9296 16.3069 14.9997 16.3069L15.0002 16.3069C15.0007 16.3069 15.0012 16.3069 15.0012 16.3069C15.0711 16.3069 15.1413 16.297 15.2105 16.2804C15.217 16.2788 15.2235 16.2781 15.23 16.2763C15.293 16.26 15.3545 16.2351 15.4147 16.2042C15.4261 16.1985 15.4375 16.1925 15.4487 16.1863C15.4593 16.1803 15.4705 16.1759 15.4809 16.1694L23.9617 10.881C23.9773 10.9707 23.9869 11.0618 23.9869 11.1559L23.9869 19.6425Z" id="Shape" fill="#ADADAD" stroke="none" />
  </g>
</svg>