<?xml version="1.0" encoding="utf-8"?>
<svg width="30px" height="30px" viewBox="0 0 30 30" version="1.1" xmlns:xlink="http://www.w3.org/1999/xlink" xmlns="http://www.w3.org/2000/svg">
  <g id="facebook-circular-logo">
    <path d="M15.0001 0C6.71585 0 0 6.74393 0 15.0628C0 22.5239 5.40783 28.7029 12.4984 29.8994L12.4984 18.2053L8.87992 18.2053L8.87992 13.9971L12.4984 13.9971L12.4984 10.8941C12.4984 7.29377 14.6882 5.33179 17.8871 5.33179C19.4191 5.33179 20.7357 5.44643 21.1179 5.49692L21.1179 9.26024L18.8993 9.26132C17.16 9.26132 16.8247 10.0911 16.8247 11.3092L16.8247 13.9949L20.9748 13.9949L20.4335 18.2032L16.8247 18.2032L16.8247 30C24.2463 29.093 30 22.7565 30 15.0585C30 6.74393 23.2841 0 15.0001 0Z" id="Path" fill="#ADADAD" stroke="none" />
  </g>
</svg>