<?xml version="1.0" encoding="utf-8"?>
<svg width="30px" height="30.000214px" viewBox="0 0 30 30.000214" version="1.1" xmlns:xlink="http://www.w3.org/1999/xlink" xmlns="http://www.w3.org/2000/svg">
  <g id="link-10">
    <path d="M14.9996 0C6.71564 0 0 6.71614 0 14.9998C0 23.2835 6.71564 30.0002 14.9996 30.0002C23.2836 30.0002 30 23.2839 30 14.9998C30 6.71574 23.2836 0 14.9996 0ZM22.5364 12.3303L18.8677 15.9989C18.4698 16.3968 17.9408 16.6159 17.3782 16.6159C16.8157 16.6159 16.2866 16.3967 15.8887 15.9991L15.745 15.8554L15.3544 16.246L15.4978 16.3894C16.3192 17.2108 16.3192 18.5473 15.4978 19.3687L11.8297 23.0374C11.4318 23.4353 10.9028 23.6544 10.3399 23.6544C9.77707 23.6544 9.24796 23.4352 8.84986 23.0371L7.46335 21.6501C6.64194 20.8292 6.64194 19.4928 7.46305 18.6711L11.132 15.0027C11.5299 14.6048 12.0589 14.3857 12.6218 14.3857C13.1847 14.3857 13.7134 14.6049 14.1116 15.0027L14.2548 15.1459L14.6454 14.7553L14.5022 14.6121C13.6808 13.791 13.6808 12.4545 14.5017 11.6331L18.1706 7.96445C18.5687 7.56635 19.0978 7.34715 19.6604 7.34715C20.223 7.34715 20.752 7.56635 21.1502 7.96415L22.537 9.35146C23.3578 10.1724 23.3578 11.5091 22.5364 12.3303Z" id="Shape" fill="#ADADAD" stroke="none" />
    <path d="M14.2539 17.346L13.5446 18.0553L12.4444 16.9554L13.1537 16.2461L13.0105 16.1029C12.9065 15.9992 12.7683 15.9418 12.6215 15.9418C12.4744 15.9418 12.3362 15.9991 12.2322 16.1029L8.56356 19.771C8.34906 19.9857 8.34906 20.3348 8.56356 20.5493L9.95057 21.9366C10.1589 22.1449 10.5214 22.1446 10.7292 21.9369L14.3973 18.2683C14.6121 18.0536 14.6121 17.7042 14.3973 17.4894L14.2539 17.346Z" id="Path" fill="#ADADAD" stroke="none" />
    <path d="M20.0493 9.06436C19.9453 8.96036 19.8068 8.90306 19.6597 8.90306C19.5126 8.90306 19.3741 8.96036 19.2701 9.06466L15.6015 12.7331C15.3873 12.9478 15.3873 13.2969 15.6018 13.5117L15.7452 13.6549L16.8332 12.5666L17.9334 13.6668L16.8454 14.7551L16.9888 14.8985C17.1971 15.1062 17.5591 15.1065 17.7674 14.8982L21.4358 11.2301C21.6503 11.0154 21.6503 10.6663 21.4358 10.4515L20.0493 9.06436Z" id="Path" fill="#ADADAD" stroke="none" />
  </g>
</svg>