<?xml version="1.0" encoding="utf-8"?>
<svg width="30px" height="30px" viewBox="0 0 30 30" version="1.1" xmlns:xlink="http://www.w3.org/1999/xlink" xmlns="http://www.w3.org/2000/svg">
  <g id="linkedin">
    <path d="M15 30C23.2843 30 30 23.2843 30 15C30 6.71573 23.2843 0 15 0C6.71573 0 0 6.71573 0 15C0 23.2843 6.71573 30 15 30Z" id="Oval" fill="#ADADAD" stroke="none" />
    <path d="M7.23769 8.27222C7.23769 7.21443 8.04013 6.40932 9.26664 6.40932C10.4934 6.40932 11.2472 7.21443 11.271 8.27222C11.271 9.30755 10.4934 10.1359 9.24284 10.1359L9.21958 10.1359C8.01686 10.1359 7.23769 9.30755 7.23769 8.27222ZM20.3769 22.3912L23.9624 22.3912L23.9624 16.207C23.9624 12.8954 22.1938 11.3541 19.8349 11.3541C17.9298 11.3541 17.08 12.4023 16.6035 13.1355L16.6035 11.6074L13.0176 11.6074C13.0657 12.6189 13.0176 22.3909 13.0176 22.3909L16.6033 22.3909L16.6033 16.3682C16.6033 16.045 16.6276 15.7249 16.722 15.4944C16.9819 14.8495 17.5704 14.1834 18.5611 14.1834C19.8593 14.1834 20.3769 15.1727 20.3769 16.6214L20.3769 22.3912ZM11.0352 22.3912L7.4508 22.3912L7.4508 11.6074L11.0352 11.6074L11.0352 22.3912ZM16.6035 13.1708L16.5797 13.1708C16.5862 13.1593 16.5963 13.1475 16.6035 13.1355L16.6035 13.1708Z" id="Shape" fill="#FFFFFF" fill-rule="evenodd" stroke="none" />
  </g>
</svg>