<?xml version="1.0" encoding="utf-8"?>
<svg width="20px" height="14.0625px" viewBox="0 0 20 14.0625" version="1.1" xmlns:xlink="http://www.w3.org/1999/xlink" xmlns="http://www.w3.org/2000/svg">
  <g id="Group">
    <path d="M18.2422 0L1.75781 0C0.786602 0 0 0.791484 0 1.75781L0 12.3047C0 13.2768 0.792383 14.0625 1.75781 14.0625L18.2422 14.0625C19.2053 14.0625 20 13.2801 20 12.3047L20 1.75781C20 0.793203 19.2165 0 18.2422 0ZM17.996 1.17188C17.6369 1.5291 11.4564 7.67707 11.243 7.88934C10.9109 8.22137 10.4695 8.40418 10 8.40418C9.53047 8.40418 9.08906 8.22133 8.75594 7.88824C8.61242 7.74547 2.50012 1.66539 2.00398 1.17188L17.996 1.17188ZM1.17188 12.0662L1.17188 1.99707L6.23586 7.03438L1.17188 12.0662ZM2.00473 12.8906L7.06672 7.86082L7.9284 8.71797C8.48176 9.27133 9.21746 9.57605 10 9.57605C10.7825 9.57605 11.5182 9.27133 12.0705 8.71906L12.9333 7.86082L17.9953 12.8906L2.00473 12.8906ZM18.8281 12.0662L13.7641 7.03438L18.8281 1.99707L18.8281 12.0662Z" id="Shape" fill="#A6E6FF" stroke="none" />
  </g>
</svg>