<?xml version="1.0" encoding="utf-8"?>
<svg width="75px" height="75px" viewBox="0 0 75 75" version="1.1" xmlns:xlink="http://www.w3.org/1999/xlink" xmlns="http://www.w3.org/2000/svg">
  <defs>
    <path d="M37.5 75C58.2107 75 75 58.2107 75 37.5C75 16.7893 58.2107 0 37.5 0C16.7893 0 0 16.7893 0 37.5C0 58.2107 16.7893 75 37.5 75Z" id="path_1" />
    <clipPath id="clip_1">
      <use xlink:href="#path_1" />
    </clipPath>
  </defs>
  <g id="Group-15">
    <g id="Oval">
      <g clip-path="url(#clip_1)">
        <use xlink:href="#path_1" fill="none" stroke="#FFFFFF" stroke-width="6" />
      </g>
    </g>
    <path d="M50.7843 38.9647L29.7127 51.4161Q29.6561 51.4495 29.5974 51.4792Q29.5387 51.5089 29.4782 51.5346Q29.4177 51.5603 29.3556 51.582Q29.2935 51.6038 29.2302 51.6213Q29.1668 51.6389 29.1024 51.6523Q29.0381 51.6657 28.9729 51.6748Q28.9078 51.6839 28.8422 51.6887Q28.7766 51.6935 28.7109 51.694Q28.6451 51.6945 28.5795 51.6907Q28.5138 51.6869 28.4486 51.6788Q28.3833 51.6706 28.3188 51.6582Q28.2542 51.6458 28.1906 51.6292Q28.1269 51.6126 28.0646 51.5918Q28.0022 51.5711 27.9413 51.5462Q27.8804 51.5214 27.8212 51.4927Q27.7621 51.4639 27.705 51.4313Q27.6479 51.3987 27.593 51.3624Q27.5382 51.3262 27.4859 51.2864Q27.4335 51.2466 27.3839 51.2034Q27.3343 51.1603 27.2876 51.1139Q27.2409 51.0676 27.1974 51.0183Q27.1539 50.9691 27.1137 50.917Q27.0735 50.865 27.0368 50.8104Q27.0001 50.7558 26.9671 50.699Q26.9341 50.6421 26.9049 50.5832Q26.8756 50.5243 26.8504 50.4636Q26.8251 50.4029 26.8038 50.3406Q26.7826 50.2784 26.7655 50.2149Q26.7484 50.1514 26.7355 50.0869Q26.7226 50.0225 26.714 49.9573Q26.7054 49.8921 26.7011 49.8265Q26.6967 49.7609 26.6967 49.6951L26.6967 24.7923Q26.6967 24.7265 26.7011 24.6609Q26.7054 24.5953 26.714 24.5301Q26.7226 24.4649 26.7355 24.4005Q26.7484 24.336 26.7655 24.2725Q26.7826 24.209 26.8038 24.1467Q26.8251 24.0845 26.8504 24.0238Q26.8756 23.9631 26.9049 23.9042Q26.9341 23.8453 26.9671 23.7884Q27.0001 23.7316 27.0368 23.677Q27.0735 23.6224 27.1137 23.5704Q27.1539 23.5183 27.1974 23.469Q27.2409 23.4198 27.2876 23.3734Q27.3343 23.3271 27.3839 23.284Q27.4335 23.2408 27.4859 23.201Q27.5382 23.1612 27.593 23.1249Q27.6479 23.0887 27.705 23.0561Q27.7621 23.0235 27.8212 22.9947Q27.8804 22.966 27.9413 22.9411Q28.0022 22.9163 28.0646 22.8956Q28.1269 22.8748 28.1906 22.8582Q28.2542 22.8416 28.3188 22.8292Q28.3833 22.8168 28.4486 22.8086Q28.5138 22.8005 28.5795 22.7967Q28.6451 22.7929 28.7109 22.7934Q28.7766 22.7939 28.8422 22.7987Q28.9078 22.8035 28.9729 22.8126Q29.0381 22.8217 29.1024 22.8351Q29.1668 22.8485 29.2302 22.8661Q29.2935 22.8836 29.3556 22.9053Q29.4177 22.9271 29.4782 22.9528Q29.5387 22.9785 29.5974 23.0082Q29.6561 23.0379 29.7127 23.0713L50.7843 35.5227Q50.8401 35.5557 50.8936 35.5922Q50.9472 35.6287 50.9982 35.6686Q51.0493 35.7085 51.0977 35.7516Q51.1461 35.7948 51.1915 35.8409Q51.237 35.8871 51.2794 35.9361Q51.3218 35.9852 51.3609 36.0368Q51.4 36.0885 51.4357 36.1426Q51.4714 36.1967 51.5036 36.253Q51.5357 36.3092 51.5641 36.3675Q51.5925 36.4258 51.6171 36.4857Q51.6416 36.5457 51.6623 36.6071Q51.6829 36.6686 51.6995 36.7312Q51.7161 36.7938 51.7287 36.8574Q51.7412 36.921 51.7496 36.9853Q51.7579 37.0495 51.7621 37.1142Q51.7663 37.1789 51.7663 37.2437Q51.7663 37.3085 51.7621 37.3732Q51.7579 37.4379 51.7496 37.5021Q51.7412 37.5664 51.7287 37.63Q51.7161 37.6936 51.6995 37.7562Q51.6829 37.8188 51.6623 37.8803Q51.6416 37.9417 51.6171 38.0017Q51.5925 38.0616 51.5641 38.1199Q51.5357 38.1781 51.5036 38.2344Q51.4714 38.2907 51.4357 38.3448Q51.4 38.3989 51.3609 38.4506Q51.3218 38.5022 51.2794 38.5513Q51.237 38.6003 51.1915 38.6464Q51.146 38.6926 51.0977 38.7358Q51.0493 38.7789 50.9982 38.8188Q50.9472 38.8587 50.8936 38.8952Q50.8401 38.9317 50.7843 38.9647Z" id="Triangle" fill="#FFFFFF" fill-rule="evenodd" stroke="none" />
  </g>
</svg>