<?xml version="1.0" encoding="utf-8"?>
<svg width="89px" height="42px" viewBox="0 0 89 42" version="1.1" xmlns:xlink="http://www.w3.org/1999/xlink" xmlns="http://www.w3.org/2000/svg">
  <g id="Group-8">
    <path d="M0 0L89 0L89 42L0 42L0 0Z" id="Rectangle" fill="#FFFFFF" fill-rule="evenodd" stroke="none" />
    <g id="Group" transform="translate(7 7)">
      <path d="M11.6255 19.6364L7.44269 7.36364L10.1084 7.36364L13.1487 16.7943L16.1703 7.36364L18.8548 7.36364L14.6533 19.6364L11.6255 19.6364Z" id="Path" fill="#000575" stroke="none" />
      <path d="M24.9594 10.8L27.2899 10.8L27.2899 19.3951L24.9594 19.3951L24.9594 18.43C24.4022 19.2383 23.4966 19.6364 22.2681 19.6364C21.2739 19.6364 20.4633 19.3288 19.811 18.6894C19.1778 18.0561 18.8548 17.1935 18.8548 16.0777L18.8548 10.8L21.1852 10.8L21.1852 15.8002C21.1852 16.9523 21.8881 17.5735 22.971 17.5735C24.1805 17.5735 24.9531 16.8678 24.9531 15.4444L24.9531 10.8L24.9594 10.8Z" id="Path" fill="#000575" stroke="none" />
      <path d="M35.2287 12.9763L33.1848 12.9763L33.1848 16.6233C33.1848 17.5703 33.8894 17.5888 35.2287 17.515L35.2287 19.5629C32.0295 19.9135 30.8488 19.0217 30.8488 16.6171L30.8488 12.9702L29.2746 12.9702L29.2746 10.7993L30.8488 10.7993L30.8488 9.0281L33.1848 8.34545L33.1848 10.7993L35.2287 10.7993L35.2287 12.9763L35.2287 12.9763Z" id="Path" fill="#000575" stroke="none" />
      <path d="M43.6802 11.6023C44.3329 12.2472 44.6561 13.1256 44.6561 14.2619L44.6561 19.6364L42.324 19.6364L42.324 14.5444C42.324 13.3712 41.6205 12.7386 40.5368 12.7386C39.3264 12.7386 38.5532 13.4572 38.5532 14.9068L38.5532 19.6302L36.2211 19.6302L36.2211 6.87273L38.5532 6.87273L38.5532 11.8664C39.1109 11.0433 40.0172 10.6441 41.2466 10.6441C42.2352 10.6379 43.0464 10.9512 43.6802 11.6023Z" id="Path" fill="#000575" stroke="none" />
      <path d="M52.8009 10.0661L55.0759 10.0661L55.0759 18.8976L52.8009 18.8976L52.8009 17.8564C52.1147 18.724 51.1627 19.1455 49.9264 19.1455C48.7456 19.1455 47.7441 18.7054 46.8972 17.8006C46.0688 16.902 45.6485 15.7864 45.6485 14.4787C45.6485 13.171 46.0688 12.0741 46.8972 11.1754C47.7441 10.2768 48.7456 9.81818 49.9264 9.81818C51.1627 9.81818 52.1086 10.2396 52.8009 11.1073L52.8009 10.0661ZM50.3529 16.9701C51.0576 16.9701 51.6387 16.7408 52.0962 16.2822C52.5722 15.805 52.8009 15.2038 52.8009 14.4787C52.8009 13.7536 52.5722 13.1524 52.0962 12.6938C51.6387 12.2166 51.0576 11.9873 50.3529 11.9873C49.6482 11.9873 49.0671 12.2166 48.6096 12.6938C48.1521 13.1524 47.9234 13.7536 47.9234 14.4787C47.9234 15.2038 48.1521 15.805 48.6096 16.2822C49.0671 16.7408 49.6482 16.9701 50.3529 16.9701Z" id="Shape" fill="#000575" stroke="none" />
      <path d="M61.7681 19.1455C60.449 19.1455 59.3299 18.7054 58.4172 17.8006C57.5107 16.902 57.0606 15.7864 57.0606 14.4787C57.0606 13.171 57.5045 12.0741 58.4172 11.1754C59.3237 10.2768 60.449 9.81818 61.7681 9.81818C63.0871 9.81818 64.2062 10.2768 65.1189 11.1754C66.0254 12.0741 66.488 13.171 66.488 14.4787C66.488 15.7864 66.0254 16.8958 65.1189 17.8006C64.2062 18.7054 63.0809 19.1455 61.7681 19.1455ZM61.7681 16.9205C62.462 16.9205 63.0309 16.6912 63.4935 16.2326C63.9561 15.774 64.1874 15.1914 64.1874 14.4849C64.1874 13.7784 63.9561 13.1958 63.4935 12.7372C63.0309 12.2786 62.462 12.0493 61.7681 12.0493C61.0741 12.0493 60.5052 12.2786 60.0426 12.7372C59.5987 13.1958 59.3674 13.7784 59.3674 14.4849C59.3674 15.1914 59.5987 15.774 60.0426 16.2326C60.499 16.6912 61.0679 16.9205 61.7681 16.9205Z" id="Shape" fill="#000575" stroke="none" />
      <path d="M67.9765 17.1818L74.923 17.1818L74.923 20.1273L67.9765 20.1273L67.9765 17.1818Z" id="Rectangle" fill="#000575" stroke="none" />
      <path d="M25.0147 21.9409L25.0147 24.7434L2.27519 24.7434L2.27519 2.25664L25.0147 2.25664L25.0147 8.30911L27.2899 8.30911L27.2899 0L0 0L0 27L27.2899 27L27.2899 21.9409L25.0147 21.9409Z" id="Path" fill="#000575" stroke="none" />
      <g id="Group" transform="translate(30.325932 24.08891)">
        <path d="M1.80743 1.50627C1.70256 1.44327 1.61003 1.39745 1.51133 1.36309C1.42497 1.32873 1.3016 1.28864 1.14121 1.23709C0.900632 1.16264 0.734077 1.09391 0.635378 1.03091C0.549016 0.973636 0.505835 0.893455 0.505835 0.773182C0.505835 0.515455 0.727908 0.337909 1.06719 0.337909C1.38796 0.337909 1.5977 0.469636 1.72107 0.744545L1.75191 0.819L2.07269 0.652909L2.04801 0.595636C1.88146 0.223364 1.5175 0 1.06719 0C0.801933 0 0.586028 0.0687273 0.400966 0.211909C0.222074 0.355091 0.129543 0.544091 0.129543 0.778909C0.129543 0.899182 0.166555 1.02518 0.234411 1.134C0.296098 1.22564 0.43181 1.31727 0.505835 1.35736C0.542847 1.38027 0.598365 1.40891 0.697065 1.44327L0.882126 1.50627L1.08569 1.56355C1.33861 1.638 1.51133 1.71245 1.6162 1.78118C1.7149 1.84991 1.76425 1.93582 1.76425 2.05609C1.76425 2.33673 1.52984 2.50855 1.12887 2.50855C0.727908 2.50855 0.450316 2.34245 0.357785 2.03318L0.326942 1.94155L0 2.11909L0.0185061 2.17636C0.160387 2.58873 0.586028 2.84645 1.12271 2.84645C1.4188 2.84645 1.66555 2.77773 1.84445 2.63455C2.02951 2.49136 2.12821 2.29664 2.12821 2.05609C2.13437 1.80982 2.02334 1.63227 1.80743 1.50627Z" id="Path" fill="#000575" stroke="none" />
        <path d="M3.95415 0C3.5285 0 3.15838 0.143182 2.86845 0.418091C2.57235 0.693 2.4243 1.03091 2.4243 1.42609C2.4243 1.81555 2.57235 2.15918 2.86845 2.43409C3.16455 2.709 3.5285 2.84645 3.95415 2.84645C4.37979 2.84645 4.74374 2.709 5.03984 2.43409C5.33594 2.15345 5.48399 1.81555 5.48399 1.42609C5.48399 1.03091 5.33594 0.693 5.03984 0.418091C4.74991 0.143182 4.37979 0 3.95415 0ZM4.78075 2.19927C4.55868 2.41118 4.28109 2.51427 3.95415 2.51427C3.6272 2.51427 3.35578 2.41118 3.12754 2.19927C2.8993 1.98164 2.78826 1.72964 2.78826 1.42609C2.78826 1.12827 2.8993 0.864818 3.12754 0.658636C3.35578 0.441 3.6272 0.337909 3.95415 0.337909C4.28109 0.337909 4.55868 0.446727 4.78075 0.658636C5.009 0.870545 5.12003 1.12255 5.12003 1.42609C5.12003 1.72964 5.009 1.98164 4.78075 2.19927Z" id="Shape" fill="#000575" stroke="none" />
        <path d="M5.95281 2.80636L6.32293 2.80636L6.32293 1.60936L7.6307 1.60936L7.6307 1.27718L6.32293 1.27718L6.32293 0.372273L7.67388 0.372273L7.67388 0.0400909L5.95281 0.0400909L5.95281 2.80636Z" id="Path" fill="#000575" stroke="none" />
        <path d="M7.87128 0.372273L8.7534 0.372273L8.7534 2.80636L9.1297 2.80636L9.1297 0.372273L10.018 0.372273L10.018 0.0400909L7.87128 0.0400909L7.87128 0.372273Z" id="Path" fill="#000575" stroke="none" />
        <path d="M13.7007 0.0400909L13.0345 2.21645L12.3004 0.0400909L11.9303 0.0400909L11.2086 2.21645L10.53 0.0400909L10.1414 0.0400909L11.005 2.80636L11.3813 2.80636L12.1215 0.618545L12.8556 2.80636L13.2257 2.80636L14.0893 0.0400909L13.7007 0.0400909Z" id="Path" fill="#000575" stroke="none" />
        <path d="M15.3169 0.0400909L14.9838 0.0400909L13.8241 2.80636L14.2189 2.80636L14.4965 2.142L15.8042 2.142L16.0757 2.80636L16.4705 2.80636L15.3354 0.0859091L15.3169 0.0400909ZM14.6322 1.80982L15.1504 0.561273L15.6685 1.80982L14.6322 1.80982Z" id="Shape" fill="#000575" stroke="none" />
        <path d="M18.6789 1.40891C18.8084 1.25427 18.8701 1.08245 18.8701 0.893455C18.8701 0.658636 18.7837 0.463909 18.5987 0.297818C18.4198 0.131727 18.2039 0.0458182 17.9571 0.0458182L16.7666 0.0458182L16.7666 2.81209L17.1367 2.81209L17.1367 1.73536L17.9078 1.73536L18.5863 2.81209L19.012 2.81209L18.2902 1.67809C18.4445 1.62082 18.574 1.53491 18.6789 1.40891ZM17.1429 1.40318L17.1429 0.372273L17.9633 0.372273C18.1175 0.372273 18.2409 0.423818 18.3458 0.521182C18.4506 0.624273 18.5061 0.744545 18.5061 0.887727C18.5061 1.03091 18.4568 1.15118 18.3458 1.25427C18.2409 1.35164 18.1113 1.40318 17.9633 1.40318L17.1429 1.40318L17.1429 1.40318Z" id="Shape" fill="#000575" stroke="none" />
        <path d="M19.6967 1.58073L20.986 1.58073L20.986 1.24855L19.6967 1.24855L19.6967 0.372273L21.0847 0.372273L21.0847 0.0400909L19.3266 0.0400909L19.3266 2.80636L21.1093 2.80636L21.1093 2.47991L19.6967 2.47991L19.6967 1.58073Z" id="Path" fill="#000575" stroke="none" />
        <path d="M24.3356 1.50627C24.2307 1.44327 24.1382 1.39745 24.0395 1.36309C23.9531 1.32873 23.8297 1.28864 23.6694 1.23709C23.4288 1.16264 23.2622 1.09391 23.1635 1.03091C23.0772 0.973636 23.034 0.893455 23.034 0.773182C23.034 0.515455 23.2561 0.337909 23.5953 0.337909C23.9161 0.337909 24.1258 0.469636 24.2492 0.744545L24.2801 0.819L24.6008 0.652909L24.5762 0.595636C24.4096 0.223364 24.0456 0 23.5953 0C23.3301 0 23.1142 0.0687273 22.9291 0.211909C22.7502 0.355091 22.6577 0.544091 22.6577 0.778909C22.6577 0.899182 22.6947 1.02518 22.7626 1.134C22.8242 1.22564 22.96 1.31727 23.034 1.35736C23.071 1.38027 23.1265 1.40891 23.2252 1.44327L23.4103 1.50627L23.6138 1.56355C23.8668 1.638 24.0395 1.71245 24.1443 1.78118C24.243 1.84991 24.2924 1.93582 24.2924 2.05609C24.2924 2.33673 24.058 2.50855 23.657 2.50855C23.2561 2.50855 22.9785 2.34245 22.8859 2.03318L22.8551 1.94155L22.5281 2.11909L22.5466 2.17636C22.6885 2.58873 23.1142 2.84645 23.6508 2.84645C23.9469 2.84645 24.1937 2.77773 24.3726 2.63455C24.5576 2.49136 24.6563 2.29664 24.6563 2.05609C24.6625 1.80982 24.5576 1.63227 24.3356 1.50627Z" id="Path" fill="#000575" stroke="none" />
        <path d="M26.4823 0C26.0566 0 25.6865 0.143182 25.3966 0.418091C25.1005 0.693 24.9524 1.03091 24.9524 1.42609C24.9524 1.81555 25.1005 2.15918 25.3966 2.43409C25.6927 2.709 26.0566 2.84645 26.4823 2.84645C26.9079 2.84645 27.2719 2.709 27.568 2.43409C27.8641 2.15345 28.0121 1.81555 28.0121 1.42609C28.0121 1.03091 27.8641 0.693 27.568 0.418091C27.2781 0.143182 26.9141 0 26.4823 0ZM27.3089 2.19927C27.0868 2.41118 26.8092 2.51427 26.4823 2.51427C26.1553 2.51427 25.8839 2.41118 25.6557 2.19927C25.4274 1.98164 25.3164 1.72964 25.3164 1.42609C25.3164 1.12827 25.4274 0.864818 25.6557 0.658636C25.8839 0.441 26.1553 0.337909 26.4823 0.337909C26.8092 0.337909 27.0868 0.446727 27.3089 0.658636C27.5371 0.870545 27.6482 1.12255 27.6482 1.42609C27.6482 1.72964 27.5371 1.98164 27.3089 2.19927Z" id="Shape" fill="#000575" stroke="none" />
        <path d="M28.8572 0.0400909L28.4871 0.0400909L28.4871 2.80636L30.1897 2.80636L30.1897 2.47991L28.8572 2.47991L28.8572 0.0400909Z" id="Path" fill="#000575" stroke="none" />
        <path d="M32.3302 1.86136C32.3302 2.27373 32.0526 2.51427 31.5838 2.51427C31.1212 2.51427 30.8436 2.268 30.8436 1.86136L30.8436 0.0458182L30.4734 0.0458182L30.4734 1.86136C30.4734 2.15918 30.5783 2.39973 30.7819 2.583C30.9854 2.76055 31.2569 2.85218 31.5838 2.85218C31.9169 2.85218 32.1883 2.76055 32.3857 2.583C32.5893 2.39973 32.6942 2.15918 32.6942 1.86136L32.6942 0.0458182L32.3241 0.0458182L32.3241 1.86136L32.3302 1.86136Z" id="Path" fill="#000575" stroke="none" />
        <path d="M33.0273 0.372273L33.9156 0.372273L33.9156 2.80636L34.2919 2.80636L34.2919 0.372273L35.1802 0.372273L35.1802 0.0400909L33.0273 0.0400909L33.0273 0.372273Z" id="Path" fill="#000575" stroke="none" />
        <path d="M35.5503 2.80636L35.9143 2.80636L35.9143 0.0400909L35.5503 0.0400909L35.5503 2.34245L35.5503 2.80636Z" id="Path" fill="#000575" stroke="none" />
        <path d="M37.9191 0C37.4934 0 37.1233 0.143182 36.8334 0.418091C36.5373 0.693 36.3892 1.03091 36.3892 1.42609C36.3892 1.81555 36.5373 2.15918 36.8334 2.43409C37.1295 2.709 37.4934 2.84645 37.9191 2.84645C38.3447 2.84645 38.7087 2.709 39.0048 2.43409C39.3009 2.15345 39.4489 1.81555 39.4489 1.42609C39.4489 1.03091 39.3009 0.693 39.0048 0.418091C38.7087 0.143182 38.3447 0 37.9191 0ZM38.7395 2.19927C38.5174 2.41118 38.2399 2.51427 37.9129 2.51427C37.586 2.51427 37.3145 2.41118 37.0863 2.19927C36.8581 1.98164 36.747 1.72964 36.747 1.42609C36.747 1.12827 36.8581 0.864818 37.0863 0.658636C37.3145 0.441 37.586 0.337909 37.9129 0.337909C38.2399 0.337909 38.5174 0.446727 38.7395 0.658636C38.9678 0.870545 39.0788 1.12255 39.0788 1.42609C39.085 1.72964 38.9678 1.98164 38.7395 2.19927Z" id="Shape" fill="#000575" stroke="none" />
        <path d="M41.7745 2.13627L40.22 0.0400909L39.9177 0.0400909L39.9177 2.80636L40.2879 2.80636L40.2879 0.715909L41.8115 2.77773L41.8362 2.80636L42.1447 2.80636L42.1447 0.0400909L41.7745 0.0400909L41.7745 2.13627Z" id="Path" fill="#000575" stroke="none" />
        <path d="M44.3531 1.50627C44.2482 1.44327 44.1557 1.39745 44.0569 1.36309C43.9706 1.32873 43.8472 1.28864 43.6868 1.23709C43.4462 1.16264 43.2797 1.09391 43.181 1.03091C43.0946 0.973636 43.0514 0.893455 43.0514 0.773182C43.0514 0.515455 43.2735 0.337909 43.6128 0.337909C43.9336 0.337909 44.1433 0.469636 44.2667 0.744545L44.2975 0.819L44.6183 0.652909L44.5936 0.595636C44.4271 0.223364 44.0631 0 43.6128 0C43.3475 0 43.1316 0.0687273 42.9466 0.211909C42.7677 0.355091 42.6752 0.544091 42.6752 0.778909C42.6752 0.899182 42.7122 1.02518 42.78 1.134C42.8417 1.22564 42.9774 1.31727 43.0514 1.35736C43.0885 1.38027 43.144 1.40891 43.2427 1.44327L43.4277 1.50627L43.6313 1.56355C43.8842 1.638 44.0569 1.71245 44.1618 1.78118C44.2605 1.84991 44.3099 1.93582 44.3099 2.05609C44.3099 2.33673 44.0755 2.50855 43.6745 2.50855C43.2735 2.50855 42.9959 2.34245 42.9034 2.03318L42.8726 1.94155L42.5456 2.11909L42.5641 2.17636C42.706 2.58873 43.1316 2.84645 43.6683 2.84645C43.9644 2.84645 44.2112 2.77773 44.3901 2.63455C44.5751 2.49136 44.6738 2.29664 44.6738 2.05609C44.68 1.80982 44.569 1.63227 44.3531 1.50627Z" id="Path" fill="#000575" stroke="none" />
      </g>
      <g id="Group" transform="translate(62.938198 5.4294543)">
        <path d="M1.55942 2.7C0.697486 2.7 0 2.09618 0 1.35C0 0.603818 0.697486 0 1.55942 0C2.42135 0 3.11884 0.603818 3.11884 1.35C3.11884 2.09618 2.41568 2.7 1.55942 2.7ZM1.55942 0.171818C0.810898 0.171818 0.198472 0.702 0.198472 1.35C0.198472 1.998 0.810898 2.52818 1.55942 2.52818C2.30794 2.52818 2.92037 1.998 2.92037 1.35C2.92037 0.702 2.30794 0.171818 1.55942 0.171818Z" id="Shape" fill="#000575" stroke="none" />
        <path d="M1.83728 2.06673L1.50271 1.566L1.25321 1.566L1.25321 2.06673L0.924311 2.06673L0.924311 0.628364L1.58777 0.628364C1.74088 0.628364 1.8713 0.677455 1.97905 0.765818C2.08679 0.859091 2.13782 0.972 2.13782 1.10455C2.13782 1.28127 2.0074 1.44818 1.82027 1.52182L2.18886 2.06182L1.83728 2.06182L1.83728 2.06673ZM1.25321 0.893455L1.25321 1.32055L1.58777 1.32055C1.71253 1.32055 1.8146 1.22236 1.8146 1.10455C1.8146 0.986727 1.71253 0.893455 1.58777 0.893455L1.25321 0.893455Z" id="Shape" fill="#000575" stroke="none" />
      </g>
    </g>
  </g>
</svg>