<?xml version="1.0" encoding="utf-8"?>
<svg width="82.04138px" height="30px" viewBox="0 0 82.04138 30" version="1.1" xmlns:xlink="http://www.w3.org/1999/xlink" xmlns="http://www.w3.org/2000/svg">
  <path d="M27.3632 27.4926L27.3632 24.3788L29.852 24.3788L29.852 30L0 30L0 0L29.852 0L29.852 9.23236L27.3632 9.23236L27.3632 2.50739L2.48877 2.50739L2.48877 27.4926L27.3632 27.4926ZM70.553 9.03271C69.6101 9.03271 68.8472 8.36182 68.8472 7.53271C68.8472 6.70361 69.6101 6.03271 70.553 6.03271C71.4958 6.03271 72.2588 6.70361 72.2588 7.53271C72.2588 8.36182 71.4896 9.03271 70.553 9.03271ZM70.553 6.22363C69.7343 6.22363 69.0643 6.81274 69.0643 7.53271C69.0643 8.25275 69.7343 8.8418 70.553 8.8418C71.3718 8.8418 72.0417 8.25275 72.0417 7.53271C72.0417 6.81274 71.3718 6.22363 70.553 6.22363ZM70.8569 8.3291L70.491 7.77271L70.218 7.77271L70.218 8.3291L69.8583 8.3291L69.8583 6.7309L70.584 6.7309C70.7515 6.7309 70.8942 6.78546 71.0121 6.88367C71.1299 6.98724 71.1857 7.11273 71.1857 7.26001C71.1857 7.45636 71.0431 7.64185 70.8384 7.72363L71.2416 8.32361L70.8569 8.32361L70.8569 8.3291ZM70.218 7.02545L70.218 7.5L70.584 7.5C70.7205 7.5 70.8322 7.39093 70.8322 7.26001C70.8322 7.12909 70.7205 7.02545 70.584 7.02545L70.218 7.02545ZM48.8486 15.8466C48.8486 14.5839 48.4951 13.608 47.7811 12.8914C47.0879 12.168 46.2006 11.8199 45.119 11.8268C43.7742 11.8268 42.7828 12.2704 42.1729 13.1849L42.1729 7.63635L39.6217 7.63635L39.6217 21.8113L42.1729 21.8113L42.1729 16.5631C42.1729 14.9525 43.0186 14.154 44.3427 14.154C45.5281 14.154 46.2976 14.8569 46.2976 16.1605L46.2976 21.8182L48.8486 21.8182L48.8486 15.8466ZM8.14142 8.18182L12.7169 21.8182L16.0291 21.8182L20.625 8.18182L17.6885 8.18182L14.3832 18.6603L11.0574 8.18182L8.14142 8.18182ZM38.5362 14.4182L36.3003 14.4182L36.3003 18.4703C36.3003 19.5226 37.071 19.5431 38.5362 19.4611L38.5362 21.7366C35.0366 22.1261 33.7451 21.1353 33.7451 18.4634L33.7451 14.4113L32.023 14.4113L32.023 11.9992L33.7451 11.9992L33.7451 10.0312L36.3003 9.27271L36.3003 11.9992L38.5362 11.9992L38.5362 14.4182ZM57.7582 11.1845L60.2467 11.1845L60.2467 20.9973L57.7582 20.9973L57.7582 19.8404C57.0076 20.8044 55.9662 21.2727 54.6138 21.2727C53.3221 21.2727 52.2267 20.7838 51.3002 19.7784C50.394 18.78 49.9342 17.5405 49.9342 16.0875C49.9342 14.6345 50.394 13.4156 51.3002 12.4172C52.2267 11.4186 53.3221 10.9091 54.6138 10.9091C55.9662 10.9091 57.0009 11.3773 57.7582 12.3414L57.7582 11.1845ZM63.9017 19.7784C64.9001 20.7838 66.1243 21.2727 67.5671 21.2727C69.0033 21.2727 70.2343 20.7838 71.2327 19.7784C72.2242 18.7731 72.7302 17.5405 72.7302 16.0875C72.7302 14.6345 72.2242 13.4156 71.2327 12.4172C70.2343 11.4186 69.0101 10.9091 67.5671 10.9091C66.1243 10.9091 64.8933 11.4186 63.9017 12.4172C62.9033 13.4156 62.4177 14.6345 62.4177 16.0875C62.4177 17.5405 62.9102 18.78 63.9017 19.7784ZM29.852 12L27.2958 12L27.2958 17.1604C27.2958 18.7421 26.4507 19.5262 25.1276 19.5262C23.9431 19.5262 23.1742 18.8359 23.1742 17.5558L23.1742 12L20.625 12L20.625 17.8641C20.625 19.1039 20.9783 20.0623 21.671 20.766C22.3845 21.4764 23.2712 21.8182 24.3588 21.8182C25.7026 21.8182 26.6932 21.3759 27.3028 20.4778L27.3028 21.5501L29.852 21.5501L29.852 12ZM55.0803 18.8557C55.8512 18.8557 56.4868 18.6009 56.9873 18.0913C57.5079 17.5611 57.7582 16.8931 57.7582 16.0875C57.7582 15.2818 57.5079 14.6138 56.9873 14.1042C56.4868 13.574 55.8512 13.3192 55.0803 13.3192C54.3094 13.3192 53.6737 13.574 53.1733 14.1042C52.673 14.6138 52.4227 15.2818 52.4227 16.0875C52.4227 16.8931 52.673 17.5611 53.1733 18.0913C53.6737 18.6009 54.3094 18.8557 55.0803 18.8557ZM69.4546 18.0363C68.9486 18.5458 68.3263 18.8006 67.5671 18.8006C66.8013 18.8006 66.179 18.5458 65.6797 18.0363C65.1942 17.5267 64.9412 16.8794 64.9412 16.0944C64.9412 15.3093 65.1942 14.662 65.6797 14.1525C66.1858 13.6429 66.8081 13.3881 67.5671 13.3881C68.3263 13.3881 68.9486 13.6429 69.4546 14.1525C69.9607 14.662 70.2136 15.3093 70.2136 16.0944C70.2136 16.8794 69.9607 17.5267 69.4546 18.0363ZM74.3585 19.0909L81.9573 19.0909L81.9573 22.3636L74.3585 22.3636L74.3585 19.0909ZM35.1502 28.4391C35.0355 28.3691 34.9343 28.3182 34.8263 28.28C34.7319 28.2418 34.5969 28.1973 34.4214 28.14C34.1583 28.0573 33.9761 27.9809 33.8681 27.9109C33.7737 27.8473 33.7264 27.7582 33.7264 27.6246C33.7264 27.3382 33.9694 27.1409 34.3405 27.1409C34.6913 27.1409 34.9208 27.2873 35.0557 27.5927L35.0895 27.6755L35.4404 27.4909L35.4134 27.4272C35.2312 27.0136 34.8331 26.7654 34.3405 26.7654C34.0503 26.7654 33.8141 26.8418 33.6117 27.0009C33.416 27.16 33.3148 27.37 33.3148 27.6309C33.3148 27.7645 33.3553 27.9045 33.4295 28.0255C33.497 28.1273 33.6454 28.2291 33.7264 28.2736C33.7669 28.2991 33.8276 28.3309 33.9356 28.3691L34.1381 28.4391L34.3607 28.5027C34.6374 28.5854 34.8263 28.6682 34.941 28.7446C35.049 28.8209 35.103 28.9164 35.103 29.05C35.103 29.3618 34.8466 29.5527 34.408 29.5527C33.9694 29.5527 33.6657 29.3682 33.5645 29.0245L33.5308 28.9227L33.1731 29.12L33.1934 29.1837C33.3485 29.6418 33.8141 29.9282 34.4012 29.9282C34.7251 29.9282 34.995 29.8518 35.1907 29.6927C35.3931 29.5336 35.5011 29.3173 35.5011 29.05C35.5079 28.7764 35.3864 28.5791 35.1502 28.4391ZM37.4985 26.7654C37.0329 26.7654 36.628 26.9246 36.3109 27.23C35.9869 27.5355 35.825 27.9109 35.825 28.35C35.825 28.7827 35.9869 29.1646 36.3109 29.47C36.6348 29.7755 37.0329 29.9282 37.4985 29.9282C37.9641 29.9282 38.3622 29.7755 38.6861 29.47C39.01 29.1582 39.1719 28.7827 39.1719 28.35C39.1719 27.9109 39.01 27.5355 38.6861 27.23C38.369 26.9246 37.9641 26.7654 37.4985 26.7654ZM59.4695 28.28C59.5775 28.3182 59.6787 28.3691 59.7935 28.4391C60.0364 28.5791 60.1511 28.7764 60.1443 29.05C60.1443 29.3173 60.0364 29.5336 59.8339 29.6927C59.6382 29.8518 59.3683 29.9282 59.0444 29.9282C58.4574 29.9282 57.9917 29.6418 57.8365 29.1837L57.8163 29.12L58.174 28.9227L58.2076 29.0245C58.3088 29.3682 58.6125 29.5527 59.0511 29.5527C59.4897 29.5527 59.7462 29.3618 59.7462 29.05C59.7462 28.9164 59.6923 28.8209 59.5842 28.7446C59.4695 28.6682 59.2806 28.5854 59.0039 28.5027L58.7813 28.4391L58.5789 28.3691C58.4708 28.3309 58.4102 28.2991 58.3696 28.2736C58.2887 28.2291 58.1403 28.1273 58.0728 28.0255C57.9985 27.9045 57.958 27.7645 57.958 27.6309C57.958 27.37 58.0592 27.16 58.2549 27.0009C58.4574 26.8418 58.6935 26.7654 58.9836 26.7654C59.4763 26.7654 59.8744 27.0136 60.0566 27.4272L60.0836 27.4909L59.7327 27.6755L59.699 27.5927C59.564 27.2873 59.3346 27.1409 58.9836 27.1409C58.6125 27.1409 58.3696 27.3382 58.3696 27.6246C58.3696 27.7582 58.4169 27.8473 58.5114 27.9109C58.6193 27.9809 58.8015 28.0573 59.0647 28.14C59.2401 28.1973 59.375 28.2418 59.4695 28.28ZM62.1417 26.7654C61.676 26.7654 61.2712 26.9246 60.9541 27.23C60.6301 27.5355 60.4683 27.9109 60.4683 28.35C60.4683 28.7827 60.6301 29.1646 60.9541 29.47C61.278 29.7755 61.676 29.9282 62.1417 29.9282C62.6073 29.9282 63.0054 29.7755 63.3293 29.47C63.6532 29.1582 63.8152 28.7827 63.8152 28.35C63.8152 27.9109 63.6532 27.5355 63.3293 27.23C63.0122 26.9246 62.614 26.7654 62.1417 26.7654ZM73.4646 27.23C73.7817 26.9246 74.1866 26.7654 74.6522 26.7654C75.1178 26.7654 75.516 26.9246 75.8398 27.23C76.1638 27.5355 76.3257 27.9109 76.3257 28.35C76.3257 28.7827 76.1638 29.1582 75.8398 29.47C75.516 29.7755 75.1178 29.9282 74.6522 29.9282C74.1866 29.9282 73.7885 29.7755 73.4646 29.47C73.1407 29.1646 72.9788 28.7827 72.9788 28.35C72.9788 27.9109 73.1407 27.5355 73.4646 27.23ZM81.3663 28.28C81.4744 28.3182 81.5756 28.3691 81.6903 28.4391C81.9264 28.5791 82.0479 28.7764 82.0411 29.05C82.0411 29.3173 81.9332 29.5336 81.7307 29.6927C81.535 29.8518 81.2651 29.9282 80.9413 29.9282C80.3541 29.9282 79.8885 29.6418 79.7334 29.1837L79.7131 29.12L80.0708 28.9227L80.1045 29.0245C80.2057 29.3682 80.5094 29.5527 80.948 29.5527C81.3866 29.5527 81.6431 29.3618 81.6431 29.05C81.6431 28.9164 81.589 28.8209 81.4811 28.7446C81.3663 28.6682 81.1774 28.5854 80.9008 28.5027L80.6781 28.4391L80.4756 28.3691C80.3677 28.3309 80.3069 28.2991 80.2665 28.2736C80.1855 28.2291 80.037 28.1273 79.9696 28.0255C79.8953 27.9045 79.8549 27.7645 79.8549 27.6309C79.8549 27.37 79.9561 27.16 80.1517 27.0009C80.3541 26.8418 80.5903 26.7654 80.8805 26.7654C81.373 26.7654 81.7712 27.0136 81.9534 27.4272L81.9805 27.4909L81.6295 27.6755L81.5958 27.5927C81.4608 27.2873 81.2314 27.1409 80.8805 27.1409C80.5094 27.1409 80.2665 27.3382 80.2665 27.6246C80.2665 27.7582 80.3137 27.8473 80.4082 27.9109C80.5161 27.9809 80.6984 28.0573 80.9614 28.14C81.137 28.1973 81.2719 28.2418 81.3663 28.28ZM40.0896 29.8837L39.6848 29.8837L39.6848 26.81L41.5674 26.81L41.5674 27.1791L40.0896 27.1791L40.0896 28.1846L41.5203 28.1846L41.5203 28.5536L40.0896 28.5536L40.0896 29.8837ZM41.7833 27.1791L42.7483 27.1791L42.7483 29.8837L43.1599 29.8837L43.1599 27.1791L44.1316 27.1791L44.1316 26.81L41.7833 26.81L41.7833 27.1791ZM47.4314 29.2282L48.1602 26.81L48.5852 26.81L47.6405 29.8837L47.2356 29.8837L46.4326 27.4528L45.6229 29.8837L45.2113 29.8837L44.2666 26.81L44.6917 26.81L45.434 29.2282L46.2235 26.81L46.6283 26.81L47.4314 29.2282ZM49.9281 26.81L49.5637 26.81L48.295 29.8837L48.7269 29.8837L49.0306 29.1454L50.4612 29.1454L50.7581 29.8837L51.1899 29.8837L49.9482 26.8609L49.9281 26.81ZM54.719 28.5218L56.1294 28.5218L56.1294 28.1527L54.719 28.1527L54.719 27.1791L56.2373 27.1791L56.2373 26.81L54.3142 26.81L54.3142 29.8837L56.2643 29.8837L56.2643 29.5209L54.719 29.5209L54.719 28.5218ZM64.3347 26.81L64.7396 26.81L64.7396 29.5209L66.1971 29.5209L66.1971 29.8837L64.3347 29.8837L64.3347 26.81ZM70.2728 27.1791L69.3011 27.1791L69.3011 26.81L71.6561 26.81L71.6561 27.1791L70.6844 27.1791L70.6844 29.8837L70.2728 29.8837L70.2728 27.1791ZM72.061 29.8837L72.4592 29.8837L72.4592 26.81L72.061 26.81L72.061 29.8837ZM78.8696 29.1391L77.1692 26.81L76.8385 26.81L76.8385 29.8837L77.2434 29.8837L77.2434 27.5609L78.9102 29.8518L78.9371 29.8837L79.2745 29.8837L79.2745 26.81L78.8696 26.81L78.8696 29.1391ZM53.8148 27.7582C53.8148 27.9682 53.7473 28.1591 53.6056 28.3309C53.491 28.4709 53.3492 28.5663 53.1805 28.63L53.97 29.89L53.5044 29.89L52.7622 28.6937L51.9187 28.6937L51.9187 29.89L51.5138 29.89L51.5138 26.8163L52.8162 26.8163C53.0861 26.8163 53.3223 26.9118 53.5179 27.0964C53.7203 27.2809 53.8148 27.4973 53.8148 27.7582ZM68.5387 28.8336C68.5387 29.2918 68.235 29.5591 67.7222 29.5591C67.2161 29.5591 66.9125 29.2855 66.9125 28.8336L66.9125 26.8163L66.5076 26.8163L66.5076 28.8336C66.5076 29.1646 66.6223 29.4318 66.845 29.6354C67.0676 29.8327 67.3645 29.9346 67.7222 29.9346C68.0865 29.9346 68.3834 29.8327 68.5994 29.6354C68.822 29.4318 68.9368 29.1646 68.9368 28.8336L68.9368 26.8163L68.532 26.8163L68.532 28.8336L68.5387 28.8336ZM38.4027 29.2091C38.1598 29.4445 37.8561 29.5591 37.4985 29.5591C37.1409 29.5591 36.8439 29.4445 36.5942 29.2091C36.3446 28.9673 36.2231 28.6873 36.2231 28.35C36.2231 28.0191 36.3446 27.7264 36.5942 27.4973C36.8439 27.2554 37.1409 27.1409 37.4985 27.1409C37.8561 27.1409 38.1598 27.2618 38.4027 27.4973C38.6523 27.7327 38.7738 28.0128 38.7738 28.35C38.7738 28.6873 38.6523 28.9673 38.4027 29.2091ZM63.0459 29.2091C62.803 29.4445 62.4993 29.5591 62.1417 29.5591C61.7841 29.5591 61.4872 29.4445 61.2374 29.2091C60.9878 28.9673 60.8663 28.6873 60.8663 28.35C60.8663 28.0191 60.9878 27.7264 61.2374 27.4973C61.4872 27.2554 61.7841 27.1409 62.1417 27.1409C62.4993 27.1409 62.803 27.2618 63.0459 27.4973C63.2955 27.7327 63.417 28.0128 63.417 28.35C63.417 28.6873 63.2955 28.9673 63.0459 29.2091ZM74.6455 29.5591C75.0032 29.5591 75.3068 29.4445 75.5497 29.2091C75.7993 28.9673 75.9276 28.6873 75.9208 28.35C75.9208 28.0128 75.7993 27.7327 75.5497 27.4973C75.3068 27.2618 75.0032 27.1409 74.6455 27.1409C74.2878 27.1409 73.991 27.2554 73.7412 27.4973C73.4916 27.7264 73.3701 28.0191 73.3701 28.35C73.3701 28.6873 73.4916 28.9673 73.7412 29.2091C73.991 29.4445 74.2878 29.5591 74.6455 29.5591ZM51.9254 27.1791L51.9254 28.3245L52.8229 28.3245C52.9849 28.3245 53.1266 28.2673 53.2412 28.1591C53.3627 28.0446 53.4167 27.9109 53.4167 27.7518C53.4167 27.5927 53.356 27.4591 53.2412 27.3445C53.1266 27.2364 52.9916 27.1791 52.8229 27.1791L51.9254 27.1791ZM49.1791 28.7764L49.7458 27.3891L50.3126 28.7764L49.1791 28.7764Z" id="Combined-Shape" fill="#FFFFFF" fill-rule="evenodd" stroke="none" />
</svg>